<svg xmlns="http://www.w3.org/2000/svg" xmlns:xlink="http://www.w3.org/1999/xlink" width="500" zoomAndPan="magnify" viewBox="0 0 375 374.999991" height="500" preserveAspectRatio="xMidYMid meet" version="1.0"><defs><clipPath id="701079b8e8"><path d="M 20 29.296875 L 197 29.296875 L 197 163 L 20 163 Z M 20 29.296875 " clip-rule="nonzero"/></clipPath><clipPath id="258c085797"><path d="M 0 145 L 218 145 L 218 345.796875 L 0 345.796875 Z M 0 145 " clip-rule="nonzero"/></clipPath><clipPath id="660e8498e2"><path d="M 20 29.296875 L 109 29.296875 L 109 163 L 20 163 Z M 20 29.296875 " clip-rule="nonzero"/></clipPath><clipPath id="f1036d6d47"><path d="M 0 145 L 109 145 L 109 345.796875 L 0 345.796875 Z M 0 145 " clip-rule="nonzero"/></clipPath></defs><g clip-path="url(#701079b8e8)"><path fill="#d3d2d2" d="M 108.90625 29.566406 C 60.375 29.566406 20.898438 69.054688 20.898438 117.601562 L 20.898438 162.792969 L 53.429688 162.792969 L 53.429688 117.601562 C 53.429688 87 78.316406 62.101562 108.90625 62.101562 C 139.496094 62.101562 164.378906 87 164.378906 117.601562 L 164.378906 162.792969 L 196.921875 162.792969 L 196.921875 117.601562 C 196.921875 69.054688 157.433594 29.566406 108.90625 29.566406 " fill-opacity="1" fill-rule="nonzero"/></g><path fill="#a7a5a6" d="M 53.429688 156.589844 L 20.898438 156.589844 L 20.898438 126.09375 L 53.429688 126.09375 L 53.429688 156.589844 " fill-opacity="1" fill-rule="nonzero"/><path fill="#a7a5a6" d="M 196.921875 156.589844 L 164.378906 156.589844 L 164.378906 126.09375 L 196.921875 126.09375 L 196.921875 156.589844 " fill-opacity="1" fill-rule="nonzero"/><g clip-path="url(#258c085797)"><path fill="#fab40a" d="M 217.773438 310.339844 C 217.773438 329.746094 202.046875 345.472656 182.660156 345.472656 L 35.15625 345.472656 C 15.761719 345.472656 0.0351562 329.746094 0.0351562 310.339844 L 0.0351562 180.359375 C 0.0351562 160.960938 15.761719 145.234375 35.15625 145.234375 L 182.660156 145.234375 C 202.046875 145.234375 217.773438 160.960938 217.773438 180.359375 L 217.773438 310.339844 " fill-opacity="1" fill-rule="nonzero"/></g><path fill="#393536" d="M 144.136719 228.550781 C 144.136719 209.09375 128.367188 193.320312 108.90625 193.320312 C 89.453125 193.320312 73.683594 209.09375 73.683594 228.550781 C 73.683594 243.152344 82.558594 255.671875 95.214844 261.023438 L 95.214844 307.496094 L 122.609375 307.496094 L 122.609375 261.023438 C 135.253906 255.671875 144.136719 243.152344 144.136719 228.550781 " fill-opacity="1" fill-rule="nonzero"/><g clip-path="url(#660e8498e2)"><path fill="#a5a3a4" d="M 108.390625 29.574219 C 60.097656 29.859375 20.898438 69.226562 20.898438 117.601562 L 20.898438 162.792969 L 53.429688 162.792969 L 53.429688 117.601562 C 53.429688 87.171875 78.039062 62.410156 108.390625 62.132812 L 108.390625 29.574219 " fill-opacity="1" fill-rule="nonzero"/></g><path fill="#656263" d="M 53.429688 156.589844 L 20.898438 156.589844 L 20.898438 126.09375 L 53.429688 126.09375 L 53.429688 156.589844 " fill-opacity="1" fill-rule="nonzero"/><g clip-path="url(#f1036d6d47)"><path fill="#e08b0d" d="M 108.390625 145.234375 L 35.15625 145.234375 C 15.761719 145.234375 0.0351562 160.960938 0.0351562 180.359375 L 0.0351562 310.339844 C 0.0351562 329.746094 15.761719 345.472656 35.15625 345.472656 L 108.390625 345.472656 L 108.390625 145.234375 " fill-opacity="1" fill-rule="nonzero"/></g><path fill="#231f20" d="M 108.390625 307.496094 L 108.390625 193.34375 C 89.179688 193.617188 73.683594 209.261719 73.683594 228.550781 C 73.683594 243.152344 82.558594 255.671875 95.214844 261.023438 L 95.214844 307.496094 L 108.390625 307.496094 " fill-opacity="1" fill-rule="nonzero"/><path fill="#fab40a" d="M 145.738281 216.269531 L 154.730469 225.082031 L 163.714844 216.269531 L 191.460938 216.269531 L 200.449219 225.082031 L 209.207031 216.269531 L 230.71875 216.269531 L 239.898438 225.082031 L 259.34375 225.082031 L 259.34375 258.3125 L 107.925781 258.3125 L 107.925781 224.285156 L 116.09375 216.269531 L 145.738281 216.269531 " fill-opacity="1" fill-rule="nonzero"/><path fill="#ee8a10" d="M 259.34375 253.550781 L 107.925781 253.550781 L 107.925781 244.25 L 259.34375 244.25 L 259.34375 253.550781 " fill-opacity="1" fill-rule="nonzero"/><path fill="#ee8a10" d="M 259.34375 238.683594 L 107.925781 238.683594 L 107.925781 232.023438 L 259.34375 232.023438 L 259.34375 238.683594 " fill-opacity="1" fill-rule="nonzero"/><path fill="#fab40a" d="M 338.613281 224.175781 C 349.453125 224.175781 358.226562 232.957031 358.226562 243.785156 C 358.226562 254.621094 349.453125 263.402344 338.613281 263.402344 C 327.796875 263.402344 319.015625 254.621094 319.015625 243.785156 C 319.015625 232.957031 327.796875 224.175781 338.613281 224.175781 Z M 310.34375 179.117188 C 274.640625 179.117188 245.699219 208.074219 245.699219 243.796875 C 245.699219 279.503906 274.640625 308.457031 310.34375 308.457031 C 346.050781 308.457031 374.988281 279.503906 374.988281 243.796875 C 374.988281 208.074219 346.050781 179.117188 310.34375 179.117188 " fill-opacity="1" fill-rule="nonzero"/><path fill="#f49c0e" d="M 259.34375 244.25 L 259.34375 258.3125 L 107.925781 258.3125 L 107.925781 244.25 L 259.34375 244.25 " fill-opacity="1" fill-rule="nonzero"/><path fill="#d87c0f" d="M 259.34375 244.25 L 259.34375 253.550781 L 107.925781 253.550781 L 107.925781 244.25 L 259.34375 244.25 " fill-opacity="1" fill-rule="nonzero"/><path fill="#f49c0e" d="M 319.03125 244.25 C 319.289062 254.859375 327.949219 263.402344 338.613281 263.402344 C 349.296875 263.402344 357.957031 254.859375 358.207031 244.25 L 374.980469 244.25 C 374.726562 279.757812 345.898438 308.457031 310.34375 308.457031 C 274.800781 308.457031 245.957031 279.757812 245.707031 244.25 L 319.03125 244.25 " fill-opacity="1" fill-rule="nonzero"/></svg>