<svg xmlns="http://www.w3.org/2000/svg" xmlns:xlink="http://www.w3.org/1999/xlink" width="500" zoomAndPan="magnify" viewBox="0 0 375 374.999991" height="500" preserveAspectRatio="xMidYMid meet" version="1.0"><defs><g/><clipPath id="f82bb6bc2b"><path d="M 126 112 L 164 112 L 164 149 L 126 149 Z M 126 112 " clip-rule="nonzero"/></clipPath><clipPath id="1791f94e4a"><path d="M 130.417969 110.144531 L 167.570312 115.253906 L 162.769531 150.175781 L 125.617188 145.066406 Z M 130.417969 110.144531 " clip-rule="nonzero"/></clipPath><clipPath id="339046c86d"><path d="M 130.417969 110.144531 L 167.570312 115.253906 L 162.769531 150.175781 L 125.617188 145.066406 Z M 130.417969 110.144531 " clip-rule="nonzero"/></clipPath><clipPath id="e853b525e6"><path d="M 130.417969 110.144531 L 167.570312 115.253906 L 162.769531 150.175781 L 125.617188 145.066406 Z M 130.417969 110.144531 " clip-rule="nonzero"/></clipPath></defs><rect x="-37.5" width="450" fill="#ffffff" y="-37.499999" height="449.999989" fill-opacity="1"/><rect x="-37.5" width="450" fill="#e4e2dd" y="-37.499999" height="449.999989" fill-opacity="1"/><path fill="#151419" d="M 132.300781 150.90625 C 132.527344 150.199219 132.9375 149.386719 133.632812 149.042969 C 134.132812 148.796875 134.632812 149.292969 134.382812 149.796875 C 134.132812 150.304688 133.796875 150.722656 133.652344 151.277344 C 133.421875 152.152344 132.023438 151.765625 132.300781 150.90625 Z M 136.796875 151.726562 C 137.023438 151.023438 137.433594 150.207031 138.128906 149.867188 C 138.628906 149.617188 139.128906 150.117188 138.878906 150.617188 C 138.628906 151.125 138.292969 151.542969 138.148438 152.097656 C 137.917969 152.972656 136.519531 152.585938 136.796875 151.726562 Z M 125.613281 154.949219 C 125.976562 153.363281 126.597656 151.898438 126.84375 150.265625 C 127.054688 148.867188 127.078125 147.527344 127.558594 146.191406 C 128.726562 142.945312 130.78125 140.777344 134.15625 140.828125 C 133.703125 141.535156 133.296875 142.28125 132.863281 142.984375 C 131.855469 144.621094 130.761719 146.140625 129.890625 147.863281 C 128.601562 150.421875 127.394531 152.890625 125.613281 154.949219 Z M 110.9375 166.011719 C 110.96875 166.050781 111 166.078125 111.03125 166.109375 C 111.066406 167.140625 111.371094 168.15625 111.972656 168.980469 C 113.726562 171.390625 117.523438 171.953125 120.28125 171.960938 C 123.4375 171.96875 126.726562 171.3125 129.609375 170.027344 C 130.789062 169.503906 131.902344 168.871094 133.03125 168.269531 C 130.953125 171.839844 124.660156 177.421875 121.53125 172.101562 C 121.46875 172 121.289062 172.039062 121.296875 172.164062 C 121.472656 175.03125 124.621094 175.316406 126.820312 174.777344 C 130.183594 173.953125 132.519531 171.523438 133.660156 168.292969 C 133.703125 168.164062 133.644531 168.058594 133.550781 167.996094 C 134.285156 167.621094 135.027344 167.265625 135.804688 166.976562 C 137.539062 166.324219 139.332031 165.8125 141.003906 165.007812 C 143.953125 163.589844 146.070312 161.246094 147.324219 158.238281 C 147.535156 157.738281 146.667969 157.378906 146.453125 157.871094 C 144.519531 162.324219 140.945312 163.988281 136.613281 165.539062 C 133.121094 166.792969 130.082031 169.066406 126.496094 170.0625 C 124.207031 170.695312 121.808594 171.078125 119.429688 170.96875 C 117.292969 170.867188 115.046875 170.601562 113.429688 169.058594 C 113.691406 169.039062 113.964844 168.953125 114.25 168.796875 C 114.824219 168.488281 115.3125 167.71875 116.097656 167.988281 C 116.464844 168.117188 116.886719 168.808594 117.296875 169.023438 C 119.195312 170.019531 121.359375 169.007812 122.105469 167.101562 C 122.320312 166.550781 121.433594 166.316406 121.222656 166.859375 C 120.378906 169.023438 118.253906 168.667969 116.902344 167.519531 C 116.578125 167.246094 116.40625 166.960938 115.984375 166.859375 C 115.125 166.644531 113.324219 168.421875 112.773438 167.875 C 112.695312 167.796875 112.609375 167.765625 112.519531 167.753906 C 112.375 167.429688 112.273438 167.089844 112.210938 166.746094 C 113.476562 166.929688 115.015625 166.03125 115.9375 165.296875 C 117.113281 164.359375 118.46875 163.363281 118.320312 161.632812 C 118.285156 161.242188 118.148438 160.925781 117.949219 160.667969 C 118.425781 160.523438 118.894531 160.382812 119.359375 160.226562 C 122.40625 159.203125 125.089844 157.441406 127.113281 154.917969 C 129.332031 152.152344 130.277344 148.695312 132.171875 145.738281 C 133.160156 144.199219 134.089844 142.601562 135.117188 141.089844 C 136.511719 139.03125 138.894531 137.738281 141.300781 137.246094 C 142.96875 136.902344 144.816406 136.363281 146.507812 136.730469 C 148.5625 137.179688 150.621094 138.492188 151.40625 140.507812 C 151.492188 140.730469 151.742188 140.757812 151.890625 140.652344 C 151.863281 140.855469 151.984375 141.09375 152.246094 141.128906 C 159.6875 142.109375 160.890625 151.875 159.925781 157.804688 C 158.996094 163.511719 156.910156 170.332031 152.441406 174.222656 C 151.324219 175.195312 150.023438 176.226562 148.679688 176.894531 C 146.949219 177.757812 144.496094 177.8125 143.773438 175.546875 C 143.472656 174.609375 143.746094 173.59375 144.003906 172.691406 C 144.792969 169.925781 146.089844 167.300781 147.03125 164.582031 C 147.617188 162.890625 148.199219 161.1875 148.550781 159.429688 C 148.917969 157.570312 149.101562 155.621094 148.953125 153.730469 C 148.835938 152.261719 148.429688 150.519531 147.582031 149.289062 C 147.546875 149.238281 147.457031 149.269531 147.476562 149.335938 C 148.730469 153.636719 147.976562 158.527344 146.589844 162.710938 C 145.433594 166.21875 143.164062 169.9375 142.863281 173.65625 C 142.691406 175.835938 143.679688 178.265625 146.125 178.421875 C 148.867188 178.59375 151.925781 175.796875 153.761719 174.027344 C 156.253906 171.628906 157.527344 168.546875 158.691406 165.351562 C 160.027344 161.675781 161.082031 157.820312 161.082031 153.878906 C 161.085938 148.601562 158.675781 140.550781 152.246094 140.367188 C 152.132812 140.363281 152.054688 140.402344 151.996094 140.453125 C 151.996094 140.421875 151.992188 140.386719 151.980469 140.347656 C 149.820312 133.75 140.019531 135.367188 135.871094 138.789062 C 135.324219 139.238281 134.875 139.78125 134.472656 140.359375 C 132.0625 139.433594 129.445312 141.015625 128.109375 143.058594 C 125.828125 146.542969 125.417969 150.8125 125.054688 154.894531 C 125.035156 155.113281 125.273438 155.207031 125.445312 155.144531 C 124.582031 156.113281 123.582031 156.984375 122.378906 157.722656 C 120.667969 158.777344 118.695312 159.289062 116.796875 159.941406 C 116.027344 159.730469 115.113281 159.804688 114.421875 160.078125 C 113.421875 160.476562 112.535156 160.988281 111.816406 161.789062 C 110.875 162.835938 109.945312 164.761719 110.9375 166.011719 Z M 247.574219 152.847656 C 244.761719 151.636719 243.992188 147.570312 245.363281 145.105469 C 245.460938 144.925781 245.71875 145.082031 245.632812 145.261719 C 244.890625 146.792969 244.800781 148.523438 245.542969 150.066406 C 246.066406 151.152344 246.96875 151.757812 247.753906 152.613281 C 247.871094 152.746094 247.722656 152.910156 247.574219 152.847656 Z M 249.65625 149.777344 C 249 148.882812 248.484375 147.636719 248.8125 146.519531 C 248.832031 146.457031 248.9375 146.449219 248.949219 146.519531 C 249.148438 147.652344 249.257812 148.636719 249.925781 149.617188 C 250.042969 149.789062 249.773438 149.9375 249.65625 149.777344 Z M 263.839844 145.445312 C 263.796875 145.316406 264.003906 145.226562 264.058594 145.351562 C 265.191406 147.890625 264.589844 151.332031 262.449219 153.203125 C 262.261719 153.367188 262.027344 153.164062 262.121094 152.945312 C 263.210938 150.375 264.847656 148.410156 263.839844 145.445312 Z M 260.429688 146.335938 C 260.4375 146.296875 260.5 146.289062 260.519531 146.324219 C 261.070312 147.390625 260.964844 149.101562 260.21875 150.035156 C 260.15625 150.117188 260.027344 150.03125 260.054688 149.941406 C 260.238281 149.300781 260.371094 148.652344 260.382812 147.984375 C 260.386719 147.4375 260.300781 146.871094 260.429688 146.335938 Z M 252.070312 159.84375 C 251.824219 159.890625 251.71875 159.507812 251.964844 159.464844 C 255.945312 158.769531 256.308594 153.78125 256.257812 150.542969 C 256.230469 148.957031 256.070312 147.324219 255.621094 145.800781 C 255.539062 145.519531 254.476562 142.296875 253.507812 143.914062 C 253.46875 143.980469 254.101562 145.953125 254.132812 146.105469 C 254.847656 149.886719 253.46875 156.78125 248.957031 157.65625 C 248.746094 157.695312 248.605469 157.414062 248.804688 157.296875 C 251.175781 155.898438 252.726562 153.765625 253.238281 151.039062 C 253.523438 149.511719 253.558594 147.878906 253.273438 146.34375 C 253.101562 145.414062 252.617188 144.550781 252.449219 143.636719 C 251.988281 141.121094 254.570312 141.734375 255.558594 143.191406 C 258.710938 147.828125 259.03125 158.515625 252.070312 159.84375 Z M 237.078125 179.199219 C 237.210938 177.796875 237.078125 176.390625 237.289062 175.007812 C 237.316406 174.828125 237.546875 174.882812 237.597656 175.007812 C 238.25 176.570312 237.890625 178.359375 237.726562 180.015625 C 237.621094 181.105469 236.796875 183.585938 237.078125 184.53125 C 237.925781 187.386719 240.675781 182.753906 241.207031 181.863281 C 242.097656 180.371094 243.023438 178.574219 243.578125 176.941406 C 243.589844 176.898438 243.652344 176.914062 243.644531 176.960938 C 243.167969 179.546875 242.269531 181.730469 240.757812 183.894531 C 240.082031 184.863281 238.742188 186.917969 237.285156 186.699219 C 236.046875 186.511719 236.128906 185.28125 236.289062 184.3125 C 236.566406 182.601562 236.917969 180.933594 237.078125 179.199219 Z M 138.550781 166.957031 C 140.246094 169.660156 141.628906 172.027344 141.402344 175.289062 C 141.148438 179.011719 140.554688 183.027344 141.097656 186.738281 C 141.265625 187.886719 142.210938 190.640625 143.464844 188.449219 C 143.746094 187.957031 143.671875 186.960938 143.75 186.414062 C 143.949219 185.023438 144.175781 183.621094 144.761719 182.332031 C 145.5 180.710938 146.722656 179.207031 148.472656 180.5625 C 150.109375 181.832031 150.4375 184.390625 150.703125 186.289062 C 150.796875 186.976562 150.824219 187.699219 150.96875 188.375 C 151.011719 188.574219 151.035156 189.039062 151.1875 189.171875 C 151.347656 189.589844 151.53125 190.046875 152.066406 190.003906 C 152.382812 189.980469 152.664062 189.777344 152.851562 189.519531 C 153.363281 188.832031 153.460938 187.695312 153.5 186.859375 C 153.546875 185.96875 153.449219 185.050781 153.570312 184.164062 C 154.300781 178.730469 158.820312 178.367188 163.257812 179.632812 C 177.6875 183.742188 193.085938 184.121094 207.699219 180.855469 C 211.210938 180.070312 214.640625 179.285156 218.035156 178.078125 C 221.605469 176.808594 225.179688 175.5 228.886719 174.65625 C 234.140625 173.464844 240.394531 172.898438 244.910156 176.433594 C 247.53125 178.484375 247.8125 181.425781 248.359375 184.546875 C 248.53125 185.53125 248.492188 186.273438 249.371094 186.886719 C 250.066406 187.367188 250.460938 187.5 251.125 186.703125 C 251.359375 186.417969 251.480469 185.96875 251.585938 185.628906 C 251.9375 184.519531 251.960938 183.328125 251.980469 182.171875 C 252.113281 174.953125 258.871094 164.707031 250.417969 159.6875 C 250.25 159.582031 250.363281 159.273438 250.5625 159.351562 C 256.492188 161.59375 256.296875 169.011719 254.609375 174.0625 C 253.988281 175.917969 253.417969 177.769531 253.171875 179.714844 C 252.996094 181.121094 253.082031 182.527344 252.941406 183.929688 C 252.796875 185.410156 252.464844 187.503906 250.957031 188.230469 C 249.257812 189.046875 247.980469 187.679688 247.585938 186.144531 C 247.132812 184.378906 247.023438 182.535156 246.542969 180.773438 C 245.972656 178.664062 244.65625 177.304688 242.75 176.285156 C 235.589844 172.449219 226.09375 176.359375 219.105469 178.839844 C 203.757812 184.292969 187.625 185.222656 171.609375 182.625 C 168.347656 182.097656 165.304688 181.214844 162.121094 180.402344 C 160.636719 180.027344 158.925781 179.660156 157.425781 180.160156 C 154.753906 181.046875 154.625 183.996094 154.4375 186.363281 C 154.3125 187.929688 154.257812 190.792969 152.164062 190.976562 C 150.238281 191.144531 149.996094 188.925781 149.808594 187.507812 C 149.613281 186.023438 149.527344 183.226562 148.414062 182.0625 C 145.667969 179.195312 144.859375 186.050781 144.683594 187.304688 C 144.464844 188.875 143.902344 191.421875 141.730469 190.25 C 139.144531 188.855469 139.90625 184.105469 139.945312 181.796875 C 139.984375 179.359375 140.335938 176.914062 140.34375 174.484375 C 140.355469 171.855469 138.925781 169.683594 137.597656 167.515625 C 137.222656 166.90625 138.175781 166.351562 138.550781 166.957031 Z M 249.523438 158.667969 C 244.816406 154.714844 236.714844 155.953125 231.050781 156.054688 C 223.628906 156.183594 216.035156 158.070312 208.933594 160.09375 C 205.261719 161.140625 201.59375 162.242188 197.832031 162.925781 C 193.601562 163.695312 189.414062 163.636719 185.144531 163.355469 C 181.121094 163.085938 177.109375 162.613281 173.140625 161.917969 C 169.105469 161.214844 165.042969 160.441406 161.433594 158.417969 C 160.808594 158.070312 160.257812 159.015625 160.875 159.375 C 164.023438 161.222656 167.585938 161.96875 171.136719 162.628906 C 174.765625 163.304688 178.421875 163.820312 182.09375 164.160156 C 189.78125 164.871094 196.84375 164.515625 204.3125 162.503906 C 212.171875 160.386719 219.890625 158.214844 228.015625 157.339844 C 231.429688 156.972656 234.933594 157.03125 238.375 157.019531 C 242.28125 157.007812 245.667969 157.753906 249.347656 158.972656 C 249.515625 159.03125 249.664062 158.785156 249.523438 158.667969 " fill-opacity="1" fill-rule="nonzero"/><g clip-path="url(#f82bb6bc2b)"><g clip-path="url(#1791f94e4a)"><g clip-path="url(#339046c86d)"><g clip-path="url(#e853b525e6)"><path fill="#000000" d="M 138.265625 114.308594 C 138.34375 114.152344 138.53125 114.085938 138.6875 114.160156 C 140.71875 115.140625 144.128906 116.078125 147.808594 116.664062 C 152.394531 117.398438 156.585938 117.480469 158.488281 116.867188 C 158.652344 116.816406 158.832031 116.90625 158.882812 117.070312 C 158.9375 117.234375 158.847656 117.414062 158.683594 117.464844 C 156.863281 118.050781 153.105469 118.042969 148.898438 117.464844 C 148.507812 117.410156 148.109375 117.351562 147.707031 117.285156 C 143.972656 116.6875 140.496094 115.730469 138.414062 114.726562 C 138.257812 114.652344 138.191406 114.464844 138.265625 114.308594 Z M 163.429688 145.394531 C 163.1875 147.136719 160.085938 147.828125 157.527344 148.101562 C 153.996094 148.480469 149.257812 148.308594 144.195312 147.613281 C 139.132812 146.914062 134.527344 145.804688 131.226562 144.488281 C 128.835938 143.535156 126.035156 142.03125 126.277344 140.285156 C 126.375 139.550781 127.230469 138.980469 128.886719 138.53125 C 130.152344 138.191406 131.855469 137.929688 133.949219 137.753906 C 133.976562 137.339844 134 136.925781 134.027344 136.511719 C 134.226562 133.484375 134.484375 130.425781 134.800781 127.421875 C 135.304688 122.644531 135.96875 117.824219 136.773438 113.085938 C 136.789062 112.984375 136.859375 112.894531 136.957031 112.851562 C 138.851562 112.035156 142.570312 112.003906 148.65625 112.75 C 154.457031 113.464844 158.785156 114.679688 160.535156 116.085938 C 160.609375 116.144531 160.65625 116.230469 160.660156 116.328125 C 160.660156 116.34375 160.660156 116.355469 160.660156 116.367188 C 160.660156 116.367188 160.660156 116.371094 160.660156 116.371094 C 160.15625 121.148438 159.492188 125.96875 158.6875 130.703125 C 158.183594 133.683594 157.609375 136.699219 156.980469 139.667969 C 156.894531 140.074219 156.808594 140.480469 156.722656 140.882812 C 158.691406 141.617188 160.261719 142.332031 161.386719 143 C 162.859375 143.875 163.527344 144.660156 163.429688 145.394531 Z M 134.578125 137.796875 C 134.539062 138.496094 134.5 139.179688 134.464844 139.832031 C 137.539062 141.800781 141.050781 143.109375 144.632812 143.617188 C 144.667969 143.625 144.703125 143.628906 144.738281 143.632812 C 148.363281 144.132812 152.132812 143.824219 155.664062 142.746094 C 155.808594 142.109375 155.953125 141.441406 156.105469 140.753906 C 156.152344 140.523438 156.203125 140.292969 156.253906 140.0625 C 155.757812 140.210938 155.253906 140.347656 154.75 140.46875 C 151.5625 141.230469 148.320312 141.394531 145.109375 140.953125 C 145.101562 140.953125 145.089844 140.949219 145.078125 140.949219 C 141.882812 140.503906 138.816406 139.476562 135.960938 137.886719 C 135.507812 137.632812 135.058594 137.367188 134.625 137.089844 C 134.609375 137.324219 134.59375 137.5625 134.578125 137.796875 Z M 135.429688 127.488281 C 135.121094 130.425781 134.863281 133.410156 134.667969 136.371094 C 135.1875 136.707031 135.722656 137.035156 136.269531 137.339844 C 139.054688 138.886719 142.046875 139.894531 145.164062 140.328125 C 145.175781 140.328125 145.1875 140.328125 145.195312 140.332031 C 148.328125 140.761719 151.492188 140.601562 154.601562 139.859375 C 155.207031 139.710938 155.8125 139.542969 156.402344 139.355469 C 157.011719 136.457031 157.574219 133.511719 158.066406 130.597656 C 158.859375 125.933594 159.511719 121.183594 160.011719 116.476562 C 158.273438 115.183594 154.128906 114.054688 148.582031 113.375 C 142.859375 112.671875 139.1875 112.667969 137.363281 113.363281 C 136.574219 118.03125 135.925781 122.78125 135.429688 127.488281 Z M 162.804688 145.308594 C 162.832031 145.101562 162.71875 144.523438 161.066406 143.539062 C 160 142.90625 158.453125 142.203125 156.585938 141.503906 C 156.46875 142.039062 156.351562 142.5625 156.238281 143.0625 C 156.238281 143.066406 156.234375 143.066406 156.234375 143.070312 C 156.234375 143.082031 156.230469 143.089844 156.226562 143.101562 C 156.222656 143.109375 156.21875 143.121094 156.214844 143.128906 C 156.210938 143.136719 156.207031 143.144531 156.199219 143.152344 C 156.195312 143.160156 156.191406 143.171875 156.183594 143.179688 C 156.179688 143.1875 156.171875 143.191406 156.167969 143.199219 C 156.160156 143.207031 156.152344 143.214844 156.144531 143.222656 C 156.136719 143.230469 156.128906 143.234375 156.121094 143.238281 C 156.113281 143.246094 156.105469 143.253906 156.097656 143.257812 C 156.089844 143.261719 156.082031 143.265625 156.074219 143.273438 C 156.0625 143.277344 156.050781 143.28125 156.039062 143.285156 C 156.035156 143.289062 156.03125 143.289062 156.027344 143.292969 C 152.359375 144.441406 148.429688 144.773438 144.652344 144.253906 C 144.617188 144.25 144.582031 144.246094 144.546875 144.238281 C 140.8125 143.710938 137.15625 142.335938 133.96875 140.261719 C 133.875 140.199219 133.820312 140.09375 133.828125 139.980469 C 133.851562 139.46875 133.882812 138.933594 133.914062 138.386719 C 131.925781 138.558594 130.246094 138.816406 129.050781 139.140625 C 127.195312 139.640625 126.929688 140.167969 126.902344 140.371094 C 126.625 142.367188 133.191406 145.464844 144.28125 146.988281 C 155.371094 148.511719 162.527344 147.300781 162.804688 145.308594 Z M 162.804688 145.308594 " fill-opacity="1" fill-rule="nonzero"/><path fill="#000000" d="M 138.265625 114.308594 C 138.34375 114.152344 138.53125 114.085938 138.6875 114.160156 C 140.71875 115.140625 144.128906 116.078125 147.808594 116.664062 C 152.394531 117.398438 156.585938 117.480469 158.488281 116.867188 C 158.652344 116.816406 158.832031 116.90625 158.882812 117.070312 C 158.9375 117.234375 158.847656 117.414062 158.683594 117.464844 C 156.863281 118.050781 153.105469 118.042969 148.898438 117.464844 C 148.507812 117.410156 148.109375 117.351562 147.707031 117.285156 C 143.972656 116.6875 140.496094 115.730469 138.414062 114.726562 C 138.257812 114.652344 138.191406 114.464844 138.265625 114.308594 Z M 163.429688 145.394531 C 163.1875 147.136719 160.085938 147.828125 157.527344 148.101562 C 153.996094 148.480469 149.257812 148.308594 144.195312 147.613281 C 139.132812 146.914062 134.527344 145.804688 131.226562 144.488281 C 128.835938 143.535156 126.035156 142.03125 126.277344 140.285156 C 126.375 139.550781 127.230469 138.980469 128.886719 138.53125 C 130.152344 138.191406 131.855469 137.929688 133.949219 137.753906 C 133.976562 137.339844 134 136.925781 134.027344 136.511719 C 134.226562 133.484375 134.484375 130.425781 134.800781 127.421875 C 135.304688 122.644531 135.96875 117.824219 136.773438 113.085938 C 136.789062 112.984375 136.859375 112.894531 136.957031 112.851562 C 138.851562 112.035156 142.570312 112.003906 148.65625 112.75 C 154.457031 113.464844 158.785156 114.679688 160.535156 116.085938 C 160.609375 116.144531 160.65625 116.230469 160.660156 116.328125 C 160.660156 116.34375 160.660156 116.355469 160.660156 116.367188 C 160.660156 116.367188 160.660156 116.371094 160.660156 116.371094 C 160.15625 121.148438 159.492188 125.96875 158.6875 130.703125 C 158.183594 133.683594 157.609375 136.699219 156.980469 139.667969 C 156.894531 140.074219 156.808594 140.480469 156.722656 140.882812 C 158.691406 141.617188 160.261719 142.332031 161.386719 143 C 162.859375 143.875 163.527344 144.660156 163.429688 145.394531 Z M 134.578125 137.796875 C 134.539062 138.496094 134.5 139.179688 134.464844 139.832031 C 137.539062 141.800781 141.050781 143.109375 144.632812 143.617188 C 144.667969 143.625 144.703125 143.628906 144.738281 143.632812 C 148.363281 144.132812 152.132812 143.824219 155.664062 142.746094 C 155.808594 142.109375 155.953125 141.441406 156.105469 140.753906 C 156.152344 140.523438 156.203125 140.292969 156.253906 140.0625 C 155.757812 140.210938 155.253906 140.347656 154.75 140.46875 C 151.5625 141.230469 148.320312 141.394531 145.109375 140.953125 C 145.101562 140.953125 145.089844 140.949219 145.078125 140.949219 C 141.882812 140.503906 138.816406 139.476562 135.960938 137.886719 C 135.507812 137.632812 135.058594 137.367188 134.625 137.089844 C 134.609375 137.324219 134.59375 137.5625 134.578125 137.796875 Z M 135.429688 127.488281 C 135.121094 130.425781 134.863281 133.410156 134.667969 136.371094 C 135.1875 136.707031 135.722656 137.035156 136.269531 137.339844 C 139.054688 138.886719 142.046875 139.894531 145.164062 140.328125 C 145.175781 140.328125 145.1875 140.328125 145.195312 140.332031 C 148.328125 140.761719 151.492188 140.601562 154.601562 139.859375 C 155.207031 139.710938 155.8125 139.542969 156.402344 139.355469 C 157.011719 136.457031 157.574219 133.511719 158.066406 130.597656 C 158.859375 125.933594 159.511719 121.183594 160.011719 116.476562 C 158.273438 115.183594 154.128906 114.054688 148.582031 113.375 C 142.859375 112.671875 139.1875 112.667969 137.363281 113.363281 C 136.574219 118.03125 135.925781 122.78125 135.429688 127.488281 Z M 162.804688 145.308594 C 162.832031 145.101562 162.71875 144.523438 161.066406 143.539062 C 160 142.90625 158.453125 142.203125 156.585938 141.503906 C 156.46875 142.039062 156.351562 142.5625 156.238281 143.0625 C 156.238281 143.066406 156.234375 143.066406 156.234375 143.070312 C 156.234375 143.082031 156.230469 143.089844 156.226562 143.101562 C 156.222656 143.109375 156.21875 143.121094 156.214844 143.128906 C 156.210938 143.136719 156.207031 143.144531 156.199219 143.152344 C 156.195312 143.160156 156.191406 143.171875 156.183594 143.179688 C 156.179688 143.1875 156.171875 143.191406 156.167969 143.199219 C 156.160156 143.207031 156.152344 143.214844 156.144531 143.222656 C 156.136719 143.230469 156.128906 143.234375 156.121094 143.238281 C 156.113281 143.246094 156.105469 143.253906 156.097656 143.257812 C 156.089844 143.261719 156.082031 143.265625 156.074219 143.273438 C 156.0625 143.277344 156.050781 143.28125 156.039062 143.285156 C 156.035156 143.289062 156.03125 143.289062 156.027344 143.292969 C 152.359375 144.441406 148.429688 144.773438 144.652344 144.253906 C 144.617188 144.25 144.582031 144.246094 144.546875 144.238281 C 140.8125 143.710938 137.15625 142.335938 133.96875 140.261719 C 133.875 140.199219 133.820312 140.09375 133.828125 139.980469 C 133.851562 139.46875 133.882812 138.933594 133.914062 138.386719 C 131.925781 138.558594 130.246094 138.816406 129.050781 139.140625 C 127.195312 139.640625 126.929688 140.167969 126.902344 140.371094 C 126.625 142.367188 133.191406 145.464844 144.28125 146.988281 C 155.371094 148.511719 162.527344 147.300781 162.804688 145.308594 Z M 162.804688 145.308594 " fill-opacity="1" fill-rule="nonzero"/></g></g></g></g><g fill="#000000" fill-opacity="1"><g transform="translate(106.798276, 216.371398)"><g><path d="M 7.09375 -19.609375 C 7.050781 -19.296875 7.03125 -18.789062 7.03125 -18.09375 L 7.03125 -17.25 L 10.578125 -17.25 L 10.578125 -14.28125 L 7.03125 -14.28125 L 7.03125 0 L 2.515625 0 L 2.515625 -14.28125 L 0.65625 -14.28125 L 0.65625 -17.25 L 2.515625 -17.25 L 2.515625 -17.96875 C 2.515625 -18.90625 2.535156 -19.570312 2.578125 -19.96875 C 2.859375 -23.082031 4.960938 -24.640625 8.890625 -24.640625 C 9.535156 -24.640625 10.195312 -24.5625 10.875 -24.40625 L 10.875 -21.265625 C 9.8125 -21.460938 8.9375 -21.414062 8.25 -21.125 C 7.5625 -20.832031 7.175781 -20.328125 7.09375 -19.609375 Z M 7.09375 -19.609375 "/></g></g></g><g fill="#000000" fill-opacity="1"><g transform="translate(115.749907, 216.371398)"><g><path d="M 3.265625 -15.3125 C 4.859375 -17 7.066406 -17.84375 9.890625 -17.84375 C 12.722656 -17.84375 14.9375 -17 16.53125 -15.3125 C 18.125 -13.625 18.921875 -11.414062 18.921875 -8.6875 C 18.921875 -5.988281 18.125 -3.789062 16.53125 -2.09375 C 14.9375 -0.394531 12.722656 0.453125 9.890625 0.453125 C 7.066406 0.453125 4.859375 -0.394531 3.265625 -2.09375 C 1.671875 -3.789062 0.875 -5.988281 0.875 -8.6875 C 0.875 -11.414062 1.671875 -13.625 3.265625 -15.3125 Z M 6.703125 -4.296875 C 7.484375 -3.242188 8.546875 -2.71875 9.890625 -2.71875 C 11.242188 -2.71875 12.304688 -3.242188 13.078125 -4.296875 C 13.859375 -5.347656 14.25 -6.8125 14.25 -8.6875 C 14.25 -10.5625 13.859375 -12.023438 13.078125 -13.078125 C 12.304688 -14.140625 11.242188 -14.671875 9.890625 -14.671875 C 8.546875 -14.671875 7.484375 -14.140625 6.703125 -13.078125 C 5.929688 -12.023438 5.546875 -10.5625 5.546875 -8.6875 C 5.546875 -6.8125 5.929688 -5.347656 6.703125 -4.296875 Z M 6.703125 -4.296875 "/></g></g></g><g fill="#000000" fill-opacity="1"><g transform="translate(133.457583, 216.371398)"><g><path d="M 9.578125 -17.84375 C 11.859375 -17.84375 13.707031 -17.210938 15.125 -15.953125 C 16.539062 -14.703125 17.335938 -13.085938 17.515625 -11.109375 L 13.0625 -11.109375 C 12.675781 -13.484375 11.476562 -14.671875 9.46875 -14.671875 C 8.269531 -14.671875 7.316406 -14.179688 6.609375 -13.203125 C 5.898438 -12.222656 5.546875 -10.773438 5.546875 -8.859375 C 5.546875 -6.785156 5.894531 -5.242188 6.59375 -4.234375 C 7.289062 -3.222656 8.238281 -2.71875 9.4375 -2.71875 C 10.332031 -2.71875 11.085938 -3 11.703125 -3.5625 C 12.328125 -4.125 12.75 -4.941406 12.96875 -6.015625 L 17.484375 -6.015625 C 17.109375 -3.921875 16.1875 -2.316406 14.71875 -1.203125 C 13.25 -0.0976562 11.40625 0.453125 9.1875 0.453125 C 6.71875 0.453125 4.710938 -0.320312 3.171875 -1.875 C 1.640625 -3.4375 0.875 -5.664062 0.875 -8.5625 C 0.875 -11.4375 1.703125 -13.703125 3.359375 -15.359375 C 5.015625 -17.015625 7.085938 -17.84375 9.578125 -17.84375 Z M 9.578125 -17.84375 "/></g></g></g><g fill="#000000" fill-opacity="1"><g transform="translate(149.695026, 216.371398)"><g><path d="M 2.515625 -23.171875 C 2.972656 -23.617188 3.570312 -23.84375 4.3125 -23.84375 C 5.050781 -23.84375 5.648438 -23.617188 6.109375 -23.171875 C 6.566406 -22.734375 6.796875 -22.164062 6.796875 -21.46875 C 6.796875 -20.75 6.566406 -20.171875 6.109375 -19.734375 C 5.648438 -19.296875 5.050781 -19.078125 4.3125 -19.078125 C 3.570312 -19.078125 2.972656 -19.296875 2.515625 -19.734375 C 2.054688 -20.171875 1.828125 -20.75 1.828125 -21.46875 C 1.828125 -22.164062 2.054688 -22.734375 2.515625 -23.171875 Z M 6.5625 0 L 2.0625 0 L 2.0625 -17.375 L 6.5625 -17.375 Z M 6.5625 0 "/></g></g></g><g fill="#000000" fill-opacity="1"><g transform="translate(156.29429, 216.371398)"><g><path d="M 18.265625 -12.96875 C 18.347656 -12.1875 18.390625 -11.128906 18.390625 -9.796875 L 18.390625 0 L 13.890625 0 L 13.890625 -9.1875 C 13.890625 -10.207031 13.863281 -11.007812 13.8125 -11.59375 C 13.664062 -13.644531 12.554688 -14.671875 10.484375 -14.671875 C 9.304688 -14.671875 8.359375 -14.117188 7.640625 -13.015625 C 6.921875 -11.921875 6.5625 -10.226562 6.5625 -7.9375 L 6.5625 0 L 2.0625 0 L 2.0625 -17.375 L 6.5625 -17.375 L 6.5625 -14.578125 L 7.90625 -16.625 C 9.039062 -17.4375 10.4375 -17.84375 12.09375 -17.84375 C 13.914062 -17.84375 15.351562 -17.414062 16.40625 -16.5625 C 17.46875 -15.71875 18.085938 -14.519531 18.265625 -12.96875 Z M 18.265625 -12.96875 "/></g></g></g><g fill="#000000" fill-opacity="1"><g transform="translate(174.492048, 216.371398)"><g><path d="M 18.265625 -12.96875 C 18.347656 -12.1875 18.390625 -11.128906 18.390625 -9.796875 L 18.390625 0 L 13.890625 0 L 13.890625 -9.1875 C 13.890625 -10.207031 13.863281 -11.007812 13.8125 -11.59375 C 13.664062 -13.644531 12.554688 -14.671875 10.484375 -14.671875 C 9.304688 -14.648438 8.359375 -14.09375 7.640625 -13 C 6.921875 -11.914062 6.5625 -10.226562 6.5625 -7.9375 L 6.5625 0 L 2.0625 0 L 2.0625 -24.171875 L 6.5625 -24.171875 L 6.5625 -14.578125 L 7.90625 -16.625 C 9.039062 -17.4375 10.4375 -17.84375 12.09375 -17.84375 C 13.914062 -17.84375 15.351562 -17.414062 16.40625 -16.5625 C 17.46875 -15.71875 18.085938 -14.519531 18.265625 -12.96875 Z M 18.265625 -12.96875 "/></g></g></g><g fill="#000000" fill-opacity="1"><g transform="translate(192.689807, 216.371398)"><g><path d="M 3.265625 -15.3125 C 4.859375 -17 7.066406 -17.84375 9.890625 -17.84375 C 12.722656 -17.84375 14.9375 -17 16.53125 -15.3125 C 18.125 -13.625 18.921875 -11.414062 18.921875 -8.6875 C 18.921875 -5.988281 18.125 -3.789062 16.53125 -2.09375 C 14.9375 -0.394531 12.722656 0.453125 9.890625 0.453125 C 7.066406 0.453125 4.859375 -0.394531 3.265625 -2.09375 C 1.671875 -3.789062 0.875 -5.988281 0.875 -8.6875 C 0.875 -11.414062 1.671875 -13.625 3.265625 -15.3125 Z M 6.703125 -4.296875 C 7.484375 -3.242188 8.546875 -2.71875 9.890625 -2.71875 C 11.242188 -2.71875 12.304688 -3.242188 13.078125 -4.296875 C 13.859375 -5.347656 14.25 -6.8125 14.25 -8.6875 C 14.25 -10.5625 13.859375 -12.023438 13.078125 -13.078125 C 12.304688 -14.140625 11.242188 -14.671875 9.890625 -14.671875 C 8.546875 -14.671875 7.484375 -14.140625 6.703125 -13.078125 C 5.929688 -12.023438 5.546875 -10.5625 5.546875 -8.6875 C 5.546875 -6.8125 5.929688 -5.347656 6.703125 -4.296875 Z M 6.703125 -4.296875 "/></g></g></g><g fill="#000000" fill-opacity="1"><g transform="translate(210.39749, 216.371398)"><g/></g></g><g fill="#000000" fill-opacity="1"><g transform="translate(214.644381, 216.371398)"><g><path d="M 7.09375 -19.609375 C 7.050781 -19.296875 7.03125 -18.789062 7.03125 -18.09375 L 7.03125 -17.25 L 10.578125 -17.25 L 10.578125 -14.28125 L 7.03125 -14.28125 L 7.03125 0 L 2.515625 0 L 2.515625 -14.28125 L 0.65625 -14.28125 L 0.65625 -17.25 L 2.515625 -17.25 L 2.515625 -17.96875 C 2.515625 -18.90625 2.535156 -19.570312 2.578125 -19.96875 C 2.859375 -23.082031 4.960938 -24.640625 8.890625 -24.640625 C 9.535156 -24.640625 10.195312 -24.5625 10.875 -24.40625 L 10.875 -21.265625 C 9.8125 -21.460938 8.9375 -21.414062 8.25 -21.125 C 7.5625 -20.832031 7.175781 -20.328125 7.09375 -19.609375 Z M 7.09375 -19.609375 "/></g></g></g><g fill="#000000" fill-opacity="1"><g transform="translate(223.596006, 216.371398)"><g><path d="M 2.515625 -23.171875 C 2.972656 -23.617188 3.570312 -23.84375 4.3125 -23.84375 C 5.050781 -23.84375 5.648438 -23.617188 6.109375 -23.171875 C 6.566406 -22.734375 6.796875 -22.164062 6.796875 -21.46875 C 6.796875 -20.75 6.566406 -20.171875 6.109375 -19.734375 C 5.648438 -19.296875 5.050781 -19.078125 4.3125 -19.078125 C 3.570312 -19.078125 2.972656 -19.296875 2.515625 -19.734375 C 2.054688 -20.171875 1.828125 -20.75 1.828125 -21.46875 C 1.828125 -22.164062 2.054688 -22.734375 2.515625 -23.171875 Z M 6.5625 0 L 2.0625 0 L 2.0625 -17.375 L 6.5625 -17.375 Z M 6.5625 0 "/></g></g></g><g fill="#000000" fill-opacity="1"><g transform="translate(230.195264, 216.371398)"><g><path d="M 18.265625 -12.96875 C 18.347656 -12.1875 18.390625 -11.128906 18.390625 -9.796875 L 18.390625 0 L 13.890625 0 L 13.890625 -9.1875 C 13.890625 -10.207031 13.863281 -11.007812 13.8125 -11.59375 C 13.664062 -13.644531 12.554688 -14.671875 10.484375 -14.671875 C 9.304688 -14.671875 8.359375 -14.117188 7.640625 -13.015625 C 6.921875 -11.921875 6.5625 -10.226562 6.5625 -7.9375 L 6.5625 0 L 2.0625 0 L 2.0625 -17.375 L 6.5625 -17.375 L 6.5625 -14.578125 L 7.90625 -16.625 C 9.039062 -17.4375 10.4375 -17.84375 12.09375 -17.84375 C 13.914062 -17.84375 15.351562 -17.414062 16.40625 -16.5625 C 17.46875 -15.71875 18.085938 -14.519531 18.265625 -12.96875 Z M 18.265625 -12.96875 "/></g></g></g><g fill="#000000" fill-opacity="1"><g transform="translate(248.393017, 216.371398)"><g><path d="M 3.265625 -15.3125 C 4.859375 -17 7.066406 -17.84375 9.890625 -17.84375 C 12.722656 -17.84375 14.9375 -17 16.53125 -15.3125 C 18.125 -13.625 18.921875 -11.414062 18.921875 -8.6875 C 18.921875 -5.988281 18.125 -3.789062 16.53125 -2.09375 C 14.9375 -0.394531 12.722656 0.453125 9.890625 0.453125 C 7.066406 0.453125 4.859375 -0.394531 3.265625 -2.09375 C 1.671875 -3.789062 0.875 -5.988281 0.875 -8.6875 C 0.875 -11.414062 1.671875 -13.625 3.265625 -15.3125 Z M 6.703125 -4.296875 C 7.484375 -3.242188 8.546875 -2.71875 9.890625 -2.71875 C 11.242188 -2.71875 12.304688 -3.242188 13.078125 -4.296875 C 13.859375 -5.347656 14.25 -6.8125 14.25 -8.6875 C 14.25 -10.5625 13.859375 -12.023438 13.078125 -13.078125 C 12.304688 -14.140625 11.242188 -14.671875 9.890625 -14.671875 C 8.546875 -14.671875 7.484375 -14.140625 6.703125 -13.078125 C 5.929688 -12.023438 5.546875 -10.5625 5.546875 -8.6875 C 5.546875 -6.8125 5.929688 -5.347656 6.703125 -4.296875 Z M 6.703125 -4.296875 "/></g></g></g></svg>