<svg xmlns="http://www.w3.org/2000/svg" xmlns:xlink="http://www.w3.org/1999/xlink" width="500" zoomAndPan="magnify" viewBox="0 0 375 374.999991" height="500" preserveAspectRatio="xMidYMid meet" version="1.0"><defs><g/><clipPath id="e182492ab3"><path d="M 89.824219 22 L 284.824219 22 L 284.824219 224.917969 L 89.824219 224.917969 Z M 89.824219 22 " clip-rule="nonzero"/></clipPath></defs><g clip-path="url(#e182492ab3)"><path fill="#000000" d="M 207.835938 124.65625 C 204.050781 127.832031 200.652344 126.421875 197.65625 120.320312 C 200.34375 123.414062 203.714844 124.90625 207.835938 124.65625 Z M 206.210938 104.933594 C 203.050781 105.078125 199.941406 105.230469 197.375 106.230469 C 196.3125 106.132812 194.894531 106.875 194.308594 107.570312 C 194.164062 107.746094 193.40625 108.980469 193.207031 108.890625 C 193.1875 108.878906 193.582031 108.328125 193.605469 108.296875 C 193.976562 107.824219 194.210938 107.269531 194.574219 106.792969 C 194.648438 106.691406 195.011719 106.324219 194.980469 106.191406 C 194.925781 105.96875 194.558594 106.355469 194.351562 106.453125 C 193.640625 106.785156 193.074219 107.226562 192.53125 107.789062 C 192.390625 107.929688 192.238281 108.078125 192.070312 108.1875 C 191.976562 108.246094 191.746094 108.4375 191.773438 108.332031 C 191.972656 107.585938 192.570312 106.886719 193.070312 106.320312 C 193.15625 106.222656 193.621094 105.769531 193.550781 105.648438 C 193.511719 105.574219 192.902344 105.859375 192.835938 105.890625 C 192.105469 106.21875 191.335938 107.0625 190.535156 107.15625 C 190.441406 107.167969 190.644531 106.996094 190.699219 106.917969 C 190.800781 106.773438 190.878906 106.613281 190.984375 106.472656 C 191.378906 105.941406 191.925781 105.550781 192.320312 105.019531 C 192.394531 104.917969 192.914062 104.1875 192.777344 104.265625 C 191.832031 104.789062 190.890625 105.316406 189.945312 105.839844 C 189.878906 105.878906 190.078125 105.753906 190.136719 105.703125 C 190.273438 105.582031 190.429688 105.464844 190.554688 105.332031 C 190.988281 104.863281 191.332031 104.304688 191.769531 103.828125 C 191.910156 103.675781 192.046875 103.519531 192.160156 103.347656 C 192.230469 103.238281 192.484375 103.015625 192.359375 103.023438 C 191.703125 103.074219 190.710938 103.789062 190.128906 104.070312 C 189.894531 104.183594 189.65625 104.292969 189.417969 104.398438 C 189.273438 104.460938 188.894531 104.679688 188.96875 104.539062 C 189.4375 103.664062 190.265625 103.0625 190.941406 102.355469 C 191.011719 102.285156 191.621094 101.664062 191.519531 101.582031 C 191.515625 101.578125 191.019531 101.839844 191.007812 101.84375 C 190.40625 102.125 189.761719 102.335938 189.179688 102.652344 C 189 102.753906 188.796875 102.847656 188.597656 102.917969 C 188.492188 102.957031 188.214844 103.09375 188.261719 102.988281 C 188.621094 102.148438 189.195312 101.394531 189.679688 100.625 C 189.828125 100.390625 190.054688 100.207031 190.203125 99.96875 C 190.277344 99.847656 190.535156 99.53125 190.410156 99.597656 C 189.796875 99.90625 189.101562 100.347656 188.628906 100.851562 C 188.460938 101.03125 188.296875 101.210938 188.117188 101.378906 C 188.03125 101.464844 187.855469 101.714844 187.828125 101.597656 C 187.773438 101.40625 187.945312 101.152344 187.949219 100.957031 C 187.960938 100.050781 188.183594 99.148438 188.179688 98.246094 C 188.175781 97.875 188.175781 97.5 188.15625 97.128906 C 188.148438 96.996094 188.136719 96.863281 188.117188 96.734375 C 188.109375 96.675781 188.109375 96.503906 188.085938 96.558594 C 186.960938 99.148438 186.328125 102.367188 186.929688 105.175781 C 187.109375 106.007812 187.699219 106.71875 188.042969 107.488281 C 188.789062 109.140625 190.300781 111.007812 192.21875 111.410156 C 191.789062 112.511719 191.484375 113.816406 191.320312 115.347656 C 190.867188 116.105469 190.648438 117.03125 190.011719 117.617188 C 189.738281 117.867188 188.230469 117.21875 187.867188 117.089844 C 187.84375 117.082031 187.089844 116.835938 187.070312 116.9375 C 187.054688 117.023438 187.46875 117.417969 187.523438 117.480469 C 188 118.03125 188.59375 118.453125 189.082031 118.976562 C 189.109375 119.003906 189.585938 119.5625 189.570312 119.574219 C 189.507812 119.617188 189.105469 119.457031 189.019531 119.441406 C 188.351562 119.324219 187.707031 119.070312 187.03125 119.007812 C 186.9375 119 186.203125 119.019531 186.222656 119.046875 C 186.640625 119.71875 187.746094 120.453125 188.375 120.960938 C 188.464844 121.03125 189.34375 121.917969 189.285156 121.9375 C 188.542969 122.167969 187.441406 121.757812 186.667969 121.765625 C 186.59375 121.769531 185.832031 121.722656 185.808594 121.902344 C 185.800781 121.996094 186.503906 122.410156 186.589844 122.464844 C 187.28125 122.890625 188.914062 123.433594 189.292969 124.191406 C 189.332031 124.273438 189.105469 124.1875 189.011719 124.1875 C 188.804688 124.179688 188.59375 124.171875 188.382812 124.152344 C 187.609375 124.070312 186.820312 123.980469 186.039062 124.082031 C 185.984375 124.085938 185.261719 124.210938 185.292969 124.3125 C 185.34375 124.46875 185.910156 124.753906 186.03125 124.839844 C 186.777344 125.375 187.453125 126.011719 188.226562 126.511719 C 188.382812 126.613281 189.210938 127.050781 189.195312 127.277344 C 189.195312 127.28125 188.863281 127.285156 188.832031 127.285156 C 188.625 127.292969 188.414062 127.308594 188.203125 127.328125 C 187.539062 127.398438 186.878906 127.515625 186.222656 127.609375 C 186.15625 127.621094 185.21875 127.863281 185.261719 127.933594 C 185.363281 128.109375 185.996094 128.289062 186.171875 128.367188 C 186.921875 128.695312 187.667969 129.042969 188.414062 129.386719 C 188.566406 129.460938 189.320312 129.808594 189.296875 129.988281 C 189.292969 129.996094 188.6875 130.023438 188.65625 130.023438 C 187.898438 130.085938 187.152344 130.214844 186.402344 130.316406 C 186.164062 130.351562 185.929688 130.414062 185.699219 130.492188 C 185.558594 130.539062 185.148438 130.613281 185.285156 130.671875 C 186.296875 131.105469 187.316406 131.574219 188.210938 132.222656 C 188.585938 132.492188 188.980469 132.703125 189.335938 133 C 189.429688 133.082031 189.675781 133.257812 189.558594 133.296875 C 188.804688 133.5625 187.828125 133.351562 187.039062 133.496094 C 186.769531 133.546875 186.496094 133.550781 186.230469 133.617188 C 186.09375 133.652344 185.714844 133.730469 185.84375 133.78125 C 186.84375 134.203125 187.949219 134.585938 189 134.875 C 189.296875 134.953125 190.058594 135.128906 190.207031 135.441406 C 190.261719 135.554688 189.957031 135.472656 189.835938 135.5 C 189.578125 135.558594 189.28125 135.601562 189.015625 135.632812 C 188.34375 135.710938 186.980469 136.003906 186.5625 136.59375 C 186.507812 136.675781 186.75 136.609375 186.84375 136.621094 C 187.058594 136.644531 187.261719 136.691406 187.476562 136.71875 C 188.078125 136.789062 188.675781 136.921875 189.277344 137.011719 C 190.316406 137.167969 191.308594 137.566406 192.34375 137.742188 C 192.632812 137.792969 193.289062 138.023438 193.542969 137.773438 C 193.628906 137.695312 193.257812 136.625 193.226562 136.496094 C 192.921875 135.253906 192.613281 133.863281 192.480469 132.597656 C 191.9375 127.59375 191.742188 122.628906 191.722656 117.597656 C 195.675781 106.480469 207.285156 107.9375 206.210938 104.933594 Z M 171.488281 113.296875 C 172.070312 114.734375 171.90625 116.0625 169.183594 114.972656 C 168.144531 121.066406 160.007812 121.324219 158.84375 116.4375 L 155.460938 117.953125 C 157.863281 106.800781 166.640625 107.3125 171.488281 113.296875 Z M 167.484375 112.140625 C 166.847656 111.867188 166.253906 111.65625 165.695312 111.5 C 165.882812 111.78125 165.996094 112.117188 165.996094 112.480469 C 165.996094 113.488281 165.144531 114.308594 164.101562 114.308594 C 163.054688 114.308594 162.207031 113.488281 162.207031 112.480469 C 162.207031 112.007812 162.394531 111.585938 162.695312 111.261719 C 161.65625 111.46875 160.867188 112.039062 160.308594 112.953125 C 160.378906 120.59375 168.660156 118.386719 167.484375 112.140625 Z M 213.257812 116.113281 C 213.367188 117.105469 213.527344 118.261719 210.296875 117 C 206.8125 122.472656 198.53125 119.476562 199.570312 113.796875 C 197.519531 114.863281 197.339844 114 196.746094 112.773438 C 204.046875 107.003906 210.277344 110.820312 213.257812 116.113281 Z M 209.363281 114.847656 C 208.042969 112.195312 205.027344 111.613281 202.355469 112.464844 C 200.074219 119.195312 207.554688 120.25 209.363281 114.847656 Z M 205.324219 112.152344 C 204.46875 112.152344 203.773438 112.910156 203.773438 113.839844 C 203.773438 114.769531 204.46875 115.527344 205.324219 115.527344 C 206.179688 115.527344 206.875 114.769531 206.875 113.839844 C 206.875 112.910156 206.179688 112.152344 205.324219 112.152344 Z M 175.773438 162.902344 C 176.421875 162.902344 176.945312 162.378906 176.945312 161.730469 C 176.945312 161.085938 176.421875 160.5625 175.773438 160.5625 C 175.128906 160.5625 174.605469 161.085938 174.605469 161.730469 C 174.605469 162.378906 175.128906 162.902344 175.773438 162.902344 Z M 170.574219 159.648438 C 170.574219 160.367188 171.183594 160.953125 171.9375 160.953125 C 172.695312 160.953125 173.304688 160.367188 173.304688 159.648438 C 173.304688 158.929688 172.695312 158.347656 171.9375 158.347656 C 171.183594 158.347656 170.574219 158.929688 170.574219 159.648438 Z M 174.929688 167.847656 C 175.683594 167.847656 176.296875 167.089844 176.296875 166.15625 C 176.296875 165.222656 175.683594 164.464844 174.929688 164.464844 C 174.175781 164.464844 173.5625 165.222656 173.5625 166.15625 C 173.5625 167.089844 174.175781 167.847656 174.929688 167.847656 Z M 170.3125 166.417969 C 171.101562 166.417969 171.742188 165.6875 171.742188 164.789062 C 171.742188 163.894531 171.101562 163.164062 170.3125 163.164062 C 169.523438 163.164062 168.882812 163.890625 168.882812 164.789062 C 168.882812 165.6875 169.523438 166.417969 170.3125 166.417969 Z M 167.648438 158.609375 C 168.472656 158.609375 169.144531 157.96875 169.144531 157.175781 C 169.144531 156.386719 168.472656 155.742188 167.648438 155.742188 C 166.820312 155.742188 166.152344 156.386719 166.152344 157.175781 C 166.152344 157.96875 166.820312 158.609375 167.648438 158.609375 Z M 165.890625 163.683594 C 166.609375 163.683594 167.191406 163.011719 167.191406 162.1875 C 167.191406 161.359375 166.609375 160.6875 165.890625 160.6875 C 165.171875 160.6875 164.589844 161.359375 164.589844 162.1875 C 164.589844 163.011719 165.171875 163.683594 165.890625 163.683594 Z M 172.132812 170.0625 C 171.34375 170.0625 170.703125 170.671875 170.703125 171.425781 C 170.703125 172.183594 171.34375 172.792969 172.132812 172.792969 C 172.921875 172.792969 173.5625 172.183594 173.5625 171.425781 C 173.5625 170.671875 172.921875 170.0625 172.132812 170.0625 Z M 165.890625 170.644531 C 165.890625 171.328125 166.472656 171.882812 167.191406 171.882812 C 167.910156 171.882812 168.492188 171.328125 168.492188 170.644531 C 168.492188 169.964844 167.910156 169.410156 167.191406 169.410156 C 166.472656 169.410156 165.890625 169.964844 165.890625 170.644531 Z M 163.160156 170.453125 C 163.878906 170.453125 164.460938 169.898438 164.460938 169.214844 C 164.460938 168.53125 163.878906 167.976562 163.160156 167.976562 C 162.441406 167.976562 161.859375 168.53125 161.859375 169.214844 C 161.859375 169.898438 162.441406 170.453125 163.160156 170.453125 Z M 200.734375 95.832031 C 202.195312 96.4375 203.640625 97.078125 205.101562 97.695312 C 205.746094 97.96875 206.351562 98.277344 206.972656 98.597656 C 207.203125 98.71875 207.425781 98.847656 207.652344 98.976562 C 207.75 99.03125 208.035156 99.191406 207.921875 99.171875 C 206.1875 98.910156 204.429688 98.746094 202.695312 98.457031 C 202.109375 98.363281 201.390625 98.328125 200.804688 98.382812 C 200.542969 98.410156 199.808594 98.398438 200.03125 98.535156 C 202.015625 99.75 204.726562 99.890625 206.839844 100.894531 C 207.5625 101.238281 208.273438 101.613281 208.949219 102.042969 C 209.242188 102.226562 210.132812 102.558594 209.796875 102.640625 C 207.921875 103.09375 205.492188 102.03125 203.554688 102.101562 C 203.457031 102.105469 201.511719 102.296875 201.578125 102.425781 C 201.738281 102.769531 203.273438 103.082031 203.65625 103.195312 C 205.601562 103.769531 207.515625 104.507812 209.460938 105.089844 C 210.378906 105.367188 211.457031 105.765625 212.285156 106.261719 C 212.523438 106.40625 212.773438 106.535156 213.015625 106.6875 C 213.191406 106.792969 213.511719 107.214844 213.539062 107.015625 C 213.980469 103.742188 211.648438 100.003906 209.507812 97.859375 L 209.8125 97.414062 C 208.554688 95.644531 204.53125 95.671875 202.542969 95.449219 C 201.714844 95.355469 200.898438 95.175781 200.070312 95.070312 C 199.800781 95.035156 199.480469 95.007812 199.207031 95.035156 C 199.089844 95.046875 198.773438 95 198.859375 95.078125 C 199.289062 95.476562 200.238281 95.628906 200.734375 95.832031 Z M 223.003906 140.890625 C 223.890625 139.242188 224.683594 137.617188 225.1875 135.800781 C 227.074219 129.007812 227.402344 121.707031 223.898438 115.347656 C 222.886719 113.507812 221.539062 112.050781 220.074219 110.585938 C 220.074219 110.585938 222.304688 113.828125 221.84375 114.773438 C 221.578125 115.316406 219.957031 115.617188 220.140625 116.289062 C 220.1875 116.46875 221.195312 116.570312 221.386719 116.640625 C 221.523438 116.6875 221.871094 116.765625 221.765625 116.867188 C 221.441406 117.183594 220.46875 117.65625 220.5 118.226562 C 220.5 118.265625 221.9375 118.527344 222.042969 118.558594 C 222.09375 118.578125 222.511719 118.742188 222.484375 118.765625 C 221.921875 119.308594 221.105469 119.59375 220.625 120.253906 C 220.566406 120.328125 220.113281 120.933594 220.257812 121.054688 C 220.65625 121.402344 221.996094 121.335938 222.503906 121.398438 C 222.574219 121.40625 223.117188 121.476562 223.125 121.574219 C 223.132812 121.664062 222.253906 122.074219 222.210938 122.097656 C 221.59375 122.453125 219.644531 123.375 219.683594 124.289062 C 219.683594 124.335938 220.292969 124.328125 220.34375 124.328125 C 220.957031 124.355469 221.625 124.375 222.230469 124.484375 C 222.289062 124.496094 222.746094 124.550781 222.769531 124.652344 C 222.777344 124.691406 222.128906 124.992188 222.125 124.992188 C 221.402344 125.410156 220.695312 125.863281 219.984375 126.296875 C 219.878906 126.359375 219.117188 127.089844 219.164062 127.101562 C 220.1875 127.324219 221.28125 127.226562 222.308594 127.523438 C 222.378906 127.542969 223.210938 127.804688 223.191406 127.855469 C 223.105469 128.085938 222.128906 128.296875 221.925781 128.394531 C 221.25 128.714844 220.617188 129.152344 219.917969 129.425781 C 219.410156 129.625 218.675781 129.71875 218.339844 130.21875 C 218.273438 130.320312 218.589844 130.246094 218.710938 130.269531 C 218.921875 130.308594 219.132812 130.320312 219.34375 130.367188 C 220.105469 130.527344 220.929688 130.628906 221.675781 130.863281 C 221.777344 130.894531 222.375 131.019531 222.378906 131.195312 C 222.378906 131.214844 221.652344 131.507812 221.5625 131.542969 C 220.589844 131.972656 219.578125 132.269531 218.574219 132.609375 C 218.535156 132.621094 217.5625 133.035156 217.621094 133.09375 C 217.71875 133.195312 218.199219 133.253906 218.339844 133.292969 C 219.097656 133.511719 220 133.585938 220.792969 133.667969 C 221.082031 133.695312 221.398438 133.757812 221.671875 133.855469 C 221.816406 133.902344 222.222656 133.96875 222.089844 134.042969 C 221.132812 134.582031 219.960938 134.953125 218.914062 135.242188 C 218.46875 135.367188 218.011719 135.503906 217.605469 135.726562 C 217.566406 135.746094 217.265625 135.992188 217.277344 136 C 218.246094 136.535156 219.882812 136.210938 220.953125 136.558594 C 220.996094 136.574219 222.046875 136.90625 222.011719 136.960938 C 221.863281 137.199219 221.078125 137.296875 220.820312 137.375 C 219.757812 137.699219 218.609375 138.03125 217.621094 138.550781 C 217.535156 138.59375 216.5 139.261719 216.550781 139.28125 C 217.601562 139.722656 218.960938 139.503906 220.058594 139.777344 C 220.078125 139.78125 221.238281 140.015625 221.117188 140.164062 C 220.382812 141.089844 218.671875 141.386719 217.75 142.125 C 217.410156 142.390625 217.105469 142.6875 216.753906 142.933594 C 216.578125 143.054688 216.066406 143.402344 216.273438 143.355469 C 217.726562 143.03125 219.238281 143.039062 220.703125 142.777344 C 221.144531 142.695312 221.761719 142.71875 222.125 142.429688 C 222.519531 142.113281 222.773438 141.324219 223.003906 140.890625 Z M 205.808594 149.222656 C 205.359375 146.710938 204.917969 144.222656 203.046875 142.351562 L 203.402344 143.234375 C 203.570312 144.078125 203.367188 145.738281 202.738281 146.390625 C 202.558594 146.578125 201.023438 147.195312 201.046875 147.234375 C 201.449219 147.957031 202.9375 148.402344 203.070312 149.234375 C 203.109375 149.480469 202.574219 149.253906 202.328125 149.265625 C 202.101562 149.277344 200.234375 149.34375 200.191406 149.707031 C 200.1875 149.769531 200.886719 150.074219 200.984375 150.121094 C 201.640625 150.453125 202.734375 150.90625 202.992188 151.65625 C 203.023438 151.75 200.894531 152.527344 201.023438 152.871094 C 201.367188 153.765625 203.421875 153.902344 203.523438 155.070312 C 203.554688 155.433594 200.695312 155.800781 200.703125 156.613281 C 200.707031 157.273438 203.464844 157.796875 203.503906 158.832031 C 203.507812 158.867188 200.941406 159.820312 200.675781 160.011719 C 200.609375 160.058594 200.109375 160.460938 200.179688 160.5625 C 200.710938 161.277344 202.300781 161.507812 203.023438 162.0625 C 203.269531 162.253906 203.925781 162.589844 203.65625 162.742188 C 202.804688 163.234375 201.863281 163.390625 201.066406 164.03125 C 201.019531 164.070312 200.375 164.667969 200.449219 164.726562 C 201.3125 165.378906 202.871094 165.609375 203.875 166 C 203.949219 166.03125 204.789062 166.519531 204.75 166.554688 C 204.152344 167.121094 202.878906 167.324219 202.164062 167.839844 C 202.070312 167.902344 201.511719 168.445312 201.554688 168.46875 C 202.511719 168.992188 203.78125 169.164062 204.820312 169.488281 C 204.886719 169.507812 205.902344 169.90625 205.828125 169.980469 C 205.152344 170.65625 203.699219 170.84375 202.882812 171.449219 C 202.839844 171.484375 201.980469 172.257812 202.078125 172.308594 C 203.097656 172.824219 204.589844 172.929688 205.714844 173.316406 C 206.171875 173.472656 207.230469 173.519531 207.019531 173.957031 C 206.203125 175.632812 202.621094 175.660156 202.09375 177.675781 C 202.09375 177.679688 203.128906 177.855469 203.21875 177.867188 C 204.070312 177.972656 204.894531 178.132812 205.730469 178.3125 C 205.738281 178.3125 206.863281 178.683594 206.789062 178.757812 C 205.839844 179.691406 202.515625 180.582031 202.285156 181.976562 C 202.273438 182.0625 205.242188 182.378906 205.554688 182.433594 C 205.652344 182.449219 206.484375 182.679688 206.433594 182.738281 C 205.429688 183.925781 203.390625 184.695312 202.167969 185.722656 C 202.003906 185.863281 201.011719 186.5 201.035156 186.800781 C 201.039062 186.808594 202.257812 186.871094 202.316406 186.878906 C 203.785156 187.015625 205.140625 187.472656 206.609375 187.039062 C 209.558594 186.167969 211.316406 182.1875 211.511719 179.371094 C 211.816406 175.03125 209.285156 171.007812 208.28125 166.929688 C 206.847656 161.085938 206.863281 155.121094 205.808594 149.222656 Z M 233.539062 176.589844 L 233.332031 176.496094 C 231.589844 177.898438 229.796875 179.238281 228.011719 180.59375 C 227.597656 180.90625 226.316406 181.738281 226.363281 182.398438 C 226.363281 182.441406 227.148438 182.320312 227.238281 182.300781 C 227.636719 182.199219 229.761719 181.476562 230.054688 181.976562 C 230.117188 182.089844 229.839844 182.125 229.734375 182.199219 C 229.519531 182.351562 229.328125 182.527344 229.140625 182.707031 C 228.367188 183.453125 227.660156 184.253906 226.90625 185.019531 C 226.824219 185.105469 226.289062 185.730469 226.390625 185.875 C 226.449219 185.953125 227.136719 185.789062 227.238281 185.761719 C 228.113281 185.535156 228.964844 185.136719 229.851562 184.960938 C 229.902344 184.949219 231.003906 184.75 230.972656 184.953125 C 230.929688 185.269531 230.382812 185.761719 230.15625 185.992188 C 229.460938 186.691406 228.847656 187.523438 228.207031 188.269531 C 228.191406 188.289062 227.273438 189.460938 227.359375 189.488281 C 227.585938 189.570312 228.105469 189.246094 228.296875 189.164062 C 229.0625 188.832031 229.828125 188.445312 230.546875 188.027344 C 230.839844 187.855469 231.125 187.667969 231.449219 187.558594 C 231.476562 187.546875 232.0625 187.410156 232.054688 187.445312 C 231.976562 187.828125 231.421875 188.414062 231.222656 188.765625 C 230.664062 189.78125 229.976562 190.699219 229.402344 191.703125 C 229.347656 191.792969 228.699219 193.207031 228.746094 193.21875 C 228.945312 193.261719 229.414062 192.917969 229.585938 192.820312 C 230.425781 192.347656 231.070312 191.722656 231.761719 191.054688 C 231.871094 190.953125 233.246094 190.027344 233.246094 190.097656 C 233.242188 190.511719 232.863281 191.128906 232.722656 191.515625 C 232.25 192.847656 231.582031 194.085938 231.082031 195.410156 C 230.992188 195.648438 230.464844 197.191406 230.714844 197.382812 C 230.785156 197.433594 231.8125 196.375 231.902344 196.292969 C 233.210938 195.097656 234.308594 193.75 235.0625 192.128906 C 236.550781 188.917969 237.164062 185.617188 236.152344 182.152344 C 235.566406 180.15625 234.292969 178.480469 233.539062 176.589844 Z M 188.925781 164.203125 C 189.722656 164.203125 190.367188 163.59375 190.367188 162.847656 C 190.367188 162.101562 189.722656 161.492188 188.925781 161.492188 C 188.128906 161.492188 187.480469 162.101562 187.480469 162.847656 C 187.480469 163.59375 188.128906 164.203125 188.925781 164.203125 Z M 194.882812 161.765625 C 194.882812 161.015625 194.355469 160.410156 193.707031 160.410156 C 193.0625 160.410156 192.535156 161.015625 192.535156 161.765625 C 192.535156 162.511719 193.0625 163.117188 193.707031 163.117188 C 194.355469 163.117188 194.882812 162.511719 194.882812 161.765625 Z M 189.78125 167.242188 C 189.339844 166.839844 188.597656 166.925781 188.125 167.441406 C 187.65625 167.957031 187.628906 168.699219 188.070312 169.105469 C 188.511719 169.507812 189.25 169.421875 189.722656 168.90625 C 190.191406 168.394531 190.21875 167.648438 189.78125 167.242188 Z M 194.339844 166.550781 C 193.640625 166.550781 193.078125 167.15625 193.078125 167.902344 C 193.078125 168.652344 193.640625 169.257812 194.339844 169.257812 C 195.035156 169.257812 195.601562 168.652344 195.601562 167.902344 C 195.601562 167.15625 195.035156 166.550781 194.339844 166.550781 Z M 189.5 172.742188 C 189.035156 173.261719 189.164062 174.144531 189.792969 174.710938 C 190.421875 175.277344 191.308594 175.320312 191.777344 174.800781 C 192.246094 174.285156 192.113281 173.402344 191.484375 172.832031 C 190.855469 172.265625 189.96875 172.226562 189.5 172.742188 Z M 196.867188 171.785156 C 196.167969 171.785156 195.601562 172.351562 195.601562 173.050781 C 195.601562 173.746094 196.167969 174.3125 196.867188 174.3125 C 197.5625 174.3125 198.128906 173.746094 198.128906 173.050781 C 198.128906 172.351562 197.5625 171.785156 196.867188 171.785156 Z M 204.515625 73.800781 C 204.542969 73.878906 204.566406 73.957031 204.589844 74.035156 C 204.71875 74.078125 204.851562 74.117188 204.976562 74.160156 Z M 210.953125 119.238281 L 210.683594 119.167969 C 209.515625 119.867188 208.652344 120.820312 207.285156 121.164062 C 206.261719 121.421875 205.121094 121.15625 204.117188 121.398438 C 204.046875 121.417969 204.257812 121.441406 204.332031 121.460938 C 204.441406 121.496094 204.546875 121.53125 204.664062 121.550781 C 205.023438 121.601562 205.382812 121.65625 205.742188 121.714844 C 206.578125 121.847656 207.546875 121.890625 208.386719 121.785156 C 208.480469 121.773438 209.25 121.644531 209.269531 121.671875 C 209.277344 121.683594 208.476562 122.027344 208.433594 122.042969 C 207.523438 122.375 206.648438 122.605469 205.675781 122.617188 C 205.425781 122.617188 205.179688 122.617188 204.929688 122.617188 C 204.792969 122.621094 204.390625 122.5625 204.519531 122.617188 C 206.175781 123.367188 207.726562 122.734375 209.40625 122.769531 C 209.421875 122.769531 209.21875 123.050781 209.179688 123.078125 C 208.90625 123.289062 208.621094 123.410156 208.292969 123.511719 C 207.355469 123.8125 206.453125 123.527344 205.539062 123.707031 C 205.390625 123.738281 205.824219 123.804688 205.964844 123.855469 C 206.265625 123.957031 206.585938 124.007812 206.898438 124.058594 C 207.777344 124.191406 208.832031 124.316406 209.683594 124.003906 C 211.121094 123.472656 211.789062 122.207031 211.609375 120.71875 C 211.546875 120.203125 211.390625 119.574219 210.953125 119.238281 Z M 228.402344 151.863281 C 228.441406 151.832031 229.085938 151.316406 229.085938 151.324219 C 229.109375 151.515625 228.910156 151.886719 228.839844 152.058594 C 228.503906 152.875 228.027344 153.519531 227.546875 154.253906 C 227.363281 154.539062 227.136719 154.789062 227 155.101562 C 226.996094 155.101562 226.859375 155.496094 226.875 155.496094 C 227.488281 155.367188 228.289062 154.410156 228.640625 153.945312 C 228.804688 153.734375 229.011719 153.179688 229.289062 153.09375 C 229.417969 153.054688 229.28125 153.367188 229.273438 153.5 C 229.261719 153.75 229.214844 153.996094 229.195312 154.246094 C 229.109375 155.292969 228.753906 156.570312 228.175781 157.449219 C 227.960938 157.777344 227.773438 158.128906 227.664062 158.503906 C 227.65625 158.527344 227.601562 158.828125 227.628906 158.820312 C 227.847656 158.789062 228.160156 158.414062 228.300781 158.261719 C 228.832031 157.679688 229.332031 157.132812 229.753906 156.46875 C 229.910156 156.222656 230.066406 155.972656 230.238281 155.734375 C 230.261719 155.703125 230.542969 155.390625 230.546875 155.394531 C 230.609375 155.585938 230.507812 155.992188 230.5 156.210938 C 230.460938 157.457031 229.78125 158.492188 229.363281 159.636719 C 229.214844 160.035156 228.929688 160.394531 228.785156 160.800781 C 228.765625 160.859375 228.644531 161.269531 228.65625 161.269531 C 228.703125 161.277344 229.0625 160.816406 229.109375 160.761719 C 229.738281 160.082031 230.101562 159.226562 230.574219 158.441406 C 230.621094 158.363281 231.234375 157.40625 231.253906 157.429688 C 231.394531 157.625 231.183594 158.351562 231.171875 158.582031 C 231.105469 160.121094 230.410156 161.429688 229.847656 162.824219 C 229.679688 163.238281 229.527344 163.6875 229.339844 164.09375 C 229.289062 164.207031 229.109375 164.351562 229.195312 164.4375 C 229.222656 164.464844 229.820312 163.765625 229.84375 163.734375 C 230.539062 162.890625 231.214844 161.917969 231.617188 160.894531 C 231.714844 160.648438 231.824219 160.410156 231.925781 160.164062 C 231.988281 160.019531 232.039062 159.589844 232.105469 159.730469 C 232.234375 159.980469 231.984375 160.816406 231.933594 161.078125 C 231.679688 162.464844 231.363281 163.789062 230.6875 165.039062 C 230.507812 165.371094 229.695312 166.550781 229.933594 166.933594 C 230 167.042969 230.117188 166.757812 230.207031 166.667969 C 230.339844 166.527344 230.472656 166.390625 230.597656 166.25 C 231.230469 165.535156 231.816406 164.699219 232.1875 163.816406 C 232.296875 163.546875 232.425781 163.277344 232.558594 163.019531 C 232.605469 162.921875 232.652344 162.601562 232.65625 162.710938 C 232.726562 164.464844 232.050781 166.339844 231.476562 167.972656 C 231.253906 168.613281 230.753906 169.371094 230.753906 170.0625 C 230.753906 170.1875 230.917969 169.863281 230.992188 169.757812 C 231.105469 169.601562 231.214844 169.441406 231.332031 169.289062 C 231.734375 168.757812 232.101562 168.203125 232.433594 167.628906 C 233.453125 165.851562 234.226562 163.988281 234.152344 161.898438 C 234.113281 160.734375 233.992188 159.425781 233.558594 158.335938 C 233.050781 157.046875 232.296875 155.824219 231.75 154.539062 C 230.628906 151.898438 229.835938 149.078125 229.835938 146.1875 L 229.972656 145.582031 C 229.667969 145.816406 229.503906 146.210938 229.308594 146.535156 C 228.84375 147.296875 228.273438 148.167969 227.605469 148.765625 C 227.285156 149.050781 226.785156 149.476562 226.789062 149.949219 C 226.789062 150.082031 227.054688 149.917969 227.183594 149.890625 C 227.53125 149.828125 227.851562 149.628906 228.199219 149.558594 C 228.21875 149.554688 228.570312 149.511719 228.566406 149.519531 C 228.40625 150.214844 227.445312 150.882812 227.09375 151.492188 C 226.855469 151.898438 226.835938 151.867188 226.691406 152.269531 C 226.691406 152.273438 226.589844 152.542969 226.648438 152.566406 C 227.105469 152.753906 228.085938 152.105469 228.402344 151.863281 Z M 173.441406 175.054688 C 173.417969 175.21875 174.722656 175.796875 174.910156 175.96875 C 174.957031 176.007812 175.445312 176.65625 175.402344 176.65625 C 174.671875 176.691406 173.964844 176.566406 173.238281 176.503906 C 172.984375 176.480469 172.734375 176.417969 172.480469 176.394531 C 172.332031 176.386719 171.925781 176.246094 172.042969 176.34375 C 172.507812 176.738281 172.96875 177.152344 173.386719 177.601562 C 173.417969 177.632812 173.804688 178.03125 173.777344 178.058594 C 173.695312 178.144531 173.167969 178.042969 173.019531 178.03125 C 172.242188 177.984375 170.972656 177.375 170.265625 177.539062 C 170.152344 177.566406 170.460938 177.648438 170.554688 177.710938 C 170.726562 177.828125 170.902344 177.945312 171.074219 178.066406 C 171.59375 178.421875 172.753906 179.152344 172.703125 179.894531 C 172.703125 179.910156 172.101562 179.871094 172.050781 179.867188 C 171.289062 179.804688 170.527344 179.632812 169.792969 179.4375 C 169.730469 179.421875 169.085938 179.191406 169.085938 179.199219 C 169.070312 179.269531 169.46875 179.578125 169.519531 179.628906 C 169.96875 180.042969 170.480469 180.40625 170.878906 180.871094 C 170.921875 180.921875 171.273438 181.433594 171.183594 181.46875 C 170.664062 181.675781 169.328125 181.339844 168.816406 181.183594 C 168.59375 181.113281 168.390625 181.027344 168.171875 180.945312 C 168.046875 180.898438 167.808594 180.691406 167.785156 180.824219 C 167.773438 180.902344 168.140625 181.1875 168.214844 181.261719 C 168.667969 181.691406 169.234375 182.050781 169.621094 182.542969 C 169.765625 182.726562 170.226562 183.152344 169.988281 183.152344 C 169.066406 183.148438 168.199219 183.011719 167.308594 182.773438 C 167.210938 182.746094 166.058594 182.328125 166.03125 182.363281 C 166.023438 182.367188 166.574219 182.824219 166.617188 182.855469 C 167.125 183.285156 167.640625 183.710938 168.097656 184.195312 C 168.117188 184.21875 168.515625 184.625 168.472656 184.675781 C 168.390625 184.769531 167.636719 184.664062 167.5 184.65625 C 166.265625 184.613281 165.441406 184.164062 164.359375 183.703125 C 164.238281 183.652344 164.523438 183.90625 164.609375 184 C 164.792969 184.203125 165.019531 184.390625 165.242188 184.546875 C 165.898438 185.011719 166.820312 185.445312 167.296875 186.113281 C 167.386719 186.234375 167 186.132812 166.851562 186.148438 C 166.558594 186.179688 166.277344 186.191406 165.980469 186.191406 C 165.148438 186.183594 164.320312 186.148438 163.507812 185.960938 C 163.230469 185.894531 162.933594 185.871094 162.667969 185.765625 C 162.554688 185.71875 162.222656 185.550781 162.320312 185.628906 C 162.871094 186.085938 163.660156 186.46875 164.3125 186.742188 C 164.535156 186.832031 164.75 186.941406 164.972656 187.042969 C 165.09375 187.09375 165.445312 187.140625 165.335938 187.21875 C 164.738281 187.632812 162.707031 187.390625 161.976562 187.378906 C 161.652344 187.375 161.328125 187.367188 161.003906 187.34375 C 160.816406 187.332031 160.269531 187.238281 160.449219 187.28125 C 161.785156 187.585938 163.058594 188.4375 164.464844 188.308594 C 166.15625 188.15625 168.421875 187.246094 169.699219 186.117188 C 170.585938 185.335938 171.199219 184.292969 172.011719 183.449219 C 174.457031 180.902344 176.417969 178.042969 178.21875 175.035156 L 178.003906 174.988281 C 176.851562 175.117188 175.691406 174.921875 174.539062 174.933594 C 174.40625 174.933594 173.464844 174.886719 173.441406 175.054688 Z M 144.921875 159.242188 C 147.1875 153.253906 149.488281 146.9375 148.476562 140.371094 C 148.207031 138.640625 147.472656 136.960938 146.828125 135.351562 L 147.40625 136.171875 C 147.242188 135.074219 146.898438 133.632812 146.136719 132.789062 C 145.882812 132.5 145.648438 132.207031 145.335938 131.96875 C 145.167969 131.839844 144.730469 131.4375 144.78125 131.644531 C 145.023438 132.640625 145.601562 133.679688 145.984375 134.628906 C 146.042969 134.777344 146.296875 136.035156 146.285156 136.03125 C 145.519531 135.671875 144.855469 135.226562 143.988281 135.148438 C 143.878906 135.136719 143.289062 135.042969 143.222656 135.175781 C 143.191406 135.242188 144.011719 135.90625 144.066406 135.957031 C 144.824219 136.695312 145.625 137.375 146.328125 138.164062 C 146.398438 138.242188 147.050781 138.90625 146.972656 139.035156 C 146.972656 139.039062 146.238281 138.929688 146.160156 138.917969 C 145.394531 138.824219 144.621094 138.738281 143.851562 138.707031 C 143.765625 138.699219 143.234375 138.625 143.191406 138.710938 C 143.167969 138.769531 144.226562 139.390625 144.257812 139.410156 C 144.9375 139.875 147.648438 141.574219 147.136719 142.695312 C 147.066406 142.847656 146.457031 142.683594 146.304688 142.652344 C 145.449219 142.472656 144.578125 142.351562 143.722656 142.167969 C 143.632812 142.148438 142.726562 141.953125 142.691406 142.074219 C 142.65625 142.199219 143.339844 142.757812 143.421875 142.828125 C 144.289062 143.566406 145.265625 144.132812 146.136719 144.851562 C 146.246094 144.941406 146.996094 145.761719 146.964844 145.769531 C 145.953125 146.089844 144.183594 145.542969 143.191406 145.363281 C 142.828125 145.296875 142.464844 145.199219 142.097656 145.15625 C 141.910156 145.132812 141.398438 144.996094 141.535156 145.125 C 142.535156 146.015625 143.613281 146.835938 144.664062 147.675781 C 144.785156 147.777344 146.328125 148.960938 146.289062 148.984375 C 146.09375 149.085938 145.550781 148.882812 145.339844 148.851562 C 144.359375 148.707031 143.355469 148.632812 142.375 148.503906 C 142 148.457031 141.652344 148.304688 141.296875 148.203125 C 141.15625 148.164062 140.761719 147.992188 140.867188 148.089844 C 142.152344 149.261719 143.683594 149.917969 145.046875 150.957031 C 145.179688 151.058594 146.378906 152.007812 146.15625 152.238281 C 146.011719 152.390625 145.273438 152.273438 145.070312 152.269531 C 143.976562 152.25 142.898438 152.164062 141.875 151.746094 C 141.503906 151.589844 141.144531 151.402344 140.769531 151.265625 C 140.617188 151.210938 140.253906 150.9375 140.308594 151.09375 C 140.609375 151.964844 142.746094 153.421875 143.480469 153.859375 C 143.792969 154.046875 144.109375 154.21875 144.40625 154.433594 C 144.589844 154.566406 145.167969 154.789062 144.945312 154.847656 C 143.804688 155.152344 141.859375 154.71875 140.792969 154.3125 C 140.347656 154.140625 139.875 153.984375 139.417969 153.832031 C 139.261719 153.78125 138.914062 153.511719 138.949219 153.675781 C 139.007812 153.9375 139.726562 154.304688 139.929688 154.445312 C 140.851562 155.078125 141.851562 155.855469 142.832031 156.375 C 143.023438 156.476562 144.121094 156.914062 144.121094 157.125 C 144.121094 157.167969 142.910156 156.980469 142.800781 156.949219 C 141.777344 156.660156 140.722656 156.40625 139.6875 156.140625 C 139.445312 156.078125 138.796875 155.722656 138.546875 155.839844 C 138.429688 155.890625 138.726562 156.019531 138.820312 156.105469 C 139.050781 156.316406 139.28125 156.539062 139.542969 156.71875 C 140.378906 157.3125 141.132812 158.035156 141.992188 158.59375 C 142.296875 158.792969 142.589844 158.996094 142.878906 159.222656 C 143.023438 159.335938 143.46875 159.480469 143.308594 159.582031 C 142.757812 159.929688 140.441406 159.378906 139.789062 159.285156 C 139.441406 159.234375 139.058594 159.199219 138.707031 159.210938 C 138.535156 159.214844 138.058594 159.179688 138.191406 159.285156 C 139.390625 160.242188 140.707031 160.929688 141.808594 162.042969 C 141.917969 162.152344 142.789062 163.28125 142.773438 163.285156 C 142.382812 163.457031 140.964844 162.742188 140.515625 162.597656 C 140.433594 162.574219 139.875 162.363281 139.871094 162.371094 C 139.800781 162.589844 141.359375 163.9375 141.5625 164.191406 C 141.886719 164.589844 142.394531 166.441406 142.8125 166.582031 C 143.101562 166.679688 142.976562 166 143.070312 165.714844 C 143.261719 165.132812 143.464844 164.542969 143.554688 163.941406 C 143.804688 162.316406 144.34375 160.769531 144.921875 159.242188 Z M 284.648438 127.542969 C 284.648438 181.242188 240.988281 224.929688 187.324219 224.929688 C 133.65625 224.929688 89.996094 181.242188 89.996094 127.542969 C 89.996094 86.742188 115.203125 51.730469 150.851562 37.261719 C 156.097656 15.664062 207.214844 21.414062 213.34375 33.699219 C 254.414062 45.113281 284.648438 82.859375 284.648438 127.542969 Z M 199.273438 35.808594 C 201.019531 37.269531 202.808594 38.71875 204.707031 39.984375 C 205.382812 40.4375 206.0625 41.007812 206.660156 41.566406 C 206.90625 41.796875 207.605469 42.207031 207.300781 42.359375 C 207.183594 42.417969 206.25 42.039062 206.070312 42 C 204.667969 41.664062 203.195312 41.046875 201.914062 40.394531 C 201.398438 40.132812 200.792969 40.011719 200.25 39.828125 C 199.976562 39.738281 199.195312 39.410156 199.425781 39.582031 C 201.175781 40.859375 202.863281 42.296875 204.582031 43.625 C 205.292969 44.171875 206.109375 44.730469 206.644531 45.46875 C 206.792969 45.671875 207.246094 46.078125 207 46.128906 C 205.742188 46.378906 203.382812 45.25 202.148438 44.953125 C 201.6875 44.84375 201.246094 44.703125 200.78125 44.621094 C 200.453125 44.5625 199.570312 44.257812 199.789062 44.511719 C 201.101562 46.023438 203.128906 46.917969 204.667969 48.15625 C 204.691406 48.175781 206.316406 49.722656 206.054688 49.792969 C 205.058594 50.058594 201.09375 48.929688 200.632812 48.910156 C 200.605469 48.910156 199.78125 48.921875 199.808594 48.953125 C 200.894531 50.386719 203 51.050781 204.429688 52.046875 C 204.953125 52.410156 205.515625 52.777344 205.988281 53.207031 C 206.222656 53.421875 206.921875 53.921875 206.605469 53.9375 C 205.273438 54.003906 203.582031 53.496094 202.269531 53.269531 C 201.765625 53.183594 201.277344 53.121094 200.769531 53.085938 C 200.617188 53.074219 200.019531 53.078125 200.09375 53.132812 C 201.628906 54.335938 203.480469 55.167969 205.113281 56.234375 C 205.21875 56.304688 206.707031 57.34375 206.589844 57.453125 C 206.449219 57.582031 205.570312 57.398438 205.375 57.375 C 204.160156 57.207031 201.179688 56.960938 200.902344 56.972656 C 200.738281 56.980469 200.320312 56.863281 200.402344 57.007812 C 200.511719 57.207031 201.699219 57.765625 201.765625 57.804688 C 202.765625 58.378906 203.742188 58.988281 204.742188 59.570312 C 205.15625 59.808594 205.523438 60.046875 205.914062 60.3125 C 205.960938 60.34375 206.355469 60.671875 206.316406 60.707031 C 206.121094 60.890625 204.929688 60.59375 204.695312 60.566406 C 203.578125 60.4375 200.230469 60.09375 199.96875 60.300781 C 199.824219 60.417969 200.273438 60.511719 200.4375 60.597656 C 200.75 60.765625 201.070312 60.964844 201.398438 61.105469 C 202.757812 61.6875 204.152344 62.320312 205.40625 63.109375 C 205.441406 63.132812 206.871094 64.066406 206.597656 64.234375 C 206.355469 64.382812 205.523438 64.210938 205.238281 64.183594 C 203.96875 64.078125 202.722656 63.84375 201.445312 63.835938 C 201.332031 63.835938 199.796875 63.878906 199.835938 63.957031 C 199.9375 64.167969 200.609375 64.4375 200.828125 64.554688 C 202.050781 65.210938 203.375 65.703125 204.65625 66.222656 C 205.128906 66.414062 205.632812 66.535156 206.09375 66.746094 C 206.359375 66.867188 207.132812 67.054688 206.863281 67.152344 C 206.578125 67.261719 205.832031 67.070312 205.503906 67.050781 C 204.371094 66.992188 203.265625 66.941406 202.121094 66.988281 C 201.800781 67 200.679688 66.957031 200.476562 67.253906 C 200.371094 67.410156 200.832031 67.367188 201.007812 67.429688 C 201.316406 67.539062 201.636719 67.617188 201.945312 67.726562 C 202.84375 68.046875 209.023438 71.160156 209.023438 71.152344 C 209.039062 66.789062 210.792969 35.820312 210.792969 35.820312 C 210.980469 34.96875 210.226562 34.738281 209.648438 34.390625 C 208.179688 33.5 206.589844 32.589844 205.023438 31.863281 C 204.433594 31.59375 201.96875 30.523438 202.132812 30.640625 C 203.273438 31.453125 206.089844 34.191406 206.433594 34.597656 C 206.582031 34.773438 207.035156 35.269531 206.839844 35.152344 C 205.613281 34.425781 204.171875 33.90625 202.855469 33.367188 C 202.347656 33.160156 201.867188 32.898438 201.351562 32.71875 C 201.125 32.640625 200.449219 32.390625 200.652344 32.527344 C 202.304688 33.667969 203.808594 35.085938 205.351562 36.367188 C 205.9375 36.855469 206.523438 37.363281 206.949219 38 C 207.09375 38.21875 207.5625 38.710938 207.296875 38.710938 C 206.800781 38.710938 206.007812 38.207031 205.535156 38.03125 C 204.335938 37.585938 203.097656 37.226562 201.898438 36.773438 C 201.355469 36.570312 200.6875 36.414062 200.183594 36.136719 C 199.882812 35.972656 199.90625 35.992188 199.574219 35.898438 C 199.472656 35.867188 199.195312 35.742188 199.273438 35.808594 Z M 205.351562 78.394531 C 205.070312 78.742188 203.726562 79.066406 203.285156 79.238281 C 202.710938 79.460938 202.136719 79.691406 201.5625 79.914062 C 203.386719 79.371094 205.285156 78.761719 207.277344 78.082031 L 207.097656 74.109375 C 192.925781 68.230469 174.597656 66.382812 160.128906 73.386719 L 160.535156 77.628906 C 171.46875 82.949219 180.230469 84.503906 192.136719 82.257812 C 192.6875 81.503906 194.433594 81.238281 195.15625 80.820312 C 195.316406 80.726562 196.191406 80.273438 196.050781 80.089844 C 195.902344 79.894531 195.148438 79.8125 194.925781 79.757812 C 193.753906 79.480469 192.535156 79.347656 191.339844 79.167969 C 191.226562 79.152344 189.867188 78.816406 189.917969 78.742188 C 190.039062 78.574219 191.34375 78.574219 191.546875 78.558594 C 192.929688 78.46875 194.28125 78.199219 195.664062 78.144531 C 195.859375 78.136719 196.738281 78.195312 196.882812 78.007812 C 196.992188 77.859375 196.523438 77.929688 196.351562 77.871094 C 196.023438 77.761719 195.691406 77.675781 195.371094 77.554688 C 194.132812 77.082031 192.851562 76.621094 191.585938 76.238281 C 191.183594 76.113281 190.789062 75.949219 190.390625 75.816406 C 190.355469 75.804688 189.691406 75.597656 189.710938 75.574219 C 189.878906 75.355469 191.566406 75.675781 191.769531 75.699219 C 193.289062 75.867188 194.890625 75.886719 196.425781 75.894531 C 196.972656 75.902344 197.699219 76.0625 198.21875 75.855469 C 198.414062 75.777344 197.839844 75.6875 197.644531 75.613281 C 197.253906 75.460938 196.84375 75.316406 196.472656 75.125 C 195.347656 74.546875 194.085938 74.046875 192.863281 73.714844 C 192.542969 73.628906 192.21875 73.546875 191.902344 73.445312 C 191.710938 73.382812 191.128906 73.234375 191.332031 73.253906 C 193.019531 73.40625 194.75 73.515625 196.421875 73.777344 C 197.035156 73.875 197.644531 73.945312 198.253906 74.046875 C 198.527344 74.09375 199.253906 74.355469 199.074219 74.148438 C 198.6875 73.710938 197.75 73.507812 197.222656 73.308594 C 196.15625 72.90625 195.136719 72.425781 194.089844 71.980469 C 193.589844 71.765625 193.082031 71.546875 192.582031 71.316406 C 192.4375 71.25 192.289062 71.183594 192.140625 71.121094 C 192.046875 71.082031 191.769531 70.976562 191.871094 70.992188 C 196.164062 71.539062 200.476562 72.679688 204.589844 74.035156 C 204.90625 75.042969 204.933594 76.160156 205.273438 77.160156 C 205.367188 77.441406 205.582031 78.109375 205.351562 78.394531 Z M 156.589844 36.5625 L 159.296875 70.800781 L 161.980469 69.484375 L 159.265625 38.046875 C 170.125 27.902344 178.699219 29.316406 185.824219 27.082031 C 174.0625 27.824219 162.992188 29.398438 156.589844 36.5625 Z M 156.390625 80.179688 C 183.777344 95.398438 197.074219 84.789062 210.792969 80.179688 C 190.105469 87.132812 181.257812 89.1875 156.390625 80.179688 Z M 129.148438 177.265625 C 129.332031 176.902344 129.539062 176.535156 129.785156 176.160156 C 133.261719 170.804688 129.394531 165.605469 127.789062 158.109375 C 126.183594 150.621094 128.832031 148.410156 132.308594 141.71875 C 135.785156 135.027344 133.324219 127.035156 135.199219 119.808594 C 137.070312 112.582031 141.609375 108.820312 141.609375 108.820312 C 122.214844 94.066406 130.238281 67.398438 155.441406 75.945312 L 151.328125 43.011719 C 118.523438 57.03125 95.507812 89.617188 95.507812 127.542969 C 95.507812 149.78125 103.421875 170.179688 116.578125 186.082031 Z M 167.34375 207.441406 C 168.667969 207.210938 170.050781 206.945312 171.488281 206.695312 C 175.304688 206.039062 179.777344 202.558594 183.023438 199.558594 C 181.472656 199.582031 180.105469 199.050781 178.851562 198.179688 C 174.167969 203.988281 170.679688 205.960938 167.34375 207.441406 Z M 177.910156 195.351562 C 170.359375 197.246094 172.640625 201.398438 163.925781 202.738281 C 162.109375 200.785156 162.199219 196.042969 161.886719 192.207031 C 160.398438 198.226562 159.605469 205.289062 162.828125 206.511719 C 175.890625 203.09375 175.078125 198.957031 177.910156 195.351562 Z M 168.484375 209.832031 C 169.636719 210.191406 171.574219 208.917969 172.660156 208.605469 C 176.96875 207.355469 180.371094 205.003906 183.105469 201.582031 L 183.394531 200.796875 C 181.847656 201.175781 180.703125 202.972656 179.417969 203.835938 C 177.726562 204.964844 175.933594 206.007812 174.085938 206.855469 C 172.613281 207.53125 171.082031 207.890625 169.664062 208.699219 C 169.515625 208.78125 168.382812 209.800781 168.484375 209.832031 Z M 186.753906 195.835938 C 186.917969 195.65625 187.0625 195.5 187.175781 195.375 C 181.558594 195.863281 179.203125 193.296875 179.636719 188.117188 C 174.875 197.132812 182.21875 198.5 186.753906 195.835938 Z M 189.414062 187.140625 C 191.507812 187.949219 191.839844 186.035156 193.78125 186.875 L 190.316406 183.046875 C 183.613281 184.125 179.761719 183.390625 177.863281 181.421875 L 175.292969 187.203125 C 176.996094 185.9375 178.347656 187.308594 180.300781 186.058594 C 182.378906 184.726562 185.828125 185.761719 189.414062 187.140625 Z M 189.230469 180.882812 L 186.253906 175.734375 C 186.160156 177.40625 183.789062 176.484375 182.195312 175.328125 L 180.027344 179.527344 C 181.335938 181.304688 184.246094 181.875 189.230469 180.882812 Z M 176.554688 143.5625 L 175.742188 147.355469 C 181.253906 143.824219 186.261719 143.109375 192.796875 146.269531 C 187.726562 141.714844 183.058594 141.167969 176.554688 143.5625 Z M 175.394531 123.511719 C 174.699219 124.589844 173.859375 125.597656 172.90625 126.492188 C 173.140625 126.558594 173.378906 126.632812 173.617188 126.714844 C 173.085938 126.914062 172.503906 127.128906 171.886719 127.378906 C 170.425781 128.546875 168.777344 129.460938 167.066406 130.015625 C 165.167969 131.445312 163.265625 133.488281 161.648438 136.546875 C 157.632812 147.363281 150.496094 177.050781 156.792969 185.804688 C 162.316406 193.488281 169.820312 192.101562 179.484375 175.238281 C 183.351562 168.488281 182.675781 162.359375 183.601562 160.523438 C 183.09375 160.007812 181.226562 158.066406 179.824219 156.746094 C 182.847656 151.820312 177.648438 150.828125 175.816406 154.472656 C 172.648438 152.347656 172.359375 150.285156 172.460938 148.945312 C 172.480469 148.554688 172.527344 148.089844 172.601562 147.566406 C 172.53125 138.519531 174.273438 131.324219 175.394531 123.511719 Z M 166.980469 127.871094 C 162.246094 128.003906 158.386719 127.007812 155.699219 124.515625 C 158.292969 128.453125 162.167969 129.296875 166.980469 127.871094 Z M 153.605469 125.160156 C 151.355469 133.160156 152.421875 139.417969 156.472656 144.253906 C 156.9375 142.375 157.386719 140.683594 157.671875 139.3125 C 158.46875 135.558594 159.824219 132.59375 161.546875 130.425781 C 158.4375 129.824219 155.628906 127.816406 153.605469 125.160156 Z M 174.273438 121.371094 C 174.144531 122.011719 173.707031 122.511719 173.339844 123.023438 C 172.707031 123.902344 172.011719 124.980469 171.070312 125.558594 C 170.390625 125.976562 169.792969 126.433594 169.21875 126.992188 C 169.1875 127.023438 168.648438 127.503906 168.664062 127.535156 C 168.714844 127.625 169.203125 127.347656 169.207031 127.34375 C 169.738281 127.074219 170.296875 126.847656 170.808594 126.539062 C 172.339844 125.601562 173.960938 124.324219 174.625 122.609375 C 174.800781 122.148438 175.183594 121.277344 174.964844 120.796875 C 174.710938 120.230469 174.273438 121.015625 174.183594 121.242188 Z M 176.246094 114.929688 C 175.9375 113.355469 175.316406 111.808594 174.457031 110.515625 C 174.167969 110.078125 173.9375 109.488281 173.566406 109.121094 L 172.605469 107.601562 C 173.578125 110.207031 174.855469 112.714844 175.332031 115.480469 C 175.492188 116.433594 175.605469 117.421875 175.609375 118.390625 C 175.613281 118.78125 175.613281 119.171875 175.644531 119.566406 C 175.648438 119.613281 175.730469 119.875 175.746094 119.863281 C 175.792969 119.835938 175.832031 119.796875 175.875 119.757812 C 176.042969 118.191406 176.171875 116.585938 176.246094 114.929688 Z M 163.859375 106.46875 C 158.453125 106.464844 154.058594 111.074219 154.054688 116.757812 C 154.050781 122.4375 158.4375 127.054688 163.847656 127.058594 C 169.253906 127.0625 173.648438 122.453125 173.648438 116.769531 C 173.65625 111.085938 169.265625 106.46875 163.859375 106.46875 Z M 157.859375 105.417969 L 157.554688 105.820312 C 156.984375 106.394531 156.203125 106.707031 155.589844 107.230469 C 154.488281 108.164062 153.445312 109.992188 152.988281 111.347656 C 152.707031 112.183594 152.59375 113.039062 152.472656 113.914062 C 152.433594 114.203125 152.398438 114.484375 152.386719 114.773438 C 152.386719 114.90625 152.28125 115.261719 152.382812 115.175781 C 152.667969 114.933594 152.734375 114.378906 152.871094 114.046875 C 153.226562 113.195312 153.566406 112.324219 154.003906 111.511719 C 155.140625 109.421875 157.300781 107.8125 157.859375 105.417969 Z M 151.945312 146.308594 C 151.921875 147.257812 151.867188 148.207031 151.777344 149.160156 C 151.019531 157.179688 145.824219 170.613281 147.121094 183.507812 C 147.5625 187.867188 151.386719 198.300781 154.722656 203.675781 C 157.355469 200.324219 156.203125 191.988281 156.203125 191.988281 C 156.203125 191.988281 150.496094 191.160156 150.507812 179.917969 C 150.519531 168.582031 154.308594 150.453125 154.308594 150.453125 C 154.308594 150.453125 153.140625 148.988281 151.945312 146.308594 Z M 146.625 168.671875 L 146.542969 168.84375 C 145.742188 170.164062 145.417969 172.03125 145.136719 173.535156 C 144.449219 177.195312 144.109375 180.792969 144.546875 184.511719 C 144.734375 186.109375 145.160156 187.867188 145.753906 189.359375 C 145.949219 189.851562 146.164062 190.332031 146.480469 190.753906 C 146.660156 191.003906 147.085938 191.777344 147.054688 191.472656 C 146.828125 189.183594 145.335938 187.058594 145.257812 184.652344 C 145.070312 179.253906 145.566406 173.960938 146.625 168.671875 Z M 151.773438 78.527344 C 137.441406 75.375 127.472656 91.144531 145.179688 106.078125 L 148.476562 103.109375 C 134.351562 91.035156 138.816406 81.515625 151.773438 78.527344 Z M 151.402344 121.25 L 149.503906 121.640625 C 149.382812 121.597656 149.277344 121.550781 149.171875 121.503906 C 148.835938 121.828125 148.445312 122.292969 148.035156 122.964844 C 146.867188 124.878906 147.53125 126.25 149.5 131.824219 C 149.519531 131.535156 149.542969 131.246094 149.574219 130.949219 C 150.019531 126.527344 151.027344 123.398438 151.640625 121.824219 C 151.558594 121.632812 151.476562 121.441406 151.402344 121.25 Z M 146.355469 125.328125 L 146.066406 124.585938 C 145.511719 125.769531 146.140625 127.796875 146.421875 128.980469 C 147.160156 132.0625 148.851562 134.722656 149.390625 137.921875 C 149.726562 139.90625 150.023438 141.921875 150.429688 143.886719 C 150.582031 144.621094 150.546875 145.425781 150.683594 146.175781 C 150.730469 146.414062 150.726562 147.035156 150.902344 146.871094 C 151.066406 146.722656 151.089844 145.761719 151.089844 145.511719 C 151.089844 144.179688 151.015625 142.902344 150.886719 141.585938 C 150.546875 138.171875 149.246094 134.578125 148.148438 131.332031 C 147.4375 129.222656 146.355469 127.65625 146.355469 125.328125 Z M 131.710938 191.101562 C 131.460938 190.617188 131.109375 190.199219 130.839844 189.726562 C 130.164062 188.527344 129.324219 187.273438 128.542969 186.132812 C 128.039062 185.398438 127.695312 184.066406 127.695312 184.066406 C 125.816406 185.195312 120.777344 188.328125 120.640625 188.613281 C 120.445312 189.027344 121.398438 189.664062 121.582031 189.875 C 122.714844 191.191406 124.304688 192.304688 125.609375 193.457031 C 125.96875 193.773438 126.332031 194.078125 126.675781 194.417969 C 126.703125 194.449219 126.9375 194.742188 126.964844 194.734375 C 126.992188 194.726562 126.523438 193.925781 126.484375 193.863281 C 125.851562 192.902344 125.144531 192.058594 124.453125 191.148438 C 124.285156 190.921875 124.132812 190.664062 123.957031 190.445312 C 123.867188 190.332031 123.566406 190.089844 123.714844 190.085938 C 124.007812 190.070312 124.664062 190.765625 124.914062 190.914062 C 125.523438 191.289062 126.199219 191.535156 126.726562 192.039062 C 127.058594 192.351562 127.292969 192.78125 127.636719 193.082031 C 127.949219 193.355469 128.265625 193.605469 128.597656 193.859375 C 128.628906 193.882812 128.910156 194.140625 128.953125 194.117188 C 128.980469 194.101562 128.8125 193.824219 128.796875 193.800781 C 128.550781 193.445312 128.308594 193.085938 128.058594 192.734375 C 127.453125 191.878906 126.925781 190.957031 126.300781 190.117188 C 126.117188 189.871094 125.976562 189.597656 125.800781 189.347656 C 125.714844 189.230469 125.433594 189.042969 125.5625 188.976562 C 125.746094 188.886719 126.660156 189.882812 126.808594 189.996094 C 127.597656 190.609375 128.398438 191.222656 129.183594 191.84375 C 129.703125 192.253906 130.003906 192.882812 130.464844 193.339844 C 130.523438 193.402344 130.429688 193.175781 130.40625 193.09375 C 130.359375 192.917969 130.289062 192.726562 130.226562 192.554688 C 130.054688 192.105469 129.78125 191.679688 129.507812 191.292969 C 129.179688 190.832031 128.871094 190.355469 128.546875 189.898438 C 128.050781 189.199219 127.40625 188.53125 127.105469 187.71875 C 127.050781 187.5625 127.351562 187.941406 127.476562 188.046875 C 127.757812 188.273438 128.078125 188.449219 128.375 188.65625 C 129.191406 189.230469 129.984375 189.839844 130.671875 190.566406 C 130.921875 190.832031 131.222656 191.019531 131.484375 191.265625 C 131.628906 191.398438 131.792969 191.804688 131.921875 191.65625 C 131.988281 191.578125 131.746094 191.171875 131.710938 191.101562 Z M 150.226562 204.75 C 146.417969 199.613281 144.703125 192.300781 143.855469 185.863281 C 141.34375 166.792969 146.90625 158.804688 149.179688 147.425781 C 151.453125 136.050781 145.210938 132.964844 144.996094 125.8125 C 144.828125 120.300781 147.144531 119.386719 148.214844 119.257812 C 148.273438 118.886719 148.382812 118.484375 148.53125 118.0625 L 150.460938 117.488281 C 150.429688 117.195312 150.40625 116.902344 150.394531 116.609375 C 150.378906 116.257812 150.382812 115.917969 150.394531 115.574219 C 149.953125 113.355469 149.667969 110.769531 149.4375 108.058594 C 149.4375 108.058594 139.882812 112.34375 138.71875 121.84375 C 137.878906 128.734375 140.429688 133.003906 138.128906 139.507812 C 135.828125 146.007812 130.625 147.796875 131.300781 155.785156 C 131.980469 163.777344 141.992188 176.050781 141.992188 176.050781 C 140.3125 177.59375 138.140625 176.707031 135.632812 174.15625 C 135.632812 174.15625 125.917969 184.257812 143.347656 200.160156 C 146.210938 202.773438 148.460938 204.183594 150.226562 204.75 Z M 162.855469 209.574219 C 162.402344 209.355469 161.757812 209.320312 161.277344 209.191406 C 160.085938 208.875 158.84375 208.441406 157.785156 207.808594 C 153.144531 205.035156 149.816406 199.554688 148.769531 194.308594 L 149.035156 194.28125 C 148.554688 193.433594 148.394531 194.585938 148.453125 194.980469 C 148.648438 196.261719 149.054688 197.472656 149.300781 198.742188 C 149.925781 202 152.113281 204.761719 154.640625 206.804688 C 156.058594 207.949219 158.078125 209.0625 159.902344 209.355469 C 160.5625 209.464844 161.183594 209.671875 161.863281 209.660156 C 162.0625 209.65625 162.265625 209.652344 162.464844 209.632812 C 162.597656 209.621094 162.972656 209.632812 162.855469 209.574219 Z M 203.832031 207.769531 C 198.816406 206.539062 193.863281 203.703125 189.066406 197.078125 C 188.542969 197.46875 188.035156 197.808594 187.546875 198.101562 C 187.246094 198.488281 186.898438 198.914062 186.515625 199.367188 C 186.28125 207.46875 186.425781 214.429688 187.441406 218.761719 L 185.191406 218.246094 C 184.394531 212.964844 185.003906 206.582031 186.167969 199.769531 C 182.476562 203.992188 175.410156 210.257812 165.363281 211.25 C 165.347656 211.25 165.332031 211.25 165.320312 211.253906 L 167.496094 217.261719 C 173.882812 218.675781 180.515625 219.417969 187.324219 219.417969 C 192.332031 219.417969 197.253906 219.011719 202.046875 218.238281 Z M 206.660156 193.308594 C 206.660156 193.308594 206.660156 195.664062 203.207031 201.011719 C 200.722656 204.847656 189.21875 193.933594 189.21875 193.933594 C 189.21875 193.933594 200.261719 211.167969 204.933594 203.210938 C 209.066406 196.171875 206.660156 193.308594 206.660156 193.308594 Z M 208.992188 153.027344 C 207.558594 142.308594 202.632812 132.980469 202.632812 132.980469 C 204.398438 132.648438 206.570312 135.816406 208.847656 139.898438 C 208.933594 140.066406 208.992188 140.160156 208.992188 140.160156 C 208.945312 140.070312 208.898438 139.984375 208.847656 139.898438 C 208.300781 138.816406 206.582031 134.421875 211.023438 128.105469 C 216.167969 120.789062 216.84375 116.050781 215.761719 106.433594 C 214.75 97.453125 209.195312 95.730469 209.195312 95.730469 C 194.597656 91.871094 177.933594 90.53125 159.722656 96.09375 C 154.386719 99.050781 151.988281 102.785156 152.28125 109.050781 C 153.804688 106.535156 156.113281 104.660156 158.761719 103.648438 C 157.585938 103.847656 156.339844 104.355469 154.992188 105.324219 C 160.96875 95.660156 165.953125 100.179688 173.917969 105.722656 C 173.421875 105.964844 172.941406 106.136719 172.46875 106.261719 C 175.339844 108.71875 177.339844 112.375 177.445312 116.886719 C 177.457031 117.433594 177.417969 117.976562 177.339844 118.523438 C 178.949219 128.035156 175.816406 133.90625 176.914062 139.394531 C 181.871094 136.777344 188.625 137.683594 194.121094 140.847656 L 195.417969 147.96875 C 195.324219 151.507812 194.371094 154.109375 191.953125 155.121094 C 191.210938 151.117188 186.996094 152.246094 187.511719 157.179688 L 183.875 160.507812 C 184.179688 162.058594 185.652344 169.363281 187.335938 174.425781 C 189.019531 179.480469 201.203125 193.667969 207.640625 188.78125 C 219.417969 179.84375 210.753906 166.164062 208.992188 153.027344 Z M 216.722656 90.929688 C 216.730469 90.566406 216.734375 90.207031 216.734375 89.84375 C 216.734375 89.660156 216.824219 89.125 216.734375 89.289062 C 216.011719 90.609375 216.027344 92.089844 215.058594 93.328125 C 214.835938 93.613281 213.808594 94.480469 213.84375 94.859375 C 214.019531 96.785156 215.992188 98.480469 217.019531 99.996094 C 218.234375 101.800781 218.347656 104.628906 220.375 105.855469 C 220.878906 106.160156 221.484375 106.199219 222.042969 106.332031 C 222.601562 106.464844 223.214844 106.503906 223.785156 106.445312 C 224.472656 106.371094 225.007812 106.210938 225.621094 105.878906 L 225.132812 106.097656 C 228.828125 103.136719 232.171875 98.359375 232.527344 93.5 C 232.65625 91.734375 232.398438 90.097656 231.757812 88.433594 C 231.558594 87.921875 231.355469 87.425781 231.121094 86.925781 C 230.992188 86.652344 230.945312 85.878906 230.738281 86.101562 C 230.335938 86.535156 230.875 88.367188 230.90625 88.894531 C 231.054688 91.378906 230.824219 94.144531 229.769531 96.417969 C 229.597656 96.78125 228.9375 98.359375 228.46875 98.453125 C 228.253906 98.496094 228.574219 98.027344 228.625 97.816406 C 228.679688 97.578125 228.75 97.34375 228.816406 97.113281 C 229.039062 96.3125 229.273438 95.515625 229.445312 94.703125 C 229.921875 92.449219 229.804688 88.488281 228.117188 86.667969 C 228.039062 86.585938 228.152344 86.890625 228.164062 87.003906 C 228.195312 87.273438 228.183594 87.546875 228.21875 87.8125 C 228.3125 88.582031 228.363281 89.335938 228.371094 90.117188 C 228.398438 92.457031 228.277344 94.675781 227 96.730469 C 226.789062 97.074219 226.265625 98.328125 225.863281 98.421875 C 225.824219 98.433594 225.886719 97.4375 225.890625 97.425781 C 226.046875 96.566406 226.363281 95.6875 226.582031 94.832031 C 227.058594 92.980469 226.785156 91.03125 226.179688 89.261719 C 226.066406 88.925781 225.816406 87.855469 225.53125 87.625 C 225.449219 87.554688 225.523438 87.839844 225.523438 87.949219 C 225.527344 88.21875 225.53125 88.492188 225.535156 88.761719 C 225.539062 89.527344 225.539062 90.296875 225.539062 91.0625 C 225.539062 92.976562 225.03125 97.128906 222.914062 98.042969 C 222.835938 98.074219 222.828125 97.296875 222.828125 97.292969 C 222.875 96.554688 223.078125 95.828125 223.214844 95.109375 C 223.554688 93.339844 223.429688 91.753906 223.292969 89.976562 C 223.269531 89.65625 223.21875 88.417969 222.917969 88.179688 C 222.695312 88 222.796875 88.746094 222.765625 89.035156 C 222.703125 89.667969 222.699219 90.300781 222.636719 90.933594 C 222.453125 92.667969 221.574219 94.089844 220.660156 95.527344 C 220.5 95.773438 219.859375 96.839844 219.554688 96.851562 C 219.234375 96.867188 219.285156 95.1875 219.300781 94.992188 C 219.507812 92.886719 220.339844 90.132812 219.59375 88.070312 C 219.496094 87.789062 219.445312 88.640625 219.371094 88.925781 C 219.234375 89.484375 219.164062 90.089844 219.101562 90.660156 C 218.933594 92.21875 218.210938 93.46875 217.488281 94.8125 C 217.355469 95.058594 217.058594 95.847656 216.746094 95.945312 C 216.660156 95.972656 216.527344 94.75 216.527344 94.71875 C 216.425781 93.472656 216.695312 92.171875 216.722656 90.929688 Z M 237.910156 181.296875 C 234.929688 176.285156 233.839844 172.789062 233.839844 172.789062 C 230.53125 179.933594 227.527344 178.746094 225.949219 177.414062 C 225.949219 177.414062 237.792969 166.796875 234.3125 158.25 C 230.140625 148.003906 230.425781 144.277344 230.425781 144.277344 C 230.425781 144.277344 225.644531 146.117188 225.371094 151.402344 C 225.101562 156.683594 225.644531 162.234375 225.644531 162.234375 C 225.644531 162.234375 221.175781 156.410156 221.851562 150.179688 C 222.53125 143.949219 229.835938 138.40625 229.125 129.457031 C 227.449219 108.34375 218.761719 108.621094 218.761719 108.621094 C 218.761719 108.621094 219.824219 118.488281 217.386719 123.769531 C 214.949219 129.050781 212.785156 129.730469 211.566406 135.011719 C 210.347656 140.292969 210.890625 148.148438 210.890625 148.148438 C 210.890625 148.148438 218.871094 166.808594 218.289062 178.488281 C 217.804688 188.144531 214.589844 190.316406 214.589844 190.316406 C 214.589844 190.316406 223.070312 203.546875 229.566406 200.566406 C 236.066406 197.585938 240.886719 186.308594 237.910156 181.296875 Z M 251.835938 189.554688 L 251.527344 189.9375 C 249.378906 188.21875 247.125 186.652344 244.929688 185.007812 C 244.074219 184.371094 243.148438 183.214844 242.21875 182.734375 C 242.152344 182.699219 241.953125 183.371094 241.9375 183.453125 C 241.773438 184.214844 241.914062 185.023438 241.703125 185.765625 C 241.316406 187.132812 241.269531 188.566406 240.941406 189.945312 C 240.824219 190.433594 240.441406 191.21875 240.488281 191.726562 C 240.511719 191.972656 240.808594 191.34375 240.953125 191.144531 C 241.222656 190.769531 241.453125 190.359375 241.691406 189.964844 C 242.289062 188.972656 242.757812 186.480469 243.777344 185.84375 C 243.945312 185.738281 243.761719 186.242188 243.710938 186.4375 C 243.613281 186.839844 243.503906 187.242188 243.402344 187.644531 C 243.054688 188.996094 242.71875 190.34375 242.421875 191.703125 C 242.398438 191.785156 242.128906 192.90625 242.171875 192.925781 C 242.1875 192.933594 242.980469 191.566406 243.046875 191.457031 C 243.710938 190.347656 244.371094 189.238281 244.96875 188.085938 C 245.03125 187.960938 245.566406 187.015625 245.65625 187.011719 C 245.738281 187.007812 245.46875 188.339844 245.425781 188.59375 C 245.191406 189.964844 244.847656 191.3125 244.492188 192.65625 C 244.425781 192.921875 243.988281 193.78125 244.101562 194.015625 C 244.214844 194.253906 244.417969 193.589844 244.550781 193.363281 C 244.753906 193.011719 244.9375 192.652344 245.132812 192.300781 C 245.753906 191.179688 246.332031 189.816406 247.199219 188.855469 C 247.351562 188.691406 247.226562 189.304688 247.210938 189.527344 C 247.179688 189.9375 247.058594 190.378906 246.941406 190.765625 C 246.597656 191.910156 245.933594 193.488281 245.9375 194.683594 C 245.9375 194.792969 246.070312 194.507812 246.128906 194.417969 C 246.335938 194.085938 246.570312 193.726562 246.742188 193.375 C 247.191406 192.460938 247.773438 191.558594 248.46875 190.8125 C 248.574219 190.699219 248.875 190.195312 249.046875 190.167969 C 249.132812 190.15625 248.984375 191.210938 248.957031 191.304688 C 248.667969 192.332031 247.773438 193.675781 247.707031 194.71875 C 247.691406 194.992188 248.125 194.359375 248.28125 194.136719 C 248.566406 193.738281 248.839844 193.335938 249.121094 192.933594 C 249.9375 191.765625 251.058594 190.738281 251.835938 189.554688 Z M 279.136719 127.542969 C 279.136719 86.015625 251.539062 50.894531 213.714844 39.535156 L 212.882812 75.902344 C 238.980469 72.65625 244.765625 92.800781 225.265625 108.421875 C 225.265625 108.421875 229.78125 112.449219 232.015625 118.785156 C 235.195312 127.808594 234.605469 129.5 233.535156 138.597656 C 232.464844 147.699219 239.136719 152.746094 237.535156 162.113281 C 236.074219 170.625 236.605469 169.742188 239.324219 174.929688 C 243.113281 178.347656 249.28125 185.707031 255.054688 189.539062 C 270.007812 173.195312 279.136719 151.429688 279.136719 127.542969 Z M 190.359375 203.808594 C 192.414062 206.019531 192.574219 207.847656 189.140625 208.953125 C 193.074219 211.128906 196.648438 203.328125 190.359375 203.808594 Z M 190.359375 203.808594 " fill-opacity="1" fill-rule="evenodd"/></g><g fill="#000000" fill-opacity="1"><g transform="translate(21.073144, 288.027594)"><g><path d="M 14.625 -40.4375 C 14.53125 -39.800781 14.484375 -38.765625 14.484375 -37.328125 L 14.484375 -35.578125 L 21.828125 -35.578125 L 21.828125 -29.453125 L 14.484375 -29.453125 L 14.484375 0 L 5.1875 0 L 5.1875 -29.453125 L 1.34375 -29.453125 L 1.34375 -35.578125 L 5.1875 -35.578125 L 5.1875 -37.0625 C 5.1875 -39 5.234375 -40.367188 5.328125 -41.171875 C 5.910156 -47.597656 10.242188 -50.8125 18.328125 -50.8125 C 19.679688 -50.8125 21.050781 -50.65625 22.4375 -50.34375 L 22.4375 -43.875 C 20.238281 -44.28125 18.429688 -44.175781 17.015625 -43.5625 C 15.597656 -42.957031 14.800781 -41.914062 14.625 -40.4375 Z M 14.625 -40.4375 "/></g></g></g><g fill="#000000" fill-opacity="1"><g transform="translate(39.533613, 288.027594)"><g><path d="M 6.734375 -31.5625 C 10.015625 -35.050781 14.578125 -36.796875 20.421875 -36.796875 C 26.265625 -36.796875 30.820312 -35.050781 34.09375 -31.5625 C 37.375 -28.082031 39.015625 -23.535156 39.015625 -17.921875 C 39.015625 -12.347656 37.375 -7.8125 34.09375 -4.3125 C 30.820312 -0.8125 26.265625 0.9375 20.421875 0.9375 C 14.578125 0.9375 10.015625 -0.8125 6.734375 -4.3125 C 3.453125 -7.8125 1.8125 -12.347656 1.8125 -17.921875 C 1.8125 -23.535156 3.453125 -28.082031 6.734375 -31.5625 Z M 13.84375 -8.859375 C 15.4375 -6.679688 17.625 -5.59375 20.40625 -5.59375 C 23.195312 -5.59375 25.390625 -6.679688 26.984375 -8.859375 C 28.578125 -11.035156 29.375 -14.054688 29.375 -17.921875 C 29.375 -21.785156 28.578125 -24.804688 26.984375 -26.984375 C 25.390625 -29.171875 23.195312 -30.265625 20.40625 -30.265625 C 17.625 -30.265625 15.4375 -29.171875 13.84375 -26.984375 C 12.25 -24.804688 11.453125 -21.785156 11.453125 -17.921875 C 11.453125 -14.054688 12.25 -11.035156 13.84375 -8.859375 Z M 13.84375 -8.859375 "/></g></g></g><g fill="#000000" fill-opacity="1"><g transform="translate(76.051208, 288.027594)"><g><path d="M 19.75 -36.796875 C 24.46875 -36.796875 28.285156 -35.503906 31.203125 -32.921875 C 34.117188 -30.335938 35.757812 -27 36.125 -22.90625 L 26.953125 -22.90625 C 26.148438 -27.8125 23.679688 -30.265625 19.546875 -30.265625 C 17.078125 -30.265625 15.109375 -29.25 13.640625 -27.21875 C 12.179688 -25.195312 11.453125 -22.210938 11.453125 -18.265625 C 11.453125 -13.992188 12.171875 -10.8125 13.609375 -8.71875 C 15.046875 -6.632812 17 -5.59375 19.46875 -5.59375 C 21.3125 -5.59375 22.875 -6.175781 24.15625 -7.34375 C 25.4375 -8.507812 26.300781 -10.195312 26.75 -12.40625 L 36.046875 -12.40625 C 35.285156 -8.09375 33.390625 -4.789062 30.359375 -2.5 C 27.328125 -0.207031 23.519531 0.9375 18.9375 0.9375 C 13.863281 0.9375 9.738281 -0.664062 6.5625 -3.875 C 3.394531 -7.082031 1.8125 -11.675781 1.8125 -17.65625 C 1.8125 -23.582031 3.519531 -28.253906 6.9375 -31.671875 C 10.351562 -35.085938 14.625 -36.796875 19.75 -36.796875 Z M 19.75 -36.796875 "/></g></g></g><g fill="#000000" fill-opacity="1"><g transform="translate(109.536818, 288.027594)"><g><path d="M 5.1875 -47.8125 C 6.132812 -48.726562 7.367188 -49.1875 8.890625 -49.1875 C 10.421875 -49.1875 11.65625 -48.726562 12.59375 -47.8125 C 13.539062 -46.894531 14.015625 -45.71875 14.015625 -44.28125 C 14.015625 -42.789062 13.539062 -41.597656 12.59375 -40.703125 C 11.65625 -39.804688 10.421875 -39.359375 8.890625 -39.359375 C 7.367188 -39.359375 6.132812 -39.804688 5.1875 -40.703125 C 4.25 -41.597656 3.78125 -42.789062 3.78125 -44.28125 C 3.78125 -45.71875 4.25 -46.894531 5.1875 -47.8125 Z M 13.546875 0 L 4.25 0 L 4.25 -35.859375 L 13.546875 -35.859375 Z M 13.546875 0 "/></g></g></g><g fill="#000000" fill-opacity="1"><g transform="translate(123.146127, 288.027594)"><g><path d="M 37.671875 -26.75 C 37.847656 -25.132812 37.9375 -22.957031 37.9375 -20.21875 L 37.9375 0 L 28.640625 0 L 28.640625 -18.9375 C 28.640625 -21.050781 28.59375 -22.710938 28.5 -23.921875 C 28.1875 -28.148438 25.894531 -30.265625 21.625 -30.265625 C 19.207031 -30.265625 17.253906 -29.128906 15.765625 -26.859375 C 14.285156 -24.585938 13.546875 -21.09375 13.546875 -16.375 L 13.546875 0 L 4.25 0 L 4.25 -35.859375 L 13.546875 -35.859375 L 13.546875 -30.0625 L 16.3125 -34.296875 C 18.644531 -35.960938 21.519531 -36.796875 24.9375 -36.796875 C 28.707031 -36.796875 31.679688 -35.914062 33.859375 -34.15625 C 36.035156 -32.40625 37.304688 -29.9375 37.671875 -26.75 Z M 37.671875 -26.75 "/></g></g></g><g fill="#000000" fill-opacity="1"><g transform="translate(160.674393, 288.027594)"><g><path d="M 37.671875 -26.75 C 37.847656 -25.132812 37.9375 -22.957031 37.9375 -20.21875 L 37.9375 0 L 28.640625 0 L 28.640625 -18.9375 C 28.640625 -21.050781 28.59375 -22.710938 28.5 -23.921875 C 28.1875 -28.148438 25.894531 -30.265625 21.625 -30.265625 C 19.207031 -30.210938 17.253906 -29.0625 15.765625 -26.8125 C 14.285156 -24.570312 13.546875 -21.09375 13.546875 -16.375 L 13.546875 0 L 4.25 0 L 4.25 -49.875 L 13.546875 -49.875 L 13.546875 -30.0625 L 16.3125 -34.296875 C 18.644531 -35.960938 21.519531 -36.796875 24.9375 -36.796875 C 28.707031 -36.796875 31.679688 -35.914062 33.859375 -34.15625 C 36.035156 -32.40625 37.304688 -29.9375 37.671875 -26.75 Z M 37.671875 -26.75 "/></g></g></g><g fill="#000000" fill-opacity="1"><g transform="translate(198.202658, 288.027594)"><g><path d="M 6.734375 -31.5625 C 10.015625 -35.050781 14.578125 -36.796875 20.421875 -36.796875 C 26.265625 -36.796875 30.820312 -35.050781 34.09375 -31.5625 C 37.375 -28.082031 39.015625 -23.535156 39.015625 -17.921875 C 39.015625 -12.347656 37.375 -7.8125 34.09375 -4.3125 C 30.820312 -0.8125 26.265625 0.9375 20.421875 0.9375 C 14.578125 0.9375 10.015625 -0.8125 6.734375 -4.3125 C 3.453125 -7.8125 1.8125 -12.347656 1.8125 -17.921875 C 1.8125 -23.535156 3.453125 -28.082031 6.734375 -31.5625 Z M 13.84375 -8.859375 C 15.4375 -6.679688 17.625 -5.59375 20.40625 -5.59375 C 23.195312 -5.59375 25.390625 -6.679688 26.984375 -8.859375 C 28.578125 -11.035156 29.375 -14.054688 29.375 -17.921875 C 29.375 -21.785156 28.578125 -24.804688 26.984375 -26.984375 C 25.390625 -29.171875 23.195312 -30.265625 20.40625 -30.265625 C 17.625 -30.265625 15.4375 -29.171875 13.84375 -26.984375 C 12.25 -24.804688 11.453125 -21.785156 11.453125 -17.921875 C 11.453125 -14.054688 12.25 -11.035156 13.84375 -8.859375 Z M 13.84375 -8.859375 "/></g></g></g><g fill="#000000" fill-opacity="1"><g transform="translate(234.720266, 288.027594)"><g/></g></g><g fill="#000000" fill-opacity="1"><g transform="translate(243.478402, 288.027594)"><g><path d="M 14.625 -40.4375 C 14.53125 -39.800781 14.484375 -38.765625 14.484375 -37.328125 L 14.484375 -35.578125 L 21.828125 -35.578125 L 21.828125 -29.453125 L 14.484375 -29.453125 L 14.484375 0 L 5.1875 0 L 5.1875 -29.453125 L 1.34375 -29.453125 L 1.34375 -35.578125 L 5.1875 -35.578125 L 5.1875 -37.0625 C 5.1875 -39 5.234375 -40.367188 5.328125 -41.171875 C 5.910156 -47.597656 10.242188 -50.8125 18.328125 -50.8125 C 19.679688 -50.8125 21.050781 -50.65625 22.4375 -50.34375 L 22.4375 -43.875 C 20.238281 -44.28125 18.429688 -44.175781 17.015625 -43.5625 C 15.597656 -42.957031 14.800781 -41.914062 14.625 -40.4375 Z M 14.625 -40.4375 "/></g></g></g><g fill="#000000" fill-opacity="1"><g transform="translate(261.93886, 288.027594)"><g><path d="M 5.1875 -47.8125 C 6.132812 -48.726562 7.367188 -49.1875 8.890625 -49.1875 C 10.421875 -49.1875 11.65625 -48.726562 12.59375 -47.8125 C 13.539062 -46.894531 14.015625 -45.71875 14.015625 -44.28125 C 14.015625 -42.789062 13.539062 -41.597656 12.59375 -40.703125 C 11.65625 -39.804688 10.421875 -39.359375 8.890625 -39.359375 C 7.367188 -39.359375 6.132812 -39.804688 5.1875 -40.703125 C 4.25 -41.597656 3.78125 -42.789062 3.78125 -44.28125 C 3.78125 -45.71875 4.25 -46.894531 5.1875 -47.8125 Z M 13.546875 0 L 4.25 0 L 4.25 -35.859375 L 13.546875 -35.859375 Z M 13.546875 0 "/></g></g></g><g fill="#000000" fill-opacity="1"><g transform="translate(275.548157, 288.027594)"><g><path d="M 37.671875 -26.75 C 37.847656 -25.132812 37.9375 -22.957031 37.9375 -20.21875 L 37.9375 0 L 28.640625 0 L 28.640625 -18.9375 C 28.640625 -21.050781 28.59375 -22.710938 28.5 -23.921875 C 28.1875 -28.148438 25.894531 -30.265625 21.625 -30.265625 C 19.207031 -30.265625 17.253906 -29.128906 15.765625 -26.859375 C 14.285156 -24.585938 13.546875 -21.09375 13.546875 -16.375 L 13.546875 0 L 4.25 0 L 4.25 -35.859375 L 13.546875 -35.859375 L 13.546875 -30.0625 L 16.3125 -34.296875 C 18.644531 -35.960938 21.519531 -36.796875 24.9375 -36.796875 C 28.707031 -36.796875 31.679688 -35.914062 33.859375 -34.15625 C 36.035156 -32.40625 37.304688 -29.9375 37.671875 -26.75 Z M 37.671875 -26.75 "/></g></g></g><g fill="#000000" fill-opacity="1"><g transform="translate(313.07641, 288.027594)"><g><path d="M 6.734375 -31.5625 C 10.015625 -35.050781 14.578125 -36.796875 20.421875 -36.796875 C 26.265625 -36.796875 30.820312 -35.050781 34.09375 -31.5625 C 37.375 -28.082031 39.015625 -23.535156 39.015625 -17.921875 C 39.015625 -12.347656 37.375 -7.8125 34.09375 -4.3125 C 30.820312 -0.8125 26.265625 0.9375 20.421875 0.9375 C 14.578125 0.9375 10.015625 -0.8125 6.734375 -4.3125 C 3.453125 -7.8125 1.8125 -12.347656 1.8125 -17.921875 C 1.8125 -23.535156 3.453125 -28.082031 6.734375 -31.5625 Z M 13.84375 -8.859375 C 15.4375 -6.679688 17.625 -5.59375 20.40625 -5.59375 C 23.195312 -5.59375 25.390625 -6.679688 26.984375 -8.859375 C 28.578125 -11.035156 29.375 -14.054688 29.375 -17.921875 C 29.375 -21.785156 28.578125 -24.804688 26.984375 -26.984375 C 25.390625 -29.171875 23.195312 -30.265625 20.40625 -30.265625 C 17.625 -30.265625 15.4375 -29.171875 13.84375 -26.984375 C 12.25 -24.804688 11.453125 -21.785156 11.453125 -17.921875 C 11.453125 -14.054688 12.25 -11.035156 13.84375 -8.859375 Z M 13.84375 -8.859375 "/></g></g></g></svg>