<svg xmlns="http://www.w3.org/2000/svg" xmlns:xlink="http://www.w3.org/1999/xlink" zoomAndPan="magnify" viewBox="0 0 375 374.999991" preserveAspectRatio="xMidYMid meet" version="1.0"><defs><g/><clipPath id="90fc2389fb"><path d="M 61 73 L 139 73 L 139 149 L 61 149 Z M 61 73 " clip-rule="nonzero"/></clipPath><clipPath id="60f8a0e72d"><path d="M 69.785156 68.964844 L 147.058594 79.585938 L 137.050781 152.402344 L 59.777344 141.78125 Z M 69.785156 68.964844 " clip-rule="nonzero"/></clipPath><clipPath id="3402e1c7c6"><path d="M 69.785156 68.964844 L 147.058594 79.585938 L 137.050781 152.402344 L 59.777344 141.78125 Z M 69.785156 68.964844 " clip-rule="nonzero"/></clipPath><clipPath id="896fc656df"><path d="M 69.785156 68.964844 L 147.058594 79.585938 L 137.050781 152.402344 L 59.777344 141.78125 Z M 69.785156 68.964844 " clip-rule="nonzero"/></clipPath></defs><path fill="#151419" d="M 73.585938 153.066406 C 74.054688 151.613281 74.902344 149.933594 76.332031 149.226562 C 77.363281 148.714844 78.398438 149.742188 77.882812 150.78125 C 77.367188 151.824219 76.675781 152.6875 76.371094 153.839844 C 75.898438 155.644531 73.011719 154.84375 73.585938 153.066406 Z M 82.859375 154.761719 C 83.332031 153.3125 84.175781 151.628906 85.605469 150.921875 C 86.636719 150.410156 87.675781 151.4375 87.15625 152.476562 C 86.640625 153.519531 85.949219 154.382812 85.648438 155.53125 C 85.171875 157.339844 82.285156 156.535156 82.859375 154.761719 Z M 59.789062 161.417969 C 60.542969 158.144531 61.824219 155.117188 62.328125 151.75 C 62.765625 148.859375 62.8125 146.097656 63.808594 143.332031 C 66.214844 136.636719 70.449219 132.15625 77.410156 132.261719 C 76.476562 133.722656 75.636719 135.261719 74.746094 136.714844 C 72.664062 140.09375 70.410156 143.234375 68.617188 146.789062 C 65.957031 152.070312 63.460938 157.167969 59.789062 161.417969 Z M 29.519531 184.261719 C 29.578125 184.335938 29.648438 184.394531 29.710938 184.464844 C 29.78125 186.59375 30.414062 188.691406 31.652344 190.394531 C 35.273438 195.367188 43.101562 196.53125 48.789062 196.546875 C 55.300781 196.5625 62.082031 195.199219 68.035156 192.554688 C 70.464844 191.472656 72.761719 190.164062 75.09375 188.921875 C 70.804688 196.289062 57.820312 207.816406 51.367188 196.835938 C 51.242188 196.625 50.871094 196.703125 50.886719 196.964844 C 51.253906 202.882812 57.746094 203.472656 62.28125 202.359375 C 69.222656 200.660156 74.039062 195.640625 76.390625 188.96875 C 76.480469 188.703125 76.359375 188.488281 76.167969 188.359375 C 77.675781 187.582031 79.207031 186.851562 80.8125 186.25 C 84.390625 184.902344 88.089844 183.847656 91.539062 182.183594 C 97.625 179.253906 101.988281 174.417969 104.578125 168.210938 C 105.011719 167.175781 103.222656 166.433594 102.78125 167.449219 C 98.792969 176.648438 91.417969 180.078125 82.484375 183.285156 C 75.28125 185.871094 69.011719 190.566406 61.613281 192.621094 C 56.894531 193.929688 51.941406 194.71875 47.035156 194.492188 C 42.628906 194.285156 37.996094 193.734375 34.664062 190.550781 C 35.199219 190.507812 35.761719 190.332031 36.351562 190.011719 C 37.535156 189.375 38.542969 187.78125 40.160156 188.339844 C 40.921875 188.605469 41.792969 190.03125 42.640625 190.480469 C 46.546875 192.539062 51.019531 190.441406 52.554688 186.507812 C 52.996094 185.375 51.171875 184.886719 50.734375 186.007812 C 48.988281 190.480469 44.605469 189.75 41.820312 187.375 C 41.152344 186.808594 40.796875 186.21875 39.929688 186.007812 C 38.152344 185.570312 34.4375 189.238281 33.304688 188.105469 C 33.140625 187.945312 32.964844 187.882812 32.785156 187.855469 C 32.488281 187.191406 32.277344 186.488281 32.140625 185.773438 C 34.757812 186.152344 37.929688 184.296875 39.828125 182.78125 C 42.257812 180.84375 45.054688 178.792969 44.742188 175.222656 C 44.671875 174.414062 44.394531 173.757812 43.980469 173.226562 C 44.960938 172.929688 45.933594 172.636719 46.890625 172.316406 C 53.175781 170.199219 58.710938 166.566406 62.886719 161.351562 C 67.460938 155.640625 69.414062 148.503906 73.320312 142.398438 C 75.355469 139.222656 77.28125 135.921875 79.394531 132.804688 C 82.269531 128.554688 87.183594 125.882812 92.152344 124.863281 C 95.589844 124.15625 99.40625 123.046875 102.886719 123.804688 C 107.128906 124.726562 111.378906 127.433594 112.992188 131.601562 C 113.171875 132.054688 113.691406 132.113281 113.996094 131.902344 C 113.9375 132.316406 114.1875 132.808594 114.726562 132.882812 C 130.078125 134.902344 132.558594 155.074219 130.570312 167.3125 C 128.652344 179.097656 124.355469 193.179688 115.132812 201.214844 C 112.832031 203.222656 110.144531 205.355469 107.375 206.734375 C 103.804688 208.511719 98.742188 208.628906 97.25 203.949219 C 96.632812 202.015625 97.199219 199.914062 97.726562 198.046875 C 99.355469 192.339844 102.027344 186.917969 103.972656 181.3125 C 105.183594 177.816406 106.378906 174.300781 107.101562 170.667969 C 107.867188 166.832031 108.242188 162.804688 107.933594 158.898438 C 107.691406 155.867188 106.855469 152.269531 105.109375 149.730469 C 105.035156 149.625 104.851562 149.6875 104.890625 149.824219 C 107.472656 158.710938 105.917969 168.808594 103.066406 177.441406 C 100.671875 184.6875 95.992188 192.367188 95.378906 200.042969 C 95.019531 204.546875 97.0625 209.566406 102.105469 209.882812 C 107.757812 210.234375 114.070312 204.464844 117.855469 200.8125 C 122.996094 195.859375 125.621094 189.496094 128.023438 182.894531 C 130.78125 175.308594 132.953125 167.34375 132.960938 159.207031 C 132.964844 148.308594 127.992188 131.691406 114.726562 131.3125 C 114.5 131.304688 114.332031 131.378906 114.210938 131.484375 C 114.210938 131.417969 114.207031 131.347656 114.183594 131.273438 C 109.722656 117.648438 89.511719 120.988281 80.949219 128.054688 C 79.824219 128.980469 78.898438 130.097656 78.0625 131.292969 C 73.097656 129.382812 67.695312 132.648438 64.9375 136.867188 C 60.230469 144.0625 59.386719 152.878906 58.640625 161.300781 C 58.597656 161.761719 59.089844 161.953125 59.445312 161.820312 C 57.664062 163.816406 55.601562 165.617188 53.113281 167.148438 C 49.589844 169.320312 45.519531 170.378906 41.605469 171.730469 C 40.019531 171.289062 38.132812 171.441406 36.703125 172.007812 C 34.640625 172.828125 32.816406 173.886719 31.328125 175.542969 C 29.390625 177.699219 27.46875 181.683594 29.519531 184.261719 Z M 311.371094 157.078125 C 305.570312 154.582031 303.980469 146.183594 306.808594 141.089844 C 307.011719 140.722656 307.542969 141.046875 307.367188 141.417969 C 305.832031 144.574219 305.65625 148.144531 307.183594 151.339844 C 308.261719 153.578125 310.125 154.832031 311.738281 156.597656 C 311.984375 156.871094 311.679688 157.210938 311.371094 157.078125 Z M 315.667969 150.738281 C 314.3125 148.894531 313.253906 146.324219 313.925781 144.015625 C 313.964844 143.882812 314.183594 143.863281 314.210938 144.015625 C 314.621094 146.351562 314.847656 148.386719 316.226562 150.410156 C 316.464844 150.757812 315.910156 151.066406 315.667969 150.738281 Z M 344.925781 141.792969 C 344.835938 141.53125 345.265625 141.339844 345.378906 141.601562 C 347.714844 146.847656 346.46875 153.945312 342.058594 157.808594 C 341.667969 158.148438 341.1875 157.730469 341.375 157.285156 C 343.625 151.96875 347.003906 147.917969 344.925781 141.792969 Z M 337.890625 143.636719 C 337.910156 143.554688 338.035156 143.535156 338.074219 143.613281 C 339.214844 145.808594 338.996094 149.347656 337.453125 151.273438 C 337.324219 151.441406 337.0625 151.261719 337.117188 151.078125 C 337.5 149.757812 337.765625 148.417969 337.789062 147.039062 C 337.804688 145.910156 337.621094 144.738281 337.890625 143.636719 Z M 320.648438 171.523438 C 320.136719 171.621094 319.921875 170.828125 320.433594 170.742188 C 328.636719 169.304688 329.386719 159.003906 329.28125 152.320312 C 329.230469 149.046875 328.894531 145.679688 327.972656 142.527344 C 327.804688 141.945312 325.609375 135.289062 323.609375 138.632812 C 323.53125 138.765625 324.839844 142.84375 324.898438 143.160156 C 326.375 150.960938 323.527344 165.203125 314.222656 167.003906 C 313.785156 167.089844 313.496094 166.507812 313.90625 166.261719 C 318.796875 163.378906 322 158.976562 323.054688 153.34375 C 323.644531 150.191406 323.71875 146.816406 323.128906 143.648438 C 322.773438 141.726562 321.769531 139.949219 321.425781 138.058594 C 320.472656 132.867188 325.804688 134.136719 327.84375 137.140625 C 334.347656 146.710938 335.007812 168.78125 320.648438 171.523438 Z M 289.722656 211.484375 C 289.992188 208.597656 289.71875 205.6875 290.152344 202.835938 C 290.210938 202.46875 290.683594 202.578125 290.789062 202.835938 C 292.132812 206.0625 291.398438 209.757812 291.0625 213.171875 C 290.839844 215.429688 289.140625 220.546875 289.71875 222.5 C 291.464844 228.398438 297.140625 218.828125 298.242188 216.984375 C 300.074219 213.910156 301.980469 210.199219 303.125 206.828125 C 303.15625 206.738281 303.285156 206.773438 303.269531 206.867188 C 302.28125 212.207031 300.429688 216.71875 297.316406 221.183594 C 295.917969 223.1875 293.152344 227.429688 290.148438 226.972656 C 287.59375 226.585938 287.765625 224.050781 288.089844 222.046875 C 288.664062 218.511719 289.386719 215.070312 289.722656 211.484375 Z M 86.480469 186.207031 C 89.972656 191.792969 92.824219 196.679688 92.363281 203.417969 C 91.835938 211.097656 90.613281 219.398438 91.734375 227.058594 C 92.078125 229.429688 94.023438 235.109375 96.613281 230.585938 C 97.195312 229.570312 97.039062 227.519531 97.199219 226.386719 C 97.613281 223.519531 98.078125 220.617188 99.289062 217.957031 C 100.8125 214.613281 103.339844 211.507812 106.941406 214.304688 C 110.324219 216.929688 111 222.207031 111.546875 226.128906 C 111.742188 227.546875 111.800781 229.042969 112.097656 230.4375 C 112.183594 230.847656 112.230469 231.808594 112.546875 232.078125 C 112.871094 232.941406 113.253906 233.886719 114.359375 233.800781 C 115.011719 233.75 115.589844 233.328125 115.980469 232.800781 C 117.035156 231.378906 117.230469 229.03125 117.316406 227.308594 C 117.414062 225.464844 117.210938 223.574219 117.457031 221.738281 C 118.96875 210.523438 128.289062 209.773438 137.445312 212.386719 C 167.210938 220.871094 198.976562 221.652344 229.121094 214.910156 C 236.367188 213.289062 243.433594 211.667969 250.4375 209.175781 C 257.804688 206.554688 265.179688 203.847656 272.820312 202.113281 C 283.664062 199.648438 296.566406 198.476562 305.875 205.777344 C 311.28125 210.011719 311.867188 216.089844 312.988281 222.527344 C 313.34375 224.5625 313.261719 226.097656 315.078125 227.359375 C 316.511719 228.359375 317.332031 228.628906 318.695312 226.980469 C 319.179688 226.398438 319.429688 225.464844 319.648438 224.765625 C 320.371094 222.472656 320.421875 220.011719 320.464844 217.628906 C 320.734375 202.71875 334.679688 181.566406 317.242188 171.199219 C 316.886719 170.988281 317.121094 170.351562 317.535156 170.507812 C 329.769531 175.140625 329.363281 190.453125 325.882812 200.882812 C 324.605469 204.710938 323.425781 208.539062 322.917969 212.554688 C 322.554688 215.453125 322.734375 218.359375 322.445312 221.257812 C 322.144531 224.3125 321.457031 228.640625 318.351562 230.132812 C 314.84375 231.824219 312.214844 229 311.394531 225.828125 C 310.457031 222.1875 310.230469 218.378906 309.246094 214.738281 C 308.066406 210.386719 305.351562 207.578125 301.421875 205.46875 C 286.648438 197.550781 267.0625 205.625 252.644531 210.75 C 220.984375 222.011719 187.710938 223.925781 154.671875 218.566406 C 147.941406 217.472656 141.667969 215.652344 135.101562 213.976562 C 132.039062 213.195312 128.507812 212.445312 125.410156 213.472656 C 119.898438 215.308594 119.632812 221.394531 119.246094 226.277344 C 118.992188 229.515625 118.878906 235.429688 114.558594 235.804688 C 110.589844 236.152344 110.085938 231.578125 109.699219 228.640625 C 109.296875 225.578125 109.125 219.804688 106.824219 217.40625 C 101.15625 211.480469 99.492188 225.636719 99.128906 228.226562 C 98.675781 231.464844 97.519531 236.722656 93.035156 234.304688 C 87.707031 231.429688 89.277344 221.621094 89.351562 216.855469 C 89.4375 211.816406 90.15625 206.773438 90.179688 201.75 C 90.203125 196.328125 87.253906 191.84375 84.511719 187.363281 C 83.738281 186.105469 85.703125 184.960938 86.480469 186.207031 Z M 315.394531 169.09375 C 305.679688 160.929688 288.972656 163.492188 277.289062 163.699219 C 261.980469 163.96875 246.308594 167.863281 231.664062 172.042969 C 224.09375 174.203125 216.523438 176.476562 208.761719 177.890625 C 200.035156 179.476562 191.402344 179.359375 182.589844 178.773438 C 174.292969 178.21875 166.019531 177.238281 157.828125 175.808594 C 149.503906 174.351562 141.125 172.757812 133.679688 168.578125 C 132.394531 167.859375 131.257812 169.8125 132.527344 170.554688 C 139.023438 174.375 146.371094 175.914062 153.699219 177.277344 C 161.179688 178.671875 168.722656 179.734375 176.296875 180.4375 C 192.15625 181.910156 206.726562 181.171875 222.132812 177.019531 C 238.347656 172.648438 254.261719 168.160156 271.023438 166.355469 C 278.074219 165.597656 285.300781 165.714844 292.394531 165.695312 C 300.453125 165.667969 307.441406 167.207031 315.027344 169.726562 C 315.375 169.84375 315.6875 169.339844 315.394531 169.09375 " fill-opacity="1" fill-rule="nonzero"/><g clip-path="url(#90fc2389fb)"><g clip-path="url(#60f8a0e72d)"><g clip-path="url(#3402e1c7c6)"><g clip-path="url(#896fc656df)"><path fill="#000000" d="M 86.105469 77.632812 C 86.265625 77.304688 86.65625 77.167969 86.980469 77.328125 C 91.207031 79.367188 98.296875 81.316406 105.949219 82.542969 C 115.492188 84.070312 124.210938 84.234375 128.167969 82.957031 C 128.511719 82.847656 128.878906 83.035156 128.992188 83.378906 C 129.101562 83.722656 128.914062 84.09375 128.570312 84.203125 C 124.789062 85.421875 116.972656 85.40625 108.222656 84.203125 C 107.402344 84.089844 106.578125 83.96875 105.742188 83.835938 C 97.96875 82.589844 90.742188 80.597656 86.410156 78.503906 C 86.085938 78.347656 85.949219 77.957031 86.105469 77.632812 Z M 138.421875 142.433594 C 137.921875 146.070312 131.472656 147.515625 126.148438 148.089844 C 118.796875 148.882812 108.949219 148.523438 98.414062 147.074219 C 87.882812 145.625 78.300781 143.316406 71.4375 140.570312 C 66.464844 138.582031 60.644531 135.449219 61.144531 131.8125 C 61.355469 130.28125 63.132812 129.085938 66.578125 128.15625 C 69.210938 127.441406 72.753906 126.894531 77.109375 126.527344 C 77.164062 125.664062 77.214844 124.804688 77.273438 123.933594 C 77.683594 117.625 78.230469 111.25 78.890625 104.980469 C 79.941406 95.019531 81.324219 84.964844 83 75.089844 C 83.035156 74.871094 83.179688 74.683594 83.382812 74.597656 C 87.328125 72.890625 95.058594 72.820312 107.722656 74.378906 C 119.785156 75.859375 128.789062 78.390625 132.425781 81.328125 C 132.582031 81.445312 132.679688 81.628906 132.683594 81.832031 C 132.683594 81.859375 132.683594 81.886719 132.683594 81.914062 C 132.683594 81.914062 132.683594 81.914062 132.683594 81.917969 C 131.632812 91.878906 130.25 101.9375 128.574219 111.808594 C 127.519531 118.023438 126.324219 124.3125 125.019531 130.496094 C 124.839844 131.347656 124.65625 132.195312 124.472656 133.035156 C 128.570312 134.566406 131.835938 136.050781 134.179688 137.445312 C 137.242188 139.273438 138.632812 140.902344 138.421875 142.433594 Z M 78.417969 126.613281 C 78.332031 128.074219 78.253906 129.5 78.183594 130.859375 C 84.574219 134.964844 91.878906 137.691406 99.332031 138.746094 C 99.402344 138.757812 99.476562 138.769531 99.550781 138.777344 C 107.089844 139.816406 114.929688 139.171875 122.273438 136.917969 C 122.570312 135.597656 122.878906 134.203125 123.191406 132.765625 C 123.292969 132.289062 123.398438 131.804688 123.5 131.324219 C 122.472656 131.636719 121.421875 131.921875 120.371094 132.171875 C 113.742188 133.765625 106.996094 134.105469 100.324219 133.191406 C 100.300781 133.1875 100.277344 133.183594 100.253906 133.179688 C 93.605469 132.257812 87.226562 130.113281 81.292969 126.800781 C 80.351562 126.273438 79.417969 125.71875 78.511719 125.140625 C 78.480469 125.632812 78.449219 126.125 78.417969 126.613281 Z M 80.195312 105.117188 C 79.546875 111.242188 79.015625 117.472656 78.605469 123.640625 C 79.683594 124.347656 80.796875 125.023438 81.933594 125.660156 C 87.722656 128.890625 93.949219 130.984375 100.433594 131.882812 C 100.457031 131.886719 100.480469 131.890625 100.503906 131.894531 C 107.011719 132.789062 113.59375 132.453125 120.066406 130.898438 C 121.328125 130.59375 122.585938 130.242188 123.8125 129.851562 C 125.082031 123.804688 126.25 117.660156 127.28125 111.589844 C 128.933594 101.863281 130.296875 91.960938 131.339844 82.140625 C 127.722656 79.441406 119.101562 77.09375 107.5625 75.675781 C 95.664062 74.214844 88.019531 74.210938 84.230469 75.667969 C 82.585938 85.398438 81.230469 95.304688 80.195312 105.117188 Z M 137.121094 142.253906 C 137.179688 141.828125 136.945312 140.617188 133.507812 138.570312 C 131.296875 137.253906 128.078125 135.789062 124.191406 134.328125 C 123.949219 135.449219 123.703125 136.539062 123.46875 137.578125 C 123.46875 137.585938 123.464844 137.59375 123.460938 137.597656 C 123.457031 137.617188 123.449219 137.636719 123.441406 137.65625 C 123.433594 137.679688 123.425781 137.699219 123.417969 137.71875 C 123.410156 137.734375 123.402344 137.75 123.390625 137.765625 C 123.378906 137.785156 123.367188 137.804688 123.355469 137.824219 C 123.34375 137.839844 123.332031 137.851562 123.316406 137.867188 C 123.304688 137.882812 123.289062 137.898438 123.273438 137.914062 C 123.257812 137.925781 123.242188 137.9375 123.226562 137.949219 C 123.210938 137.964844 123.191406 137.976562 123.171875 137.988281 C 123.15625 138 123.140625 138.007812 123.125 138.015625 C 123.101562 138.027344 123.078125 138.035156 123.054688 138.046875 C 123.046875 138.050781 123.035156 138.054688 123.027344 138.058594 C 115.398438 140.457031 107.222656 141.15625 99.371094 140.074219 C 99.296875 140.066406 99.222656 140.054688 99.148438 140.042969 C 91.382812 138.941406 83.777344 136.074219 77.152344 131.753906 C 76.957031 131.625 76.84375 131.402344 76.855469 131.171875 C 76.90625 130.101562 76.96875 128.988281 77.035156 127.847656 C 72.898438 128.207031 69.402344 128.746094 66.921875 129.417969 C 63.054688 130.460938 62.503906 131.566406 62.445312 131.992188 C 61.871094 136.152344 75.53125 142.605469 98.59375 145.777344 C 121.65625 148.949219 136.550781 146.417969 137.121094 142.253906 Z M 137.121094 142.253906 " fill-opacity="1" fill-rule="nonzero"/><path fill="#000000" d="M 86.105469 77.632812 C 86.265625 77.304688 86.65625 77.167969 86.980469 77.328125 C 91.207031 79.367188 98.296875 81.316406 105.949219 82.542969 C 115.492188 84.070312 124.210938 84.234375 128.167969 82.957031 C 128.511719 82.847656 128.878906 83.035156 128.992188 83.378906 C 129.101562 83.722656 128.914062 84.09375 128.570312 84.203125 C 124.789062 85.421875 116.972656 85.40625 108.222656 84.203125 C 107.402344 84.089844 106.578125 83.96875 105.742188 83.835938 C 97.96875 82.589844 90.742188 80.597656 86.410156 78.503906 C 86.085938 78.347656 85.949219 77.957031 86.105469 77.632812 Z M 138.421875 142.433594 C 137.921875 146.070312 131.472656 147.515625 126.148438 148.089844 C 118.796875 148.882812 108.949219 148.523438 98.414062 147.074219 C 87.882812 145.625 78.300781 143.316406 71.4375 140.570312 C 66.464844 138.582031 60.644531 135.449219 61.144531 131.8125 C 61.355469 130.28125 63.132812 129.085938 66.578125 128.15625 C 69.210938 127.441406 72.753906 126.894531 77.109375 126.527344 C 77.164062 125.664062 77.214844 124.804688 77.273438 123.933594 C 77.683594 117.625 78.230469 111.25 78.890625 104.980469 C 79.941406 95.019531 81.324219 84.964844 83 75.089844 C 83.035156 74.871094 83.179688 74.683594 83.382812 74.597656 C 87.328125 72.890625 95.058594 72.820312 107.722656 74.378906 C 119.785156 75.859375 128.789062 78.390625 132.425781 81.328125 C 132.582031 81.445312 132.679688 81.628906 132.683594 81.832031 C 132.683594 81.859375 132.683594 81.886719 132.683594 81.914062 C 132.683594 81.914062 132.683594 81.914062 132.683594 81.917969 C 131.632812 91.878906 130.25 101.9375 128.574219 111.808594 C 127.519531 118.023438 126.324219 124.3125 125.019531 130.496094 C 124.839844 131.347656 124.65625 132.195312 124.472656 133.035156 C 128.570312 134.566406 131.835938 136.050781 134.179688 137.445312 C 137.242188 139.273438 138.632812 140.902344 138.421875 142.433594 Z M 78.417969 126.613281 C 78.332031 128.074219 78.253906 129.5 78.183594 130.859375 C 84.574219 134.964844 91.878906 137.691406 99.332031 138.746094 C 99.402344 138.757812 99.476562 138.769531 99.550781 138.777344 C 107.089844 139.816406 114.929688 139.171875 122.273438 136.917969 C 122.570312 135.597656 122.878906 134.203125 123.191406 132.765625 C 123.292969 132.289062 123.398438 131.804688 123.5 131.324219 C 122.472656 131.636719 121.421875 131.921875 120.371094 132.171875 C 113.742188 133.765625 106.996094 134.105469 100.324219 133.191406 C 100.300781 133.1875 100.277344 133.183594 100.253906 133.179688 C 93.605469 132.257812 87.226562 130.113281 81.292969 126.800781 C 80.351562 126.273438 79.417969 125.71875 78.511719 125.140625 C 78.480469 125.632812 78.449219 126.125 78.417969 126.613281 Z M 80.195312 105.117188 C 79.546875 111.242188 79.015625 117.472656 78.605469 123.640625 C 79.683594 124.347656 80.796875 125.023438 81.933594 125.660156 C 87.722656 128.890625 93.949219 130.984375 100.433594 131.882812 C 100.457031 131.886719 100.480469 131.890625 100.503906 131.894531 C 107.011719 132.789062 113.59375 132.453125 120.066406 130.898438 C 121.328125 130.59375 122.585938 130.242188 123.8125 129.851562 C 125.082031 123.804688 126.25 117.660156 127.28125 111.589844 C 128.933594 101.863281 130.296875 91.960938 131.339844 82.140625 C 127.722656 79.441406 119.101562 77.09375 107.5625 75.675781 C 95.664062 74.214844 88.019531 74.210938 84.230469 75.667969 C 82.585938 85.398438 81.230469 95.304688 80.195312 105.117188 Z M 137.121094 142.253906 C 137.179688 141.828125 136.945312 140.617188 133.507812 138.570312 C 131.296875 137.253906 128.078125 135.789062 124.191406 134.328125 C 123.949219 135.449219 123.703125 136.539062 123.46875 137.578125 C 123.46875 137.585938 123.464844 137.59375 123.460938 137.597656 C 123.457031 137.617188 123.449219 137.636719 123.441406 137.65625 C 123.433594 137.679688 123.425781 137.699219 123.417969 137.71875 C 123.410156 137.734375 123.402344 137.75 123.390625 137.765625 C 123.378906 137.785156 123.367188 137.804688 123.355469 137.824219 C 123.34375 137.839844 123.332031 137.851562 123.316406 137.867188 C 123.304688 137.882812 123.289062 137.898438 123.273438 137.914062 C 123.257812 137.925781 123.242188 137.9375 123.226562 137.949219 C 123.210938 137.964844 123.191406 137.976562 123.171875 137.988281 C 123.15625 138 123.140625 138.007812 123.125 138.015625 C 123.101562 138.027344 123.078125 138.035156 123.054688 138.046875 C 123.046875 138.050781 123.035156 138.054688 123.027344 138.058594 C 115.398438 140.457031 107.222656 141.15625 99.371094 140.074219 C 99.296875 140.066406 99.222656 140.054688 99.148438 140.042969 C 91.382812 138.941406 83.777344 136.074219 77.152344 131.753906 C 76.957031 131.625 76.84375 131.402344 76.855469 131.171875 C 76.90625 130.101562 76.96875 128.988281 77.035156 127.847656 C 72.898438 128.207031 69.402344 128.746094 66.921875 129.417969 C 63.054688 130.460938 62.503906 131.566406 62.445312 131.992188 C 61.871094 136.152344 75.53125 142.605469 98.59375 145.777344 C 121.65625 148.949219 136.550781 146.417969 137.121094 142.253906 Z M 137.121094 142.253906 " fill-opacity="1" fill-rule="nonzero"/></g></g></g></g><g fill="#000000" fill-opacity="1"><g transform="translate(21.073144, 288.027594)"><g><path d="M 14.625 -40.4375 C 14.53125 -39.800781 14.484375 -38.765625 14.484375 -37.328125 L 14.484375 -35.578125 L 21.828125 -35.578125 L 21.828125 -29.453125 L 14.484375 -29.453125 L 14.484375 0 L 5.1875 0 L 5.1875 -29.453125 L 1.34375 -29.453125 L 1.34375 -35.578125 L 5.1875 -35.578125 L 5.1875 -37.0625 C 5.1875 -39 5.234375 -40.367188 5.328125 -41.171875 C 5.910156 -47.597656 10.242188 -50.8125 18.328125 -50.8125 C 19.679688 -50.8125 21.050781 -50.65625 22.4375 -50.34375 L 22.4375 -43.875 C 20.238281 -44.28125 18.429688 -44.175781 17.015625 -43.5625 C 15.597656 -42.957031 14.800781 -41.914062 14.625 -40.4375 Z M 14.625 -40.4375 "/></g></g></g><g fill="#000000" fill-opacity="1"><g transform="translate(39.533613, 288.027594)"><g><path d="M 6.734375 -31.5625 C 10.015625 -35.050781 14.578125 -36.796875 20.421875 -36.796875 C 26.265625 -36.796875 30.820312 -35.050781 34.09375 -31.5625 C 37.375 -28.082031 39.015625 -23.535156 39.015625 -17.921875 C 39.015625 -12.347656 37.375 -7.8125 34.09375 -4.3125 C 30.820312 -0.8125 26.265625 0.9375 20.421875 0.9375 C 14.578125 0.9375 10.015625 -0.8125 6.734375 -4.3125 C 3.453125 -7.8125 1.8125 -12.347656 1.8125 -17.921875 C 1.8125 -23.535156 3.453125 -28.082031 6.734375 -31.5625 Z M 13.84375 -8.859375 C 15.4375 -6.679688 17.625 -5.59375 20.40625 -5.59375 C 23.195312 -5.59375 25.390625 -6.679688 26.984375 -8.859375 C 28.578125 -11.035156 29.375 -14.054688 29.375 -17.921875 C 29.375 -21.785156 28.578125 -24.804688 26.984375 -26.984375 C 25.390625 -29.171875 23.195312 -30.265625 20.40625 -30.265625 C 17.625 -30.265625 15.4375 -29.171875 13.84375 -26.984375 C 12.25 -24.804688 11.453125 -21.785156 11.453125 -17.921875 C 11.453125 -14.054688 12.25 -11.035156 13.84375 -8.859375 Z M 13.84375 -8.859375 "/></g></g></g><g fill="#000000" fill-opacity="1"><g transform="translate(76.051208, 288.027594)"><g><path d="M 19.75 -36.796875 C 24.46875 -36.796875 28.285156 -35.503906 31.203125 -32.921875 C 34.117188 -30.335938 35.757812 -27 36.125 -22.90625 L 26.953125 -22.90625 C 26.148438 -27.8125 23.679688 -30.265625 19.546875 -30.265625 C 17.078125 -30.265625 15.109375 -29.25 13.640625 -27.21875 C 12.179688 -25.195312 11.453125 -22.210938 11.453125 -18.265625 C 11.453125 -13.992188 12.171875 -10.8125 13.609375 -8.71875 C 15.046875 -6.632812 17 -5.59375 19.46875 -5.59375 C 21.3125 -5.59375 22.875 -6.175781 24.15625 -7.34375 C 25.4375 -8.507812 26.300781 -10.195312 26.75 -12.40625 L 36.046875 -12.40625 C 35.285156 -8.09375 33.390625 -4.789062 30.359375 -2.5 C 27.328125 -0.207031 23.519531 0.9375 18.9375 0.9375 C 13.863281 0.9375 9.738281 -0.664062 6.5625 -3.875 C 3.394531 -7.082031 1.8125 -11.675781 1.8125 -17.65625 C 1.8125 -23.582031 3.519531 -28.253906 6.9375 -31.671875 C 10.351562 -35.085938 14.625 -36.796875 19.75 -36.796875 Z M 19.75 -36.796875 "/></g></g></g><g fill="#000000" fill-opacity="1"><g transform="translate(109.536818, 288.027594)"><g><path d="M 5.1875 -47.8125 C 6.132812 -48.726562 7.367188 -49.1875 8.890625 -49.1875 C 10.421875 -49.1875 11.65625 -48.726562 12.59375 -47.8125 C 13.539062 -46.894531 14.015625 -45.71875 14.015625 -44.28125 C 14.015625 -42.789062 13.539062 -41.597656 12.59375 -40.703125 C 11.65625 -39.804688 10.421875 -39.359375 8.890625 -39.359375 C 7.367188 -39.359375 6.132812 -39.804688 5.1875 -40.703125 C 4.25 -41.597656 3.78125 -42.789062 3.78125 -44.28125 C 3.78125 -45.71875 4.25 -46.894531 5.1875 -47.8125 Z M 13.546875 0 L 4.25 0 L 4.25 -35.859375 L 13.546875 -35.859375 Z M 13.546875 0 "/></g></g></g><g fill="#000000" fill-opacity="1"><g transform="translate(123.146127, 288.027594)"><g><path d="M 37.671875 -26.75 C 37.847656 -25.132812 37.9375 -22.957031 37.9375 -20.21875 L 37.9375 0 L 28.640625 0 L 28.640625 -18.9375 C 28.640625 -21.050781 28.59375 -22.710938 28.5 -23.921875 C 28.1875 -28.148438 25.894531 -30.265625 21.625 -30.265625 C 19.207031 -30.265625 17.253906 -29.128906 15.765625 -26.859375 C 14.285156 -24.585938 13.546875 -21.09375 13.546875 -16.375 L 13.546875 0 L 4.25 0 L 4.25 -35.859375 L 13.546875 -35.859375 L 13.546875 -30.0625 L 16.3125 -34.296875 C 18.644531 -35.960938 21.519531 -36.796875 24.9375 -36.796875 C 28.707031 -36.796875 31.679688 -35.914062 33.859375 -34.15625 C 36.035156 -32.40625 37.304688 -29.9375 37.671875 -26.75 Z M 37.671875 -26.75 "/></g></g></g><g fill="#000000" fill-opacity="1"><g transform="translate(160.674393, 288.027594)"><g><path d="M 37.671875 -26.75 C 37.847656 -25.132812 37.9375 -22.957031 37.9375 -20.21875 L 37.9375 0 L 28.640625 0 L 28.640625 -18.9375 C 28.640625 -21.050781 28.59375 -22.710938 28.5 -23.921875 C 28.1875 -28.148438 25.894531 -30.265625 21.625 -30.265625 C 19.207031 -30.210938 17.253906 -29.0625 15.765625 -26.8125 C 14.285156 -24.570312 13.546875 -21.09375 13.546875 -16.375 L 13.546875 0 L 4.25 0 L 4.25 -49.875 L 13.546875 -49.875 L 13.546875 -30.0625 L 16.3125 -34.296875 C 18.644531 -35.960938 21.519531 -36.796875 24.9375 -36.796875 C 28.707031 -36.796875 31.679688 -35.914062 33.859375 -34.15625 C 36.035156 -32.40625 37.304688 -29.9375 37.671875 -26.75 Z M 37.671875 -26.75 "/></g></g></g><g fill="#000000" fill-opacity="1"><g transform="translate(198.202658, 288.027594)"><g><path d="M 6.734375 -31.5625 C 10.015625 -35.050781 14.578125 -36.796875 20.421875 -36.796875 C 26.265625 -36.796875 30.820312 -35.050781 34.09375 -31.5625 C 37.375 -28.082031 39.015625 -23.535156 39.015625 -17.921875 C 39.015625 -12.347656 37.375 -7.8125 34.09375 -4.3125 C 30.820312 -0.8125 26.265625 0.9375 20.421875 0.9375 C 14.578125 0.9375 10.015625 -0.8125 6.734375 -4.3125 C 3.453125 -7.8125 1.8125 -12.347656 1.8125 -17.921875 C 1.8125 -23.535156 3.453125 -28.082031 6.734375 -31.5625 Z M 13.84375 -8.859375 C 15.4375 -6.679688 17.625 -5.59375 20.40625 -5.59375 C 23.195312 -5.59375 25.390625 -6.679688 26.984375 -8.859375 C 28.578125 -11.035156 29.375 -14.054688 29.375 -17.921875 C 29.375 -21.785156 28.578125 -24.804688 26.984375 -26.984375 C 25.390625 -29.171875 23.195312 -30.265625 20.40625 -30.265625 C 17.625 -30.265625 15.4375 -29.171875 13.84375 -26.984375 C 12.25 -24.804688 11.453125 -21.785156 11.453125 -17.921875 C 11.453125 -14.054688 12.25 -11.035156 13.84375 -8.859375 Z M 13.84375 -8.859375 "/></g></g></g><g fill="#000000" fill-opacity="1"><g transform="translate(234.720266, 288.027594)"><g/></g></g><g fill="#000000" fill-opacity="1"><g transform="translate(243.478402, 288.027594)"><g><path d="M 14.625 -40.4375 C 14.53125 -39.800781 14.484375 -38.765625 14.484375 -37.328125 L 14.484375 -35.578125 L 21.828125 -35.578125 L 21.828125 -29.453125 L 14.484375 -29.453125 L 14.484375 0 L 5.1875 0 L 5.1875 -29.453125 L 1.34375 -29.453125 L 1.34375 -35.578125 L 5.1875 -35.578125 L 5.1875 -37.0625 C 5.1875 -39 5.234375 -40.367188 5.328125 -41.171875 C 5.910156 -47.597656 10.242188 -50.8125 18.328125 -50.8125 C 19.679688 -50.8125 21.050781 -50.65625 22.4375 -50.34375 L 22.4375 -43.875 C 20.238281 -44.28125 18.429688 -44.175781 17.015625 -43.5625 C 15.597656 -42.957031 14.800781 -41.914062 14.625 -40.4375 Z M 14.625 -40.4375 "/></g></g></g><g fill="#000000" fill-opacity="1"><g transform="translate(261.93886, 288.027594)"><g><path d="M 5.1875 -47.8125 C 6.132812 -48.726562 7.367188 -49.1875 8.890625 -49.1875 C 10.421875 -49.1875 11.65625 -48.726562 12.59375 -47.8125 C 13.539062 -46.894531 14.015625 -45.71875 14.015625 -44.28125 C 14.015625 -42.789062 13.539062 -41.597656 12.59375 -40.703125 C 11.65625 -39.804688 10.421875 -39.359375 8.890625 -39.359375 C 7.367188 -39.359375 6.132812 -39.804688 5.1875 -40.703125 C 4.25 -41.597656 3.78125 -42.789062 3.78125 -44.28125 C 3.78125 -45.71875 4.25 -46.894531 5.1875 -47.8125 Z M 13.546875 0 L 4.25 0 L 4.25 -35.859375 L 13.546875 -35.859375 Z M 13.546875 0 "/></g></g></g><g fill="#000000" fill-opacity="1"><g transform="translate(275.548157, 288.027594)"><g><path d="M 37.671875 -26.75 C 37.847656 -25.132812 37.9375 -22.957031 37.9375 -20.21875 L 37.9375 0 L 28.640625 0 L 28.640625 -18.9375 C 28.640625 -21.050781 28.59375 -22.710938 28.5 -23.921875 C 28.1875 -28.148438 25.894531 -30.265625 21.625 -30.265625 C 19.207031 -30.265625 17.253906 -29.128906 15.765625 -26.859375 C 14.285156 -24.585938 13.546875 -21.09375 13.546875 -16.375 L 13.546875 0 L 4.25 0 L 4.25 -35.859375 L 13.546875 -35.859375 L 13.546875 -30.0625 L 16.3125 -34.296875 C 18.644531 -35.960938 21.519531 -36.796875 24.9375 -36.796875 C 28.707031 -36.796875 31.679688 -35.914062 33.859375 -34.15625 C 36.035156 -32.40625 37.304688 -29.9375 37.671875 -26.75 Z M 37.671875 -26.75 "/></g></g></g><g fill="#000000" fill-opacity="1"><g transform="translate(313.07641, 288.027594)"><g><path d="M 6.734375 -31.5625 C 10.015625 -35.050781 14.578125 -36.796875 20.421875 -36.796875 C 26.265625 -36.796875 30.820312 -35.050781 34.09375 -31.5625 C 37.375 -28.082031 39.015625 -23.535156 39.015625 -17.921875 C 39.015625 -12.347656 37.375 -7.8125 34.09375 -4.3125 C 30.820312 -0.8125 26.265625 0.9375 20.421875 0.9375 C 14.578125 0.9375 10.015625 -0.8125 6.734375 -4.3125 C 3.453125 -7.8125 1.8125 -12.347656 1.8125 -17.921875 C 1.8125 -23.535156 3.453125 -28.082031 6.734375 -31.5625 Z M 13.84375 -8.859375 C 15.4375 -6.679688 17.625 -5.59375 20.40625 -5.59375 C 23.195312 -5.59375 25.390625 -6.679688 26.984375 -8.859375 C 28.578125 -11.035156 29.375 -14.054688 29.375 -17.921875 C 29.375 -21.785156 28.578125 -24.804688 26.984375 -26.984375 C 25.390625 -29.171875 23.195312 -30.265625 20.40625 -30.265625 C 17.625 -30.265625 15.4375 -29.171875 13.84375 -26.984375 C 12.25 -24.804688 11.453125 -21.785156 11.453125 -17.921875 C 11.453125 -14.054688 12.25 -11.035156 13.84375 -8.859375 Z M 13.84375 -8.859375 "/></g></g></g></svg>
