<svg xmlns="http://www.w3.org/2000/svg" xmlns:xlink="http://www.w3.org/1999/xlink" width="414" zoomAndPan="magnify" viewBox="0 0 310.5 671.999985" height="896" preserveAspectRatio="xMidYMid meet" version="1.0"><defs><g/><clipPath id="00795fc957"><path d="M 0 0.539062 L 310 0.539062 L 310 671.457031 L 0 671.457031 Z M 0 0.539062 " clip-rule="nonzero"/></clipPath><clipPath id="1c7383f87c"><path d="M 31.078125 374.648438 L 279.300781 374.648438 L 279.300781 402.398438 L 31.078125 402.398438 Z M 31.078125 374.648438 " clip-rule="nonzero"/></clipPath><clipPath id="a3650fec01"><path d="M 265.589844 374.648438 C 273.144531 374.648438 279.269531 380.859375 279.269531 388.523438 C 279.269531 396.1875 273.144531 402.398438 265.589844 402.398438 L 44.757812 402.398438 C 37.203125 402.398438 31.078125 396.1875 31.078125 388.523438 C 31.078125 380.859375 37.203125 374.648438 44.757812 374.648438 L 265.589844 374.648438 " clip-rule="nonzero"/></clipPath><clipPath id="5ba44b32ea"><path d="M 31.28125 413.59375 L 279.683594 413.59375 L 279.683594 440.976562 L 31.28125 440.976562 Z M 31.28125 413.59375 " clip-rule="nonzero"/></clipPath><clipPath id="f662a11372"><path d="M 265.992188 413.59375 C 273.554688 413.59375 279.683594 419.722656 279.683594 427.285156 C 279.683594 434.847656 273.554688 440.976562 265.992188 440.976562 L 44.972656 440.976562 C 37.414062 440.976562 31.28125 434.847656 31.28125 427.285156 C 31.28125 419.722656 37.414062 413.59375 44.972656 413.59375 L 265.992188 413.59375 " clip-rule="nonzero"/></clipPath><clipPath id="21c0354be4"><path d="M 130.539062 260 L 168 260 L 168 289.089844 L 130.539062 289.089844 Z M 130.539062 260 " clip-rule="nonzero"/></clipPath><clipPath id="5bdcc96f8f"><path d="M 154 238.089844 L 180.789062 238.089844 L 180.789062 289.089844 L 154 289.089844 Z M 154 238.089844 " clip-rule="nonzero"/></clipPath><clipPath id="838fbcd489"><path d="M 18 23 L 64 23 L 64 62.519531 L 18 62.519531 Z M 18 23 " clip-rule="nonzero"/></clipPath></defs><g clip-path="url(#00795fc957)"><path fill="#ffffff" d="M 0 0.539062 L 310.5 0.539062 L 310.5 672.539062 L 0 672.539062 Z M 0 0.539062 " fill-opacity="1" fill-rule="nonzero"/><path fill="#fbfbfb" d="M 0 0.539062 L 310.5 0.539062 L 310.5 672.539062 L 0 672.539062 Z M 0 0.539062 " fill-opacity="1" fill-rule="nonzero"/></g><g clip-path="url(#1c7383f87c)"><g clip-path="url(#a3650fec01)"><path stroke-linecap="butt" transform="matrix(0.749575, 0, 0, 0.760274, 31.079467, 374.648289)" fill="none" stroke-linejoin="miter" d="M 312.857664 0.000194924 C 322.936288 0.000194924 331.107582 8.169537 331.107582 18.250196 C 331.107582 28.330855 322.936288 36.500197 312.857664 36.500197 L 18.248128 36.500197 C 8.169504 36.500197 -0.00178983 28.330855 -0.00178983 18.250196 C -0.00178983 8.169537 8.169504 0.000194924 18.248128 0.000194924 L 312.857664 0.000194924 " stroke="#b7b0dd" stroke-width="4" stroke-opacity="1" stroke-miterlimit="4"/></g></g><g clip-path="url(#5ba44b32ea)"><g clip-path="url(#f662a11372)"><path fill="#3b3b3b" d="M 31.28125 413.59375 L 279.683594 413.59375 L 279.683594 440.976562 L 31.28125 440.976562 Z M 31.28125 413.59375 " fill-opacity="1" fill-rule="nonzero"/></g></g><path fill="#3b3b3b" d="M 149.207031 242.339844 C 141.28125 242.339844 134.855469 248.679688 134.855469 256.503906 L 134.855469 270.671875 L 140.597656 270.671875 L 140.597656 256.503906 C 140.597656 251.8125 144.453125 248.003906 149.207031 248.003906 C 153.960938 248.003906 157.816406 251.8125 157.816406 256.503906 L 157.816406 270.671875 L 163.558594 270.671875 L 163.558594 256.503906 C 163.558594 248.679688 157.132812 242.339844 149.207031 242.339844 Z M 149.207031 242.339844 " fill-opacity="1" fill-rule="nonzero"/><g clip-path="url(#21c0354be4)"><path fill="#3b3b3b" d="M 167.863281 283.421875 C 167.863281 286.550781 165.292969 289.089844 162.125 289.089844 L 136.289062 289.089844 C 133.121094 289.089844 130.550781 286.550781 130.550781 283.421875 L 130.550781 266.421875 C 130.550781 263.292969 133.121094 260.753906 136.289062 260.753906 L 162.125 260.753906 C 165.292969 260.753906 167.863281 263.292969 167.863281 266.421875 Z M 167.863281 283.421875 " fill-opacity="1" fill-rule="nonzero"/></g><g clip-path="url(#5bdcc96f8f)"><path fill="#b7b0dd" d="M 180.78125 250.839844 C 180.78125 243.796875 175 238.089844 167.863281 238.089844 C 160.730469 238.089844 154.949219 243.796875 154.949219 250.839844 C 154.949219 256.386719 158.546875 261.09375 163.558594 262.847656 L 163.558594 285.546875 C 163.558594 287.503906 165.164062 289.089844 167.148438 289.089844 C 168.886719 289.089844 170.335938 287.863281 170.664062 286.242188 C 170.6875 286.242188 170.710938 286.253906 170.734375 286.253906 C 171.527344 286.253906 172.171875 285.621094 172.171875 284.839844 L 172.171875 283.421875 C 172.171875 282.636719 171.527344 282.003906 170.734375 282.003906 L 170.734375 280.589844 C 171.527344 280.589844 172.171875 279.953125 172.171875 279.171875 L 172.171875 276.339844 C 172.171875 275.554688 171.527344 274.921875 170.734375 274.921875 L 170.734375 271.695312 C 171.589844 271.203125 172.171875 270.300781 172.171875 269.253906 L 172.171875 262.847656 C 177.183594 261.097656 180.78125 256.386719 180.78125 250.839844 Z M 167.863281 240.921875 C 169.449219 240.921875 170.734375 242.191406 170.734375 243.753906 C 170.734375 245.320312 169.449219 246.589844 167.863281 246.589844 C 166.28125 246.589844 164.992188 245.320312 164.992188 243.753906 C 164.992188 242.191406 166.28125 240.921875 167.863281 240.921875 Z M 167.863281 240.921875 " fill-opacity="1" fill-rule="nonzero"/></g><g fill="#3b3b3b" fill-opacity="1"><g transform="translate(101.090524, 181.72408)"><g><path d="M 12.089844 0.488281 C 20.125 0.488281 22.988281 -4.71875 22.988281 -10.109375 C 22.988281 -15.40625 20.125 -20.765625 12.089844 -20.765625 C 4.109375 -20.765625 1.21875 -15.4375 1.21875 -10.109375 C 1.21875 -4.6875 4.109375 0.488281 12.089844 0.488281 Z M 6.820312 -10.109375 C 6.820312 -14.128906 7.917969 -16.382812 12.089844 -16.382812 C 16.320312 -16.382812 17.386719 -14.128906 17.386719 -10.109375 C 17.386719 -6.152344 16.320312 -3.867188 12.089844 -3.867188 C 7.917969 -3.867188 6.820312 -6.152344 6.820312 -10.109375 Z M 6.820312 -10.109375 "/></g></g></g><g fill="#3b3b3b" fill-opacity="1"><g transform="translate(125.293437, 181.72408)"><g><path d="M 9.714844 0.488281 C 16.167969 0.488281 18.453125 -3.53125 18.453125 -7.613281 C 18.453125 -11.691406 16.167969 -15.710938 9.714844 -15.710938 C 3.257812 -15.710938 1.003906 -11.691406 1.003906 -7.613281 C 1.003906 -3.5 3.257812 0.488281 9.714844 0.488281 Z M 6.242188 -7.613281 C 6.242188 -10.65625 7.214844 -11.632812 9.714844 -11.632812 C 12.210938 -11.632812 13.183594 -10.65625 13.183594 -7.613281 C 13.183594 -4.566406 12.210938 -3.59375 9.714844 -3.59375 C 7.214844 -3.59375 6.242188 -4.566406 6.242188 -7.613281 Z M 6.242188 -7.613281 "/></g></g></g><g fill="#3b3b3b" fill-opacity="1"><g transform="translate(144.716657, 181.72408)"><g><path d="M 12.089844 -15.710938 C 9.5 -15.710938 7.765625 -14.765625 6.730469 -13.152344 L 6.730469 -15.222656 L 1.492188 -15.222656 L 1.492188 6.089844 L 6.730469 6.089844 L 6.730469 -2.132812 C 7.765625 -0.488281 9.5 0.488281 12.089844 0.488281 C 17.082031 0.488281 19.0625 -3.347656 19.0625 -7.582031 C 19.0625 -11.964844 17.082031 -15.710938 12.089844 -15.710938 Z M 10.320312 -3.59375 C 7.640625 -3.59375 6.730469 -4.902344 6.730469 -7.613281 C 6.730469 -10.320312 7.640625 -11.632812 10.320312 -11.632812 C 12.910156 -11.632812 13.824219 -10.445312 13.824219 -7.613281 C 13.824219 -4.78125 12.910156 -3.59375 10.320312 -3.59375 Z M 10.320312 -3.59375 "/></g></g></g><g fill="#3b3b3b" fill-opacity="1"><g transform="translate(164.718315, 181.72408)"><g><path d="M 12.089844 -15.710938 C 9.5 -15.710938 7.765625 -14.765625 6.730469 -13.152344 L 6.730469 -15.222656 L 1.492188 -15.222656 L 1.492188 6.089844 L 6.730469 6.089844 L 6.730469 -2.132812 C 7.765625 -0.488281 9.5 0.488281 12.089844 0.488281 C 17.082031 0.488281 19.0625 -3.347656 19.0625 -7.582031 C 19.0625 -11.964844 17.082031 -15.710938 12.089844 -15.710938 Z M 10.320312 -3.59375 C 7.640625 -3.59375 6.730469 -4.902344 6.730469 -7.613281 C 6.730469 -10.320312 7.640625 -11.632812 10.320312 -11.632812 C 12.910156 -11.632812 13.824219 -10.445312 13.824219 -7.613281 C 13.824219 -4.78125 12.910156 -3.59375 10.320312 -3.59375 Z M 10.320312 -3.59375 "/></g></g></g><g fill="#3b3b3b" fill-opacity="1"><g transform="translate(184.719973, 181.72408)"><g><path d="M 0.667969 -4.902344 C 0.792969 -2.101562 2.863281 0.488281 8.433594 0.488281 C 14.097656 0.488281 15.894531 -1.796875 15.894531 -4.6875 C 15.894531 -7.613281 14.402344 -9.074219 10.808594 -9.4375 L 7.671875 -9.742188 C 6.242188 -9.894531 5.875 -10.472656 5.875 -11.113281 C 5.875 -11.964844 6.546875 -12.605469 8.3125 -12.605469 C 9.988281 -12.605469 10.808594 -11.90625 10.960938 -10.71875 L 15.710938 -10.71875 C 15.40625 -14.28125 12.484375 -15.710938 8.28125 -15.710938 C 4.203125 -15.710938 1.097656 -14.25 1.097656 -10.625 C 1.097656 -7.976562 2.679688 -6.394531 5.632812 -6.058594 L 8.859375 -5.695312 C 10.625 -5.480469 10.902344 -4.839844 10.902344 -4.078125 C 10.902344 -3.195312 10.230469 -2.648438 8.527344 -2.648438 C 6.578125 -2.648438 5.542969 -3.652344 5.417969 -4.902344 Z M 0.667969 -4.902344 "/></g></g></g><g fill="#3b3b3b" fill-opacity="1"><g transform="translate(201.403247, 181.72408)"><g><path d="M 2.253906 -6.851562 L 5.722656 -6.851562 L 6.636719 -20.25 L 1.339844 -20.25 Z M 1.523438 0 L 6.453125 0 L 6.453125 -4.566406 L 1.523438 -4.566406 Z M 1.523438 0 "/></g></g></g><g fill="#b7b0dd" fill-opacity="1"><g transform="translate(115.722945, 210.661866)"><g><path d="M 3.203125 -1.421875 L 3.203125 -6.554688 L 11.238281 -6.554688 L 11.238281 -7.953125 L 3.203125 -7.953125 L 3.203125 -12.683594 L 11.875 -12.683594 L 11.875 -14.101562 L 1.441406 -14.101562 L 1.441406 0 L 11.941406 0 L 11.941406 -1.421875 Z M 3.203125 -1.421875 "/></g></g></g><g fill="#b7b0dd" fill-opacity="1"><g transform="translate(128.998169, 210.661866)"><g><path d="M 0.804688 -3.542969 C 0.847656 -1.316406 2.246094 0.339844 5.703125 0.339844 C 8.527344 0.339844 10.03125 -0.722656 10.03125 -2.882812 C 10.03125 -4.625 9.140625 -5.664062 6.703125 -6.023438 L 4.453125 -6.339844 C 3.117188 -6.53125 2.734375 -7.167969 2.734375 -7.910156 C 2.734375 -8.949219 3.476562 -9.671875 5.28125 -9.671875 C 7.230469 -9.671875 8.039062 -8.675781 8.144531 -7.570312 L 9.820312 -7.570312 C 9.691406 -9.566406 8.101562 -10.964844 5.324219 -10.964844 C 2.652344 -10.964844 1.082031 -9.753906 1.082031 -7.785156 C 1.082031 -6.148438 2.121094 -5.175781 3.964844 -4.921875 L 6.425781 -4.558594 C 7.761719 -4.367188 8.355469 -3.816406 8.355469 -2.800781 C 8.355469 -1.613281 7.613281 -0.953125 5.746094 -0.953125 C 3.308594 -0.953125 2.503906 -2.097656 2.375 -3.542969 Z M 0.804688 -3.542969 "/></g></g></g><g fill="#b7b0dd" fill-opacity="1"><g transform="translate(139.940695, 210.661866)"><g><path d="M 9.902344 -10.605469 L 9.902344 -8.566406 C 9.183594 -10.074219 7.847656 -10.941406 5.894531 -10.941406 C 2.566406 -10.941406 1.039062 -8.546875 1.039062 -5.300781 C 1.039062 -2.035156 2.566406 0.339844 5.894531 0.339844 C 7.847656 0.339844 9.183594 -0.507812 9.902344 -2.015625 L 9.902344 4.242188 L 11.601562 4.242188 L 11.601562 -10.605469 Z M 6.234375 -1.039062 C 3.816406 -1.039062 2.757812 -2.4375 2.757812 -5.300781 C 2.757812 -8.144531 3.816406 -9.566406 6.234375 -9.566406 C 8.484375 -9.566406 9.902344 -8.292969 9.902344 -5.300781 C 9.902344 -2.3125 8.484375 -1.039062 6.234375 -1.039062 Z M 6.234375 -1.039062 "/></g></g></g><g fill="#b7b0dd" fill-opacity="1"><g transform="translate(153.046272, 210.661866)"><g><path d="M 9.160156 -10.605469 L 9.160156 -6.554688 C 9.160156 -3.03125 7.910156 -1.058594 5.703125 -1.058594 C 4.070312 -1.058594 3.03125 -1.675781 3.03125 -4.03125 L 3.03125 -10.605469 L 1.335938 -10.605469 L 1.335938 -3.839844 C 1.335938 -1.058594 2.546875 0.339844 5.21875 0.339844 C 7.273438 0.339844 8.527344 -0.804688 9.160156 -2.695312 L 9.160156 0 L 10.859375 0 L 10.859375 -10.605469 Z M 9.160156 -10.605469 "/></g></g></g><g fill="#b7b0dd" fill-opacity="1"><g transform="translate(165.452034, 210.661866)"><g><path d="M 6.339844 -0.953125 C 4.21875 -0.953125 2.820312 -2.015625 2.695312 -4.921875 L 11.21875 -4.921875 C 11.261719 -5.175781 11.261719 -5.386719 11.261719 -5.664062 C 11.261719 -8.757812 9.457031 -10.941406 6.277344 -10.941406 C 2.757812 -10.941406 1.019531 -8.484375 1.019531 -5.324219 C 1.019531 -2.121094 2.628906 0.339844 6.277344 0.339844 C 9.796875 0.339844 11.027344 -1.652344 11.238281 -3.265625 L 9.691406 -3.265625 C 9.375 -1.929688 8.417969 -0.953125 6.339844 -0.953125 Z M 6.296875 -9.648438 C 8.269531 -9.648438 9.523438 -8.632812 9.605469 -6.191406 L 2.734375 -6.191406 C 2.96875 -8.695312 4.285156 -9.648438 6.296875 -9.648438 Z M 6.296875 -9.648438 "/></g></g></g><g fill="#b7b0dd" fill-opacity="1"><g transform="translate(177.666941, 210.661866)"><g><path d="M 1.019531 -5.300781 C 1.019531 -2.058594 2.84375 0.339844 6.320312 0.339844 C 9.542969 0.339844 11.261719 -1.613281 11.390625 -4.050781 L 9.777344 -4.050781 C 9.566406 -2.246094 8.460938 -1.039062 6.320312 -1.039062 C 4.09375 -1.039062 2.734375 -2.226562 2.734375 -5.300781 C 2.734375 -8.355469 4.136719 -9.566406 6.382812 -9.566406 C 8.355469 -9.566406 9.417969 -8.460938 9.671875 -6.722656 L 11.261719 -6.722656 C 11.089844 -9.183594 9.5 -10.941406 6.320312 -10.941406 C 2.882812 -10.941406 1.019531 -8.546875 1.019531 -5.300781 Z M 1.019531 -5.300781 "/></g></g></g><g fill="#b7b0dd" fill-opacity="1"><g transform="translate(189.945471, 210.661866)"><g><path d="M 1.316406 -12.34375 L 3.5 -12.34375 L 3.5 -14.101562 L 1.316406 -14.101562 Z M 1.546875 0 L 3.246094 0 L 3.246094 -10.605469 L 1.546875 -10.605469 Z M 1.546875 0 "/></g></g></g><g fill="#b7b0dd" fill-opacity="1"><g transform="translate(40.64623, 390.589493)"><g><path d="M 0.667969 -2.378906 C 0.667969 -0.75 1.507812 0.160156 3.371094 0.160156 C 5.21875 0.160156 6.070312 -0.761719 6.070312 -2.378906 L 6.070312 -6.648438 L 5.238281 -6.648438 L 5.238281 -2.480469 C 5.238281 -0.960938 4.609375 -0.53125 3.371094 -0.53125 C 2.128906 -0.53125 1.488281 -0.960938 1.488281 -2.480469 L 1.488281 -6.648438 L 0.667969 -6.648438 Z M 0.667969 -2.378906 "/></g></g></g><g fill="#b7b0dd" fill-opacity="1"><g transform="translate(47.37357, 390.589493)"><g><path d="M 0.378906 -1.667969 C 0.398438 -0.621094 1.058594 0.160156 2.6875 0.160156 C 4.019531 0.160156 4.730469 -0.339844 4.730469 -1.359375 C 4.730469 -2.179688 4.308594 -2.667969 3.160156 -2.839844 L 2.097656 -2.988281 C 1.46875 -3.078125 1.289062 -3.378906 1.289062 -3.730469 C 1.289062 -4.21875 1.640625 -4.558594 2.488281 -4.558594 C 3.410156 -4.558594 3.789062 -4.089844 3.839844 -3.570312 L 4.628906 -3.570312 C 4.570312 -4.507812 3.820312 -5.167969 2.507812 -5.167969 C 1.25 -5.167969 0.511719 -4.597656 0.511719 -3.667969 C 0.511719 -2.898438 1 -2.4375 1.871094 -2.320312 L 3.027344 -2.148438 C 3.660156 -2.058594 3.9375 -1.800781 3.9375 -1.320312 C 3.9375 -0.761719 3.589844 -0.449219 2.710938 -0.449219 C 1.558594 -0.449219 1.179688 -0.988281 1.121094 -1.667969 Z M 0.378906 -1.667969 "/></g></g></g><g fill="#b7b0dd" fill-opacity="1"><g transform="translate(52.531537, 390.589493)"><g><path d="M 4.320312 -5 L 4.320312 -3.089844 C 4.320312 -1.429688 3.730469 -0.5 2.6875 -0.5 C 1.917969 -0.5 1.429688 -0.789062 1.429688 -1.898438 L 1.429688 -5 L 0.628906 -5 L 0.628906 -1.808594 C 0.628906 -0.5 1.199219 0.160156 2.460938 0.160156 C 3.429688 0.160156 4.019531 -0.378906 4.320312 -1.269531 L 4.320312 0 L 5.117188 0 L 5.117188 -5 Z M 4.320312 -5 "/></g></g></g><g fill="#b7b0dd" fill-opacity="1"><g transform="translate(58.379227, 390.589493)"><g><path d="M 3.960938 -6.238281 L 3.71875 -6.847656 L 1.621094 -5.917969 L 1.757812 -5.609375 Z M 2.230469 0.128906 C 3.390625 0.128906 3.917969 -0.570312 4.109375 -1.167969 C 4.109375 -0.800781 4.140625 -0.429688 4.179688 0 L 4.910156 0 C 4.859375 -0.488281 4.847656 -0.878906 4.847656 -1.238281 L 4.847656 -3.640625 C 4.847656 -4.539062 4.230469 -5.167969 2.859375 -5.167969 C 1.480469 -5.167969 0.730469 -4.488281 0.699219 -3.429688 L 1.488281 -3.429688 C 1.539062 -4.078125 1.910156 -4.539062 2.890625 -4.539062 C 3.859375 -4.539062 4.117188 -4.148438 4.117188 -3.640625 C 4.117188 -3.257812 3.898438 -3.121094 3.371094 -3.027344 L 2.097656 -2.820312 C 1.019531 -2.640625 0.578125 -2.128906 0.578125 -1.320312 C 0.578125 -0.371094 1.269531 0.128906 2.230469 0.128906 Z M 2.390625 -0.5 C 1.800781 -0.5 1.390625 -0.78125 1.390625 -1.351562 C 1.390625 -1.890625 1.710938 -2.148438 2.390625 -2.289062 L 3.21875 -2.460938 C 3.597656 -2.539062 3.867188 -2.621094 4.117188 -2.800781 L 4.117188 -2.371094 C 4.117188 -1.417969 3.570312 -0.5 2.390625 -0.5 Z M 2.390625 -0.5 "/></g></g></g><g fill="#b7b0dd" fill-opacity="1"><g transform="translate(63.857067, 390.589493)"><g><path d="M 3.359375 -5.070312 C 2.410156 -5.070312 1.828125 -4.507812 1.53125 -3.679688 L 1.53125 -5 L 0.730469 -5 L 0.730469 0 L 1.53125 0 L 1.53125 -1.839844 C 1.53125 -3.25 1.847656 -4.328125 3.328125 -4.277344 L 3.539062 -4.277344 L 3.539062 -5.070312 Z M 3.359375 -5.070312 "/></g></g></g><g fill="#b7b0dd" fill-opacity="1"><g transform="translate(67.705543, 390.589493)"><g><path d="M 0.621094 -5.820312 L 1.648438 -5.820312 L 1.648438 -6.648438 L 0.621094 -6.648438 Z M 0.730469 0 L 1.53125 0 L 1.53125 -5 L 0.730469 -5 Z M 0.730469 0 "/></g></g></g><g fill="#b7b0dd" fill-opacity="1"><g transform="translate(69.974643, 390.589493)"><g><path d="M 3 0.160156 C 4.679688 0.160156 5.507812 -1.007812 5.507812 -2.507812 C 5.507812 -3.988281 4.679688 -5.160156 3 -5.160156 C 1.308594 -5.160156 0.480469 -4 0.480469 -2.507812 C 0.480469 -1 1.308594 0.160156 3 0.160156 Z M 1.289062 -2.5 C 1.289062 -3.910156 1.871094 -4.507812 3 -4.507812 C 4.128906 -4.507812 4.699219 -3.910156 4.699219 -2.5 C 4.699219 -1.101562 4.128906 -0.488281 3 -0.488281 C 1.871094 -0.488281 1.289062 -1.101562 1.289062 -2.5 Z M 1.289062 -2.5 "/></g></g></g><g fill="#b7b0dd" fill-opacity="1"><g transform="translate(75.962283, 390.589493)"><g><path d="M 0.210938 -0.0390625 L 0.71875 -0.0390625 L 0.71875 0.808594 L 0.210938 0.808594 L 0.210938 1.328125 L 0.417969 1.328125 C 0.988281 1.328125 1.238281 1.128906 1.238281 0.578125 L 1.238281 -0.878906 L 0.210938 -0.878906 Z M 0.210938 -0.0390625 "/></g></g></g><g fill="#b7b0dd" fill-opacity="1"><g transform="translate(77.411711, 390.589493)"><g/></g></g><g fill="#b7b0dd" fill-opacity="1"><g transform="translate(79.660818, 390.589493)"><g><path d="M 2.988281 -0.449219 C 1.988281 -0.449219 1.328125 -0.949219 1.269531 -2.320312 L 5.289062 -2.320312 C 5.308594 -2.4375 5.308594 -2.539062 5.308594 -2.667969 C 5.308594 -4.128906 4.457031 -5.160156 2.960938 -5.160156 C 1.300781 -5.160156 0.480469 -4 0.480469 -2.507812 C 0.480469 -1 1.238281 0.160156 2.960938 0.160156 C 4.617188 0.160156 5.199219 -0.78125 5.296875 -1.539062 L 4.570312 -1.539062 C 4.417969 -0.910156 3.96875 -0.449219 2.988281 -0.449219 Z M 2.96875 -4.550781 C 3.898438 -4.550781 4.488281 -4.070312 4.527344 -2.917969 L 1.289062 -2.917969 C 1.398438 -4.097656 2.019531 -4.550781 2.96875 -4.550781 Z M 2.96875 -4.550781 "/></g></g></g><g fill="#b7b0dd" fill-opacity="1"><g transform="translate(85.418547, 390.589493)"><g><path d="M 6.859375 -5.160156 C 5.859375 -5.160156 5.277344 -4.628906 4.988281 -3.75 C 4.847656 -4.679688 4.320312 -5.160156 3.347656 -5.160156 C 2.390625 -5.160156 1.820312 -4.628906 1.53125 -3.769531 L 1.53125 -5 L 0.730469 -5 L 0.730469 0 L 1.53125 0 L 1.53125 -1.910156 C 1.53125 -3.628906 2.03125 -4.488281 3.097656 -4.488281 C 3.828125 -4.488281 4.25 -4.140625 4.25 -3.128906 L 4.25 0 L 5.027344 0 L 5.027344 -1.910156 C 5.027344 -3.628906 5.519531 -4.488281 6.609375 -4.488281 C 7.339844 -4.488281 7.75 -4.140625 7.75 -3.128906 L 7.75 0 L 8.546875 0 L 8.546875 -3.21875 C 8.546875 -4.5 7.996094 -5.160156 6.859375 -5.160156 Z M 6.859375 -5.160156 "/></g></g></g><g fill="#b7b0dd" fill-opacity="1"><g transform="translate(94.594922, 390.589493)"><g><path d="M 2.230469 0.128906 C 3.390625 0.128906 3.917969 -0.570312 4.109375 -1.167969 C 4.109375 -0.800781 4.140625 -0.429688 4.179688 0 L 4.910156 0 C 4.859375 -0.488281 4.847656 -0.878906 4.847656 -1.238281 L 4.847656 -3.640625 C 4.847656 -4.539062 4.230469 -5.167969 2.859375 -5.167969 C 1.480469 -5.167969 0.730469 -4.488281 0.699219 -3.429688 L 1.488281 -3.429688 C 1.539062 -4.078125 1.910156 -4.539062 2.890625 -4.539062 C 3.859375 -4.539062 4.117188 -4.148438 4.117188 -3.640625 C 4.117188 -3.257812 3.898438 -3.121094 3.371094 -3.027344 L 2.097656 -2.820312 C 1.019531 -2.640625 0.578125 -2.128906 0.578125 -1.320312 C 0.578125 -0.371094 1.269531 0.128906 2.230469 0.128906 Z M 2.390625 -0.5 C 1.800781 -0.5 1.390625 -0.78125 1.390625 -1.351562 C 1.390625 -1.890625 1.710938 -2.148438 2.390625 -2.289062 L 3.21875 -2.460938 C 3.597656 -2.539062 3.867188 -2.621094 4.117188 -2.800781 L 4.117188 -2.371094 C 4.117188 -1.417969 3.570312 -0.5 2.390625 -0.5 Z M 2.390625 -0.5 "/></g></g></g><g fill="#b7b0dd" fill-opacity="1"><g transform="translate(100.072762, 390.589493)"><g><path d="M 0.621094 -5.820312 L 1.648438 -5.820312 L 1.648438 -6.648438 L 0.621094 -6.648438 Z M 0.730469 0 L 1.53125 0 L 1.53125 -5 L 0.730469 -5 Z M 0.730469 0 "/></g></g></g><g fill="#b7b0dd" fill-opacity="1"><g transform="translate(102.341862, 390.589493)"><g><path d="M 0.71875 0 L 1.519531 0 L 1.519531 -7 L 0.71875 -7 Z M 0.71875 0 "/></g></g></g><g fill="#b7b0dd" fill-opacity="1"><g transform="translate(104.580979, 390.589493)"><g/></g></g><g fill="#b7b0dd" fill-opacity="1"><g transform="translate(106.830086, 390.589493)"><g><path d="M 3 0.160156 C 4.679688 0.160156 5.507812 -1.007812 5.507812 -2.507812 C 5.507812 -3.988281 4.679688 -5.160156 3 -5.160156 C 1.308594 -5.160156 0.480469 -4 0.480469 -2.507812 C 0.480469 -1 1.308594 0.160156 3 0.160156 Z M 1.289062 -2.5 C 1.289062 -3.910156 1.871094 -4.507812 3 -4.507812 C 4.128906 -4.507812 4.699219 -3.910156 4.699219 -2.5 C 4.699219 -1.101562 4.128906 -0.488281 3 -0.488281 C 1.871094 -0.488281 1.289062 -1.101562 1.289062 -2.5 Z M 1.289062 -2.5 "/></g></g></g><g fill="#b7b0dd" fill-opacity="1"><g transform="translate(112.817726, 390.589493)"><g><path d="M 4.320312 -5 L 4.320312 -3.089844 C 4.320312 -1.429688 3.730469 -0.5 2.6875 -0.5 C 1.917969 -0.5 1.429688 -0.789062 1.429688 -1.898438 L 1.429688 -5 L 0.628906 -5 L 0.628906 -1.808594 C 0.628906 -0.5 1.199219 0.160156 2.460938 0.160156 C 3.429688 0.160156 4.019531 -0.378906 4.320312 -1.269531 L 4.320312 0 L 5.117188 0 L 5.117188 -5 Z M 4.320312 -5 "/></g></g></g><g fill="#b7b0dd" fill-opacity="1"><g transform="translate(118.665416, 390.589493)"><g/></g></g><g fill="#b7b0dd" fill-opacity="1"><g transform="translate(120.914523, 390.589493)"><g><path d="M 2.359375 0 L 3.539062 0 L 3.539062 -0.648438 L 1.949219 -0.648438 L 1.949219 -4.367188 L 3.597656 -4.367188 L 3.597656 -5 L 1.949219 -5 L 1.949219 -6.109375 L 1.519531 -6.109375 L 1.21875 -5.070312 L 0.199219 -4.820312 L 0.199219 -4.367188 L 1.148438 -4.367188 L 1.148438 -1.167969 C 1.148438 -0.371094 1.398438 0 2.359375 0 Z M 2.359375 0 "/></g></g></g><g fill="#b7b0dd" fill-opacity="1"><g transform="translate(124.822978, 390.589493)"><g><path d="M 2.988281 -0.449219 C 1.988281 -0.449219 1.328125 -0.949219 1.269531 -2.320312 L 5.289062 -2.320312 C 5.308594 -2.4375 5.308594 -2.539062 5.308594 -2.667969 C 5.308594 -4.128906 4.457031 -5.160156 2.960938 -5.160156 C 1.300781 -5.160156 0.480469 -4 0.480469 -2.507812 C 0.480469 -1 1.238281 0.160156 2.960938 0.160156 C 4.617188 0.160156 5.199219 -0.78125 5.296875 -1.539062 L 4.570312 -1.539062 C 4.417969 -0.910156 3.96875 -0.449219 2.988281 -0.449219 Z M 2.96875 -4.550781 C 3.898438 -4.550781 4.488281 -4.070312 4.527344 -2.917969 L 1.289062 -2.917969 C 1.398438 -4.097656 2.019531 -4.550781 2.96875 -4.550781 Z M 2.96875 -4.550781 "/></g></g></g><g fill="#b7b0dd" fill-opacity="1"><g transform="translate(130.580706, 390.589493)"><g><path d="M 0.71875 0 L 1.519531 0 L 1.519531 -7 L 0.71875 -7 Z M 0.71875 0 "/></g></g></g><g fill="#b7b0dd" fill-opacity="1"><g transform="translate(132.819822, 390.589493)"><g><path d="M 2.988281 -0.449219 C 1.988281 -0.449219 1.328125 -0.949219 1.269531 -2.320312 L 5.289062 -2.320312 C 5.308594 -2.4375 5.308594 -2.539062 5.308594 -2.667969 C 5.308594 -4.128906 4.457031 -5.160156 2.960938 -5.160156 C 1.300781 -5.160156 0.480469 -4 0.480469 -2.507812 C 0.480469 -1 1.238281 0.160156 2.960938 0.160156 C 4.617188 0.160156 5.199219 -0.78125 5.296875 -1.539062 L 4.570312 -1.539062 C 4.417969 -0.910156 3.96875 -0.449219 2.988281 -0.449219 Z M 2.96875 -4.550781 C 3.898438 -4.550781 4.488281 -4.070312 4.527344 -2.917969 L 1.289062 -2.917969 C 1.398438 -4.097656 2.019531 -4.550781 2.96875 -4.550781 Z M 2.96875 -4.550781 "/></g></g></g><g fill="#b7b0dd" fill-opacity="1"><g transform="translate(138.577551, 390.589493)"><g><path d="M 1.148438 0 L 1.949219 0 L 1.949219 -4.367188 L 3.410156 -4.367188 L 3.410156 -5 L 1.890625 -5 L 1.890625 -6.386719 L 3.6875 -6.386719 L 3.6875 -7 L 2.417969 -7 C 1.460938 -7 1.148438 -6.660156 1.148438 -5.988281 L 1.148438 -5.027344 L 0.308594 -4.820312 L 0.308594 -4.367188 L 1.148438 -4.367188 Z M 1.148438 0 "/></g></g></g><g fill="#b7b0dd" fill-opacity="1"><g transform="translate(142.266095, 390.589493)"><g><path d="M 3 0.160156 C 4.679688 0.160156 5.507812 -1.007812 5.507812 -2.507812 C 5.507812 -3.988281 4.679688 -5.160156 3 -5.160156 C 1.308594 -5.160156 0.480469 -4 0.480469 -2.507812 C 0.480469 -1 1.308594 0.160156 3 0.160156 Z M 1.289062 -2.5 C 1.289062 -3.910156 1.871094 -4.507812 3 -4.507812 C 4.128906 -4.507812 4.699219 -3.910156 4.699219 -2.5 C 4.699219 -1.101562 4.128906 -0.488281 3 -0.488281 C 1.871094 -0.488281 1.289062 -1.101562 1.289062 -2.5 Z M 1.289062 -2.5 "/></g></g></g><g fill="#b7b0dd" fill-opacity="1"><g transform="translate(148.253735, 390.589493)"><g><path d="M 3.449219 -5.160156 C 2.460938 -5.160156 1.839844 -4.597656 1.53125 -3.6875 L 1.53125 -5 L 0.730469 -5 L 0.730469 0 L 1.53125 0 L 1.53125 -1.910156 C 1.53125 -3.628906 2.121094 -4.488281 3.230469 -4.488281 C 3.960938 -4.488281 4.429688 -4.167969 4.429688 -3.097656 L 4.429688 0 L 5.230469 0 L 5.230469 -3.1875 C 5.230469 -4.480469 4.699219 -5.160156 3.449219 -5.160156 Z M 3.449219 -5.160156 "/></g></g></g><g fill="#b7b0dd" fill-opacity="1"><g transform="translate(154.111428, 390.589493)"><g><path d="M 2.988281 -0.449219 C 1.988281 -0.449219 1.328125 -0.949219 1.269531 -2.320312 L 5.289062 -2.320312 C 5.308594 -2.4375 5.308594 -2.539062 5.308594 -2.667969 C 5.308594 -4.128906 4.457031 -5.160156 2.960938 -5.160156 C 1.300781 -5.160156 0.480469 -4 0.480469 -2.507812 C 0.480469 -1 1.238281 0.160156 2.960938 0.160156 C 4.617188 0.160156 5.199219 -0.78125 5.296875 -1.539062 L 4.570312 -1.539062 C 4.417969 -0.910156 3.96875 -0.449219 2.988281 -0.449219 Z M 2.96875 -4.550781 C 3.898438 -4.550781 4.488281 -4.070312 4.527344 -2.917969 L 1.289062 -2.917969 C 1.398438 -4.097656 2.019531 -4.550781 2.96875 -4.550781 Z M 2.96875 -4.550781 "/></g></g></g><g fill="#b7b0dd" fill-opacity="1"><g transform="translate(61.506064, 316.871993)"><g><path d="M 1.507812 -0.667969 L 1.507812 -3.089844 L 5.296875 -3.089844 L 5.296875 -3.75 L 1.507812 -3.75 L 1.507812 -5.976562 L 5.597656 -5.976562 L 5.597656 -6.648438 L 0.679688 -6.648438 L 0.679688 0 L 5.628906 0 L 5.628906 -0.667969 Z M 1.507812 -0.667969 "/></g></g></g><g fill="#b7b0dd" fill-opacity="1"><g transform="translate(67.76359, 316.871993)"><g><path d="M 3.449219 -5.160156 C 2.460938 -5.160156 1.839844 -4.597656 1.53125 -3.6875 L 1.53125 -5 L 0.730469 -5 L 0.730469 0 L 1.53125 0 L 1.53125 -1.910156 C 1.53125 -3.628906 2.121094 -4.488281 3.230469 -4.488281 C 3.960938 -4.488281 4.429688 -4.167969 4.429688 -3.097656 L 4.429688 0 L 5.230469 0 L 5.230469 -3.1875 C 5.230469 -4.480469 4.699219 -5.160156 3.449219 -5.160156 Z M 3.449219 -5.160156 "/></g></g></g><g fill="#b7b0dd" fill-opacity="1"><g transform="translate(73.621282, 316.871993)"><g><path d="M 2.359375 0 L 3.539062 0 L 3.539062 -0.648438 L 1.949219 -0.648438 L 1.949219 -4.367188 L 3.597656 -4.367188 L 3.597656 -5 L 1.949219 -5 L 1.949219 -6.109375 L 1.519531 -6.109375 L 1.21875 -5.070312 L 0.199219 -4.820312 L 0.199219 -4.367188 L 1.148438 -4.367188 L 1.148438 -1.167969 C 1.148438 -0.371094 1.398438 0 2.359375 0 Z M 2.359375 0 "/></g></g></g><g fill="#b7b0dd" fill-opacity="1"><g transform="translate(77.529737, 316.871993)"><g><path d="M 3.359375 -5.070312 C 2.410156 -5.070312 1.828125 -4.507812 1.53125 -3.679688 L 1.53125 -5 L 0.730469 -5 L 0.730469 0 L 1.53125 0 L 1.53125 -1.839844 C 1.53125 -3.25 1.847656 -4.328125 3.328125 -4.277344 L 3.539062 -4.277344 L 3.539062 -5.070312 Z M 3.359375 -5.070312 "/></g></g></g><g fill="#b7b0dd" fill-opacity="1"><g transform="translate(81.378213, 316.871993)"><g><path d="M 2.988281 -0.449219 C 1.988281 -0.449219 1.328125 -0.949219 1.269531 -2.320312 L 5.289062 -2.320312 C 5.308594 -2.4375 5.308594 -2.539062 5.308594 -2.667969 C 5.308594 -4.128906 4.457031 -5.160156 2.960938 -5.160156 C 1.300781 -5.160156 0.480469 -4 0.480469 -2.507812 C 0.480469 -1 1.238281 0.160156 2.960938 0.160156 C 4.617188 0.160156 5.199219 -0.78125 5.296875 -1.539062 L 4.570312 -1.539062 C 4.417969 -0.910156 3.96875 -0.449219 2.988281 -0.449219 Z M 2.96875 -4.550781 C 3.898438 -4.550781 4.488281 -4.070312 4.527344 -2.917969 L 1.289062 -2.917969 C 1.398438 -4.097656 2.019531 -4.550781 2.96875 -4.550781 Z M 2.96875 -4.550781 "/></g></g></g><g fill="#b7b0dd" fill-opacity="1"><g transform="translate(87.135941, 316.871993)"><g/></g></g><g fill="#b7b0dd" fill-opacity="1"><g transform="translate(89.385048, 316.871993)"><g><path d="M 0.378906 -1.667969 C 0.398438 -0.621094 1.058594 0.160156 2.6875 0.160156 C 4.019531 0.160156 4.730469 -0.339844 4.730469 -1.359375 C 4.730469 -2.179688 4.308594 -2.667969 3.160156 -2.839844 L 2.097656 -2.988281 C 1.46875 -3.078125 1.289062 -3.378906 1.289062 -3.730469 C 1.289062 -4.21875 1.640625 -4.558594 2.488281 -4.558594 C 3.410156 -4.558594 3.789062 -4.089844 3.839844 -3.570312 L 4.628906 -3.570312 C 4.570312 -4.507812 3.820312 -5.167969 2.507812 -5.167969 C 1.25 -5.167969 0.511719 -4.597656 0.511719 -3.667969 C 0.511719 -2.898438 1 -2.4375 1.871094 -2.320312 L 3.027344 -2.148438 C 3.660156 -2.058594 3.9375 -1.800781 3.9375 -1.320312 C 3.9375 -0.761719 3.589844 -0.449219 2.710938 -0.449219 C 1.558594 -0.449219 1.179688 -0.988281 1.121094 -1.667969 Z M 0.378906 -1.667969 "/></g></g></g><g fill="#b7b0dd" fill-opacity="1"><g transform="translate(94.543015, 316.871993)"><g><path d="M 2.988281 -0.449219 C 1.988281 -0.449219 1.328125 -0.949219 1.269531 -2.320312 L 5.289062 -2.320312 C 5.308594 -2.4375 5.308594 -2.539062 5.308594 -2.667969 C 5.308594 -4.128906 4.457031 -5.160156 2.960938 -5.160156 C 1.300781 -5.160156 0.480469 -4 0.480469 -2.507812 C 0.480469 -1 1.238281 0.160156 2.960938 0.160156 C 4.617188 0.160156 5.199219 -0.78125 5.296875 -1.539062 L 4.570312 -1.539062 C 4.417969 -0.910156 3.96875 -0.449219 2.988281 -0.449219 Z M 2.96875 -4.550781 C 3.898438 -4.550781 4.488281 -4.070312 4.527344 -2.917969 L 1.289062 -2.917969 C 1.398438 -4.097656 2.019531 -4.550781 2.96875 -4.550781 Z M 2.96875 -4.550781 "/></g></g></g><g fill="#b7b0dd" fill-opacity="1"><g transform="translate(100.300743, 316.871993)"><g><path d="M 4.320312 -5 L 4.320312 -3.089844 C 4.320312 -1.429688 3.730469 -0.5 2.6875 -0.5 C 1.917969 -0.5 1.429688 -0.789062 1.429688 -1.898438 L 1.429688 -5 L 0.628906 -5 L 0.628906 -1.808594 C 0.628906 -0.5 1.199219 0.160156 2.460938 0.160156 C 3.429688 0.160156 4.019531 -0.378906 4.320312 -1.269531 L 4.320312 0 L 5.117188 0 L 5.117188 -5 Z M 4.320312 -5 "/></g></g></g><g fill="#b7b0dd" fill-opacity="1"><g transform="translate(106.148433, 316.871993)"><g/></g></g><g fill="#b7b0dd" fill-opacity="1"><g transform="translate(108.39754, 316.871993)"><g><path d="M 4.320312 -5 L 4.320312 -3.089844 C 4.320312 -1.429688 3.730469 -0.5 2.6875 -0.5 C 1.917969 -0.5 1.429688 -0.789062 1.429688 -1.898438 L 1.429688 -5 L 0.628906 -5 L 0.628906 -1.808594 C 0.628906 -0.5 1.199219 0.160156 2.460938 0.160156 C 3.429688 0.160156 4.019531 -0.378906 4.320312 -1.269531 L 4.320312 0 L 5.117188 0 L 5.117188 -5 Z M 4.320312 -5 "/></g></g></g><g fill="#b7b0dd" fill-opacity="1"><g transform="translate(114.24523, 316.871993)"><g><path d="M 0.378906 -1.667969 C 0.398438 -0.621094 1.058594 0.160156 2.6875 0.160156 C 4.019531 0.160156 4.730469 -0.339844 4.730469 -1.359375 C 4.730469 -2.179688 4.308594 -2.667969 3.160156 -2.839844 L 2.097656 -2.988281 C 1.46875 -3.078125 1.289062 -3.378906 1.289062 -3.730469 C 1.289062 -4.21875 1.640625 -4.558594 2.488281 -4.558594 C 3.410156 -4.558594 3.789062 -4.089844 3.839844 -3.570312 L 4.628906 -3.570312 C 4.570312 -4.507812 3.820312 -5.167969 2.507812 -5.167969 C 1.25 -5.167969 0.511719 -4.597656 0.511719 -3.667969 C 0.511719 -2.898438 1 -2.4375 1.871094 -2.320312 L 3.027344 -2.148438 C 3.660156 -2.058594 3.9375 -1.800781 3.9375 -1.320312 C 3.9375 -0.761719 3.589844 -0.449219 2.710938 -0.449219 C 1.558594 -0.449219 1.179688 -0.988281 1.121094 -1.667969 Z M 0.378906 -1.667969 "/></g></g></g><g fill="#b7b0dd" fill-opacity="1"><g transform="translate(119.403196, 316.871993)"><g><path d="M 4.320312 -5 L 4.320312 -3.089844 C 4.320312 -1.429688 3.730469 -0.5 2.6875 -0.5 C 1.917969 -0.5 1.429688 -0.789062 1.429688 -1.898438 L 1.429688 -5 L 0.628906 -5 L 0.628906 -1.808594 C 0.628906 -0.5 1.199219 0.160156 2.460938 0.160156 C 3.429688 0.160156 4.019531 -0.378906 4.320312 -1.269531 L 4.320312 0 L 5.117188 0 L 5.117188 -5 Z M 4.320312 -5 "/></g></g></g><g fill="#b7b0dd" fill-opacity="1"><g transform="translate(125.250887, 316.871993)"><g><path d="M 3.960938 -6.238281 L 3.71875 -6.847656 L 1.621094 -5.917969 L 1.757812 -5.609375 Z M 2.230469 0.128906 C 3.390625 0.128906 3.917969 -0.570312 4.109375 -1.167969 C 4.109375 -0.800781 4.140625 -0.429688 4.179688 0 L 4.910156 0 C 4.859375 -0.488281 4.847656 -0.878906 4.847656 -1.238281 L 4.847656 -3.640625 C 4.847656 -4.539062 4.230469 -5.167969 2.859375 -5.167969 C 1.480469 -5.167969 0.730469 -4.488281 0.699219 -3.429688 L 1.488281 -3.429688 C 1.539062 -4.078125 1.910156 -4.539062 2.890625 -4.539062 C 3.859375 -4.539062 4.117188 -4.148438 4.117188 -3.640625 C 4.117188 -3.257812 3.898438 -3.121094 3.371094 -3.027344 L 2.097656 -2.820312 C 1.019531 -2.640625 0.578125 -2.128906 0.578125 -1.320312 C 0.578125 -0.371094 1.269531 0.128906 2.230469 0.128906 Z M 2.390625 -0.5 C 1.800781 -0.5 1.390625 -0.78125 1.390625 -1.351562 C 1.390625 -1.890625 1.710938 -2.148438 2.390625 -2.289062 L 3.21875 -2.460938 C 3.597656 -2.539062 3.867188 -2.621094 4.117188 -2.800781 L 4.117188 -2.371094 C 4.117188 -1.417969 3.570312 -0.5 2.390625 -0.5 Z M 2.390625 -0.5 "/></g></g></g><g fill="#b7b0dd" fill-opacity="1"><g transform="translate(130.728727, 316.871993)"><g><path d="M 3.359375 -5.070312 C 2.410156 -5.070312 1.828125 -4.507812 1.53125 -3.679688 L 1.53125 -5 L 0.730469 -5 L 0.730469 0 L 1.53125 0 L 1.53125 -1.839844 C 1.53125 -3.25 1.847656 -4.328125 3.328125 -4.277344 L 3.539062 -4.277344 L 3.539062 -5.070312 Z M 3.359375 -5.070312 "/></g></g></g><g fill="#b7b0dd" fill-opacity="1"><g transform="translate(134.577203, 316.871993)"><g><path d="M 0.621094 -5.820312 L 1.648438 -5.820312 L 1.648438 -6.648438 L 0.621094 -6.648438 Z M 0.730469 0 L 1.53125 0 L 1.53125 -5 L 0.730469 -5 Z M 0.730469 0 "/></g></g></g><g fill="#b7b0dd" fill-opacity="1"><g transform="translate(136.846303, 316.871993)"><g><path d="M 3 0.160156 C 4.679688 0.160156 5.507812 -1.007812 5.507812 -2.507812 C 5.507812 -3.988281 4.679688 -5.160156 3 -5.160156 C 1.308594 -5.160156 0.480469 -4 0.480469 -2.507812 C 0.480469 -1 1.308594 0.160156 3 0.160156 Z M 1.289062 -2.5 C 1.289062 -3.910156 1.871094 -4.507812 3 -4.507812 C 4.128906 -4.507812 4.699219 -3.910156 4.699219 -2.5 C 4.699219 -1.101562 4.128906 -0.488281 3 -0.488281 C 1.871094 -0.488281 1.289062 -1.101562 1.289062 -2.5 Z M 1.289062 -2.5 "/></g></g></g><g fill="#b7b0dd" fill-opacity="1"><g transform="translate(142.833943, 316.871993)"><g/></g></g><g fill="#b7b0dd" fill-opacity="1"><g transform="translate(145.08305, 316.871993)"><g><path d="M 2.988281 -0.449219 C 1.988281 -0.449219 1.328125 -0.949219 1.269531 -2.320312 L 5.289062 -2.320312 C 5.308594 -2.4375 5.308594 -2.539062 5.308594 -2.667969 C 5.308594 -4.128906 4.457031 -5.160156 2.960938 -5.160156 C 1.300781 -5.160156 0.480469 -4 0.480469 -2.507812 C 0.480469 -1 1.238281 0.160156 2.960938 0.160156 C 4.617188 0.160156 5.199219 -0.78125 5.296875 -1.539062 L 4.570312 -1.539062 C 4.417969 -0.910156 3.96875 -0.449219 2.988281 -0.449219 Z M 2.96875 -4.550781 C 3.898438 -4.550781 4.488281 -4.070312 4.527344 -2.917969 L 1.289062 -2.917969 C 1.398438 -4.097656 2.019531 -4.550781 2.96875 -4.550781 Z M 2.96875 -4.550781 "/></g></g></g><g fill="#b7b0dd" fill-opacity="1"><g transform="translate(150.840778, 316.871993)"><g><path d="M 6.859375 -5.160156 C 5.859375 -5.160156 5.277344 -4.628906 4.988281 -3.75 C 4.847656 -4.679688 4.320312 -5.160156 3.347656 -5.160156 C 2.390625 -5.160156 1.820312 -4.628906 1.53125 -3.769531 L 1.53125 -5 L 0.730469 -5 L 0.730469 0 L 1.53125 0 L 1.53125 -1.910156 C 1.53125 -3.628906 2.03125 -4.488281 3.097656 -4.488281 C 3.828125 -4.488281 4.25 -4.140625 4.25 -3.128906 L 4.25 0 L 5.027344 0 L 5.027344 -1.910156 C 5.027344 -3.628906 5.519531 -4.488281 6.609375 -4.488281 C 7.339844 -4.488281 7.75 -4.140625 7.75 -3.128906 L 7.75 0 L 8.546875 0 L 8.546875 -3.21875 C 8.546875 -4.5 7.996094 -5.160156 6.859375 -5.160156 Z M 6.859375 -5.160156 "/></g></g></g><g fill="#b7b0dd" fill-opacity="1"><g transform="translate(160.017154, 316.871993)"><g><path d="M 2.230469 0.128906 C 3.390625 0.128906 3.917969 -0.570312 4.109375 -1.167969 C 4.109375 -0.800781 4.140625 -0.429688 4.179688 0 L 4.910156 0 C 4.859375 -0.488281 4.847656 -0.878906 4.847656 -1.238281 L 4.847656 -3.640625 C 4.847656 -4.539062 4.230469 -5.167969 2.859375 -5.167969 C 1.480469 -5.167969 0.730469 -4.488281 0.699219 -3.429688 L 1.488281 -3.429688 C 1.539062 -4.078125 1.910156 -4.539062 2.890625 -4.539062 C 3.859375 -4.539062 4.117188 -4.148438 4.117188 -3.640625 C 4.117188 -3.257812 3.898438 -3.121094 3.371094 -3.027344 L 2.097656 -2.820312 C 1.019531 -2.640625 0.578125 -2.128906 0.578125 -1.320312 C 0.578125 -0.371094 1.269531 0.128906 2.230469 0.128906 Z M 2.390625 -0.5 C 1.800781 -0.5 1.390625 -0.78125 1.390625 -1.351562 C 1.390625 -1.890625 1.710938 -2.148438 2.390625 -2.289062 L 3.21875 -2.460938 C 3.597656 -2.539062 3.867188 -2.621094 4.117188 -2.800781 L 4.117188 -2.371094 C 4.117188 -1.417969 3.570312 -0.5 2.390625 -0.5 Z M 2.390625 -0.5 "/></g></g></g><g fill="#b7b0dd" fill-opacity="1"><g transform="translate(165.494994, 316.871993)"><g><path d="M 0.621094 -5.820312 L 1.648438 -5.820312 L 1.648438 -6.648438 L 0.621094 -6.648438 Z M 0.730469 0 L 1.53125 0 L 1.53125 -5 L 0.730469 -5 Z M 0.730469 0 "/></g></g></g><g fill="#b7b0dd" fill-opacity="1"><g transform="translate(167.764094, 316.871993)"><g><path d="M 0.71875 0 L 1.519531 0 L 1.519531 -7 L 0.71875 -7 Z M 0.71875 0 "/></g></g></g><g fill="#b7b0dd" fill-opacity="1"><g transform="translate(170.00321, 316.871993)"><g/></g></g><g fill="#b7b0dd" fill-opacity="1"><g transform="translate(172.252317, 316.871993)"><g><path d="M 3 0.160156 C 4.679688 0.160156 5.507812 -1.007812 5.507812 -2.507812 C 5.507812 -3.988281 4.679688 -5.160156 3 -5.160156 C 1.308594 -5.160156 0.480469 -4 0.480469 -2.507812 C 0.480469 -1 1.308594 0.160156 3 0.160156 Z M 1.289062 -2.5 C 1.289062 -3.910156 1.871094 -4.507812 3 -4.507812 C 4.128906 -4.507812 4.699219 -3.910156 4.699219 -2.5 C 4.699219 -1.101562 4.128906 -0.488281 3 -0.488281 C 1.871094 -0.488281 1.289062 -1.101562 1.289062 -2.5 Z M 1.289062 -2.5 "/></g></g></g><g fill="#b7b0dd" fill-opacity="1"><g transform="translate(178.239957, 316.871993)"><g><path d="M 4.320312 -5 L 4.320312 -3.089844 C 4.320312 -1.429688 3.730469 -0.5 2.6875 -0.5 C 1.917969 -0.5 1.429688 -0.789062 1.429688 -1.898438 L 1.429688 -5 L 0.628906 -5 L 0.628906 -1.808594 C 0.628906 -0.5 1.199219 0.160156 2.460938 0.160156 C 3.429688 0.160156 4.019531 -0.378906 4.320312 -1.269531 L 4.320312 0 L 5.117188 0 L 5.117188 -5 Z M 4.320312 -5 "/></g></g></g><g fill="#b7b0dd" fill-opacity="1"><g transform="translate(184.087647, 316.871993)"><g/></g></g><g fill="#b7b0dd" fill-opacity="1"><g transform="translate(186.336755, 316.871993)"><g><path d="M 2.359375 0 L 3.539062 0 L 3.539062 -0.648438 L 1.949219 -0.648438 L 1.949219 -4.367188 L 3.597656 -4.367188 L 3.597656 -5 L 1.949219 -5 L 1.949219 -6.109375 L 1.519531 -6.109375 L 1.21875 -5.070312 L 0.199219 -4.820312 L 0.199219 -4.367188 L 1.148438 -4.367188 L 1.148438 -1.167969 C 1.148438 -0.371094 1.398438 0 2.359375 0 Z M 2.359375 0 "/></g></g></g><g fill="#b7b0dd" fill-opacity="1"><g transform="translate(190.245209, 316.871993)"><g><path d="M 2.988281 -0.449219 C 1.988281 -0.449219 1.328125 -0.949219 1.269531 -2.320312 L 5.289062 -2.320312 C 5.308594 -2.4375 5.308594 -2.539062 5.308594 -2.667969 C 5.308594 -4.128906 4.457031 -5.160156 2.960938 -5.160156 C 1.300781 -5.160156 0.480469 -4 0.480469 -2.507812 C 0.480469 -1 1.238281 0.160156 2.960938 0.160156 C 4.617188 0.160156 5.199219 -0.78125 5.296875 -1.539062 L 4.570312 -1.539062 C 4.417969 -0.910156 3.96875 -0.449219 2.988281 -0.449219 Z M 2.96875 -4.550781 C 3.898438 -4.550781 4.488281 -4.070312 4.527344 -2.917969 L 1.289062 -2.917969 C 1.398438 -4.097656 2.019531 -4.550781 2.96875 -4.550781 Z M 2.96875 -4.550781 "/></g></g></g><g fill="#b7b0dd" fill-opacity="1"><g transform="translate(196.002937, 316.871993)"><g><path d="M 0.71875 0 L 1.519531 0 L 1.519531 -7 L 0.71875 -7 Z M 0.71875 0 "/></g></g></g><g fill="#b7b0dd" fill-opacity="1"><g transform="translate(198.242054, 316.871993)"><g><path d="M 2.988281 -0.449219 C 1.988281 -0.449219 1.328125 -0.949219 1.269531 -2.320312 L 5.289062 -2.320312 C 5.308594 -2.4375 5.308594 -2.539062 5.308594 -2.667969 C 5.308594 -4.128906 4.457031 -5.160156 2.960938 -5.160156 C 1.300781 -5.160156 0.480469 -4 0.480469 -2.507812 C 0.480469 -1 1.238281 0.160156 2.960938 0.160156 C 4.617188 0.160156 5.199219 -0.78125 5.296875 -1.539062 L 4.570312 -1.539062 C 4.417969 -0.910156 3.96875 -0.449219 2.988281 -0.449219 Z M 2.96875 -4.550781 C 3.898438 -4.550781 4.488281 -4.070312 4.527344 -2.917969 L 1.289062 -2.917969 C 1.398438 -4.097656 2.019531 -4.550781 2.96875 -4.550781 Z M 2.96875 -4.550781 "/></g></g></g><g fill="#b7b0dd" fill-opacity="1"><g transform="translate(203.999782, 316.871993)"><g><path d="M 1.148438 0 L 1.949219 0 L 1.949219 -4.367188 L 3.410156 -4.367188 L 3.410156 -5 L 1.890625 -5 L 1.890625 -6.386719 L 3.6875 -6.386719 L 3.6875 -7 L 2.417969 -7 C 1.460938 -7 1.148438 -6.660156 1.148438 -5.988281 L 1.148438 -5.027344 L 0.308594 -4.820312 L 0.308594 -4.367188 L 1.148438 -4.367188 Z M 1.148438 0 "/></g></g></g><g fill="#b7b0dd" fill-opacity="1"><g transform="translate(207.688327, 316.871993)"><g><path d="M 3 0.160156 C 4.679688 0.160156 5.507812 -1.007812 5.507812 -2.507812 C 5.507812 -3.988281 4.679688 -5.160156 3 -5.160156 C 1.308594 -5.160156 0.480469 -4 0.480469 -2.507812 C 0.480469 -1 1.308594 0.160156 3 0.160156 Z M 1.289062 -2.5 C 1.289062 -3.910156 1.871094 -4.507812 3 -4.507812 C 4.128906 -4.507812 4.699219 -3.910156 4.699219 -2.5 C 4.699219 -1.101562 4.128906 -0.488281 3 -0.488281 C 1.871094 -0.488281 1.289062 -1.101562 1.289062 -2.5 Z M 1.289062 -2.5 "/></g></g></g><g fill="#b7b0dd" fill-opacity="1"><g transform="translate(213.675967, 316.871993)"><g><path d="M 3.449219 -5.160156 C 2.460938 -5.160156 1.839844 -4.597656 1.53125 -3.6875 L 1.53125 -5 L 0.730469 -5 L 0.730469 0 L 1.53125 0 L 1.53125 -1.910156 C 1.53125 -3.628906 2.121094 -4.488281 3.230469 -4.488281 C 3.960938 -4.488281 4.429688 -4.167969 4.429688 -3.097656 L 4.429688 0 L 5.230469 0 L 5.230469 -3.1875 C 5.230469 -4.480469 4.699219 -5.160156 3.449219 -5.160156 Z M 3.449219 -5.160156 "/></g></g></g><g fill="#b7b0dd" fill-opacity="1"><g transform="translate(219.533659, 316.871993)"><g><path d="M 2.988281 -0.449219 C 1.988281 -0.449219 1.328125 -0.949219 1.269531 -2.320312 L 5.289062 -2.320312 C 5.308594 -2.4375 5.308594 -2.539062 5.308594 -2.667969 C 5.308594 -4.128906 4.457031 -5.160156 2.960938 -5.160156 C 1.300781 -5.160156 0.480469 -4 0.480469 -2.507812 C 0.480469 -1 1.238281 0.160156 2.960938 0.160156 C 4.617188 0.160156 5.199219 -0.78125 5.296875 -1.539062 L 4.570312 -1.539062 C 4.417969 -0.910156 3.96875 -0.449219 2.988281 -0.449219 Z M 2.96875 -4.550781 C 3.898438 -4.550781 4.488281 -4.070312 4.527344 -2.917969 L 1.289062 -2.917969 C 1.398438 -4.097656 2.019531 -4.550781 2.96875 -4.550781 Z M 2.96875 -4.550781 "/></g></g></g><g fill="#b7b0dd" fill-opacity="1"><g transform="translate(225.291387, 316.871993)"><g/></g></g><g fill="#b7b0dd" fill-opacity="1"><g transform="translate(227.540494, 316.871993)"><g><path d="M 3.398438 -5.160156 C 2.480469 -5.160156 1.847656 -4.75 1.507812 -4.039062 L 1.507812 -5 L 0.710938 -5 L 0.710938 2 L 1.507812 2 L 1.507812 -0.949219 C 1.847656 -0.238281 2.480469 0.160156 3.398438 0.160156 C 4.96875 0.160156 5.6875 -0.960938 5.6875 -2.5 C 5.6875 -4.027344 4.96875 -5.160156 3.398438 -5.160156 Z M 3.238281 -0.488281 C 2.179688 -0.488281 1.507812 -1.089844 1.507812 -2.5 C 1.507812 -3.910156 2.179688 -4.507812 3.238281 -4.507812 C 4.378906 -4.507812 4.878906 -3.839844 4.878906 -2.5 C 4.878906 -1.148438 4.378906 -0.488281 3.238281 -0.488281 Z M 3.238281 -0.488281 "/></g></g></g><g fill="#b7b0dd" fill-opacity="1"><g transform="translate(233.71806, 316.871993)"><g><path d="M 2.230469 0.128906 C 3.390625 0.128906 3.917969 -0.570312 4.109375 -1.167969 C 4.109375 -0.800781 4.140625 -0.429688 4.179688 0 L 4.910156 0 C 4.859375 -0.488281 4.847656 -0.878906 4.847656 -1.238281 L 4.847656 -3.640625 C 4.847656 -4.539062 4.230469 -5.167969 2.859375 -5.167969 C 1.480469 -5.167969 0.730469 -4.488281 0.699219 -3.429688 L 1.488281 -3.429688 C 1.539062 -4.078125 1.910156 -4.539062 2.890625 -4.539062 C 3.859375 -4.539062 4.117188 -4.148438 4.117188 -3.640625 C 4.117188 -3.257812 3.898438 -3.121094 3.371094 -3.027344 L 2.097656 -2.820312 C 1.019531 -2.640625 0.578125 -2.128906 0.578125 -1.320312 C 0.578125 -0.371094 1.269531 0.128906 2.230469 0.128906 Z M 2.390625 -0.5 C 1.800781 -0.5 1.390625 -0.78125 1.390625 -1.351562 C 1.390625 -1.890625 1.710938 -2.148438 2.390625 -2.289062 L 3.21875 -2.460938 C 3.597656 -2.539062 3.867188 -2.621094 4.117188 -2.800781 L 4.117188 -2.371094 C 4.117188 -1.417969 3.570312 -0.5 2.390625 -0.5 Z M 2.390625 -0.5 "/></g></g></g><g fill="#b7b0dd" fill-opacity="1"><g transform="translate(239.1959, 316.871993)"><g><path d="M 3.359375 -5.070312 C 2.410156 -5.070312 1.828125 -4.507812 1.53125 -3.679688 L 1.53125 -5 L 0.730469 -5 L 0.730469 0 L 1.53125 0 L 1.53125 -1.839844 C 1.53125 -3.25 1.847656 -4.328125 3.328125 -4.277344 L 3.539062 -4.277344 L 3.539062 -5.070312 Z M 3.359375 -5.070312 "/></g></g></g><g fill="#b7b0dd" fill-opacity="1"><g transform="translate(243.044377, 316.871993)"><g><path d="M 2.230469 0.128906 C 3.390625 0.128906 3.917969 -0.570312 4.109375 -1.167969 C 4.109375 -0.800781 4.140625 -0.429688 4.179688 0 L 4.910156 0 C 4.859375 -0.488281 4.847656 -0.878906 4.847656 -1.238281 L 4.847656 -3.640625 C 4.847656 -4.539062 4.230469 -5.167969 2.859375 -5.167969 C 1.480469 -5.167969 0.730469 -4.488281 0.699219 -3.429688 L 1.488281 -3.429688 C 1.539062 -4.078125 1.910156 -4.539062 2.890625 -4.539062 C 3.859375 -4.539062 4.117188 -4.148438 4.117188 -3.640625 C 4.117188 -3.257812 3.898438 -3.121094 3.371094 -3.027344 L 2.097656 -2.820312 C 1.019531 -2.640625 0.578125 -2.128906 0.578125 -1.320312 C 0.578125 -0.371094 1.269531 0.128906 2.230469 0.128906 Z M 2.390625 -0.5 C 1.800781 -0.5 1.390625 -0.78125 1.390625 -1.351562 C 1.390625 -1.890625 1.710938 -2.148438 2.390625 -2.289062 L 3.21875 -2.460938 C 3.597656 -2.539062 3.867188 -2.621094 4.117188 -2.800781 L 4.117188 -2.371094 C 4.117188 -1.417969 3.570312 -0.5 2.390625 -0.5 Z M 2.390625 -0.5 "/></g></g></g><g fill="#b7b0dd" fill-opacity="1"><g transform="translate(97.131061, 330.371992)"><g><path d="M 3.359375 -5.070312 C 2.410156 -5.070312 1.828125 -4.507812 1.53125 -3.679688 L 1.53125 -5 L 0.730469 -5 L 0.730469 0 L 1.53125 0 L 1.53125 -1.839844 C 1.53125 -3.25 1.847656 -4.328125 3.328125 -4.277344 L 3.539062 -4.277344 L 3.539062 -5.070312 Z M 3.359375 -5.070312 "/></g></g></g><g fill="#b7b0dd" fill-opacity="1"><g transform="translate(100.979538, 330.371992)"><g><path d="M 2.988281 -0.449219 C 1.988281 -0.449219 1.328125 -0.949219 1.269531 -2.320312 L 5.289062 -2.320312 C 5.308594 -2.4375 5.308594 -2.539062 5.308594 -2.667969 C 5.308594 -4.128906 4.457031 -5.160156 2.960938 -5.160156 C 1.300781 -5.160156 0.480469 -4 0.480469 -2.507812 C 0.480469 -1 1.238281 0.160156 2.960938 0.160156 C 4.617188 0.160156 5.199219 -0.78125 5.296875 -1.539062 L 4.570312 -1.539062 C 4.417969 -0.910156 3.96875 -0.449219 2.988281 -0.449219 Z M 2.96875 -4.550781 C 3.898438 -4.550781 4.488281 -4.070312 4.527344 -2.917969 L 1.289062 -2.917969 C 1.398438 -4.097656 2.019531 -4.550781 2.96875 -4.550781 Z M 2.96875 -4.550781 "/></g></g></g><g fill="#b7b0dd" fill-opacity="1"><g transform="translate(106.737266, 330.371992)"><g><path d="M 0.480469 -2.5 C 0.480469 -0.96875 1.339844 0.160156 2.980469 0.160156 C 4.5 0.160156 5.308594 -0.761719 5.367188 -1.910156 L 4.609375 -1.910156 C 4.507812 -1.058594 3.988281 -0.488281 2.980469 -0.488281 C 1.929688 -0.488281 1.289062 -1.050781 1.289062 -2.5 C 1.289062 -3.9375 1.949219 -4.507812 3.007812 -4.507812 C 3.9375 -4.507812 4.4375 -3.988281 4.558594 -3.167969 L 5.308594 -3.167969 C 5.230469 -4.328125 4.480469 -5.160156 2.980469 -5.160156 C 1.359375 -5.160156 0.480469 -4.027344 0.480469 -2.5 Z M 0.480469 -2.5 "/></g></g></g><g fill="#b7b0dd" fill-opacity="1"><g transform="translate(112.524977, 330.371992)"><g><path d="M 4.320312 -5 L 4.320312 -3.089844 C 4.320312 -1.429688 3.730469 -0.5 2.6875 -0.5 C 1.917969 -0.5 1.429688 -0.789062 1.429688 -1.898438 L 1.429688 -5 L 0.628906 -5 L 0.628906 -1.808594 C 0.628906 -0.5 1.199219 0.160156 2.460938 0.160156 C 3.429688 0.160156 4.019531 -0.378906 4.320312 -1.269531 L 4.320312 0 L 5.117188 0 L 5.117188 -5 Z M 4.320312 -5 "/></g></g></g><g fill="#b7b0dd" fill-opacity="1"><g transform="translate(118.372668, 330.371992)"><g><path d="M 3.398438 -5.160156 C 2.480469 -5.160156 1.847656 -4.75 1.507812 -4.039062 L 1.507812 -5 L 0.710938 -5 L 0.710938 2 L 1.507812 2 L 1.507812 -0.949219 C 1.847656 -0.238281 2.480469 0.160156 3.398438 0.160156 C 4.96875 0.160156 5.6875 -0.960938 5.6875 -2.5 C 5.6875 -4.027344 4.96875 -5.160156 3.398438 -5.160156 Z M 3.238281 -0.488281 C 2.179688 -0.488281 1.507812 -1.089844 1.507812 -2.5 C 1.507812 -3.910156 2.179688 -4.507812 3.238281 -4.507812 C 4.378906 -4.507812 4.878906 -3.839844 4.878906 -2.5 C 4.878906 -1.148438 4.378906 -0.488281 3.238281 -0.488281 Z M 3.238281 -0.488281 "/></g></g></g><g fill="#b7b0dd" fill-opacity="1"><g transform="translate(124.550234, 330.371992)"><g><path d="M 2.988281 -0.449219 C 1.988281 -0.449219 1.328125 -0.949219 1.269531 -2.320312 L 5.289062 -2.320312 C 5.308594 -2.4375 5.308594 -2.539062 5.308594 -2.667969 C 5.308594 -4.128906 4.457031 -5.160156 2.960938 -5.160156 C 1.300781 -5.160156 0.480469 -4 0.480469 -2.507812 C 0.480469 -1 1.238281 0.160156 2.960938 0.160156 C 4.617188 0.160156 5.199219 -0.78125 5.296875 -1.539062 L 4.570312 -1.539062 C 4.417969 -0.910156 3.96875 -0.449219 2.988281 -0.449219 Z M 2.96875 -4.550781 C 3.898438 -4.550781 4.488281 -4.070312 4.527344 -2.917969 L 1.289062 -2.917969 C 1.398438 -4.097656 2.019531 -4.550781 2.96875 -4.550781 Z M 2.96875 -4.550781 "/></g></g></g><g fill="#b7b0dd" fill-opacity="1"><g transform="translate(130.307962, 330.371992)"><g><path d="M 3.359375 -5.070312 C 2.410156 -5.070312 1.828125 -4.507812 1.53125 -3.679688 L 1.53125 -5 L 0.730469 -5 L 0.730469 0 L 1.53125 0 L 1.53125 -1.839844 C 1.53125 -3.25 1.847656 -4.328125 3.328125 -4.277344 L 3.539062 -4.277344 L 3.539062 -5.070312 Z M 3.359375 -5.070312 "/></g></g></g><g fill="#b7b0dd" fill-opacity="1"><g transform="translate(134.156438, 330.371992)"><g><path d="M 2.230469 0.128906 C 3.390625 0.128906 3.917969 -0.570312 4.109375 -1.167969 C 4.109375 -0.800781 4.140625 -0.429688 4.179688 0 L 4.910156 0 C 4.859375 -0.488281 4.847656 -0.878906 4.847656 -1.238281 L 4.847656 -3.640625 C 4.847656 -4.539062 4.230469 -5.167969 2.859375 -5.167969 C 1.480469 -5.167969 0.730469 -4.488281 0.699219 -3.429688 L 1.488281 -3.429688 C 1.539062 -4.078125 1.910156 -4.539062 2.890625 -4.539062 C 3.859375 -4.539062 4.117188 -4.148438 4.117188 -3.640625 C 4.117188 -3.257812 3.898438 -3.121094 3.371094 -3.027344 L 2.097656 -2.820312 C 1.019531 -2.640625 0.578125 -2.128906 0.578125 -1.320312 C 0.578125 -0.371094 1.269531 0.128906 2.230469 0.128906 Z M 2.390625 -0.5 C 1.800781 -0.5 1.390625 -0.78125 1.390625 -1.351562 C 1.390625 -1.890625 1.710938 -2.148438 2.390625 -2.289062 L 3.21875 -2.460938 C 3.597656 -2.539062 3.867188 -2.621094 4.117188 -2.800781 L 4.117188 -2.371094 C 4.117188 -1.417969 3.570312 -0.5 2.390625 -0.5 Z M 2.390625 -0.5 "/></g></g></g><g fill="#b7b0dd" fill-opacity="1"><g transform="translate(139.634278, 330.371992)"><g><path d="M 3.359375 -5.070312 C 2.410156 -5.070312 1.828125 -4.507812 1.53125 -3.679688 L 1.53125 -5 L 0.730469 -5 L 0.730469 0 L 1.53125 0 L 1.53125 -1.839844 C 1.53125 -3.25 1.847656 -4.328125 3.328125 -4.277344 L 3.539062 -4.277344 L 3.539062 -5.070312 Z M 3.359375 -5.070312 "/></g></g></g><g fill="#b7b0dd" fill-opacity="1"><g transform="translate(143.482754, 330.371992)"><g><path d="M 6.859375 -5.160156 C 5.859375 -5.160156 5.277344 -4.628906 4.988281 -3.75 C 4.847656 -4.679688 4.320312 -5.160156 3.347656 -5.160156 C 2.390625 -5.160156 1.820312 -4.628906 1.53125 -3.769531 L 1.53125 -5 L 0.730469 -5 L 0.730469 0 L 1.53125 0 L 1.53125 -1.910156 C 1.53125 -3.628906 2.03125 -4.488281 3.097656 -4.488281 C 3.828125 -4.488281 4.25 -4.140625 4.25 -3.128906 L 4.25 0 L 5.027344 0 L 5.027344 -1.910156 C 5.027344 -3.628906 5.519531 -4.488281 6.609375 -4.488281 C 7.339844 -4.488281 7.75 -4.140625 7.75 -3.128906 L 7.75 0 L 8.546875 0 L 8.546875 -3.21875 C 8.546875 -4.5 7.996094 -5.160156 6.859375 -5.160156 Z M 6.859375 -5.160156 "/></g></g></g><g fill="#b7b0dd" fill-opacity="1"><g transform="translate(152.65913, 330.371992)"><g><path d="M 3 0.160156 C 4.679688 0.160156 5.507812 -1.007812 5.507812 -2.507812 C 5.507812 -3.988281 4.679688 -5.160156 3 -5.160156 C 1.308594 -5.160156 0.480469 -4 0.480469 -2.507812 C 0.480469 -1 1.308594 0.160156 3 0.160156 Z M 1.289062 -2.5 C 1.289062 -3.910156 1.871094 -4.507812 3 -4.507812 C 4.128906 -4.507812 4.699219 -3.910156 4.699219 -2.5 C 4.699219 -1.101562 4.128906 -0.488281 3 -0.488281 C 1.871094 -0.488281 1.289062 -1.101562 1.289062 -2.5 Z M 1.289062 -2.5 "/></g></g></g><g fill="#b7b0dd" fill-opacity="1"><g transform="translate(158.64677, 330.371992)"><g><path d="M 0.378906 -1.667969 C 0.398438 -0.621094 1.058594 0.160156 2.6875 0.160156 C 4.019531 0.160156 4.730469 -0.339844 4.730469 -1.359375 C 4.730469 -2.179688 4.308594 -2.667969 3.160156 -2.839844 L 2.097656 -2.988281 C 1.46875 -3.078125 1.289062 -3.378906 1.289062 -3.730469 C 1.289062 -4.21875 1.640625 -4.558594 2.488281 -4.558594 C 3.410156 -4.558594 3.789062 -4.089844 3.839844 -3.570312 L 4.628906 -3.570312 C 4.570312 -4.507812 3.820312 -5.167969 2.507812 -5.167969 C 1.25 -5.167969 0.511719 -4.597656 0.511719 -3.667969 C 0.511719 -2.898438 1 -2.4375 1.871094 -2.320312 L 3.027344 -2.148438 C 3.660156 -2.058594 3.9375 -1.800781 3.9375 -1.320312 C 3.9375 -0.761719 3.589844 -0.449219 2.710938 -0.449219 C 1.558594 -0.449219 1.179688 -0.988281 1.121094 -1.667969 Z M 0.378906 -1.667969 "/></g></g></g><g fill="#b7b0dd" fill-opacity="1"><g transform="translate(163.804736, 330.371992)"><g/></g></g><g fill="#b7b0dd" fill-opacity="1"><g transform="translate(166.053843, 330.371992)"><g><path d="M 0.378906 -1.667969 C 0.398438 -0.621094 1.058594 0.160156 2.6875 0.160156 C 4.019531 0.160156 4.730469 -0.339844 4.730469 -1.359375 C 4.730469 -2.179688 4.308594 -2.667969 3.160156 -2.839844 L 2.097656 -2.988281 C 1.46875 -3.078125 1.289062 -3.378906 1.289062 -3.730469 C 1.289062 -4.21875 1.640625 -4.558594 2.488281 -4.558594 C 3.410156 -4.558594 3.789062 -4.089844 3.839844 -3.570312 L 4.628906 -3.570312 C 4.570312 -4.507812 3.820312 -5.167969 2.507812 -5.167969 C 1.25 -5.167969 0.511719 -4.597656 0.511719 -3.667969 C 0.511719 -2.898438 1 -2.4375 1.871094 -2.320312 L 3.027344 -2.148438 C 3.660156 -2.058594 3.9375 -1.800781 3.9375 -1.320312 C 3.9375 -0.761719 3.589844 -0.449219 2.710938 -0.449219 C 1.558594 -0.449219 1.179688 -0.988281 1.121094 -1.667969 Z M 0.378906 -1.667969 "/></g></g></g><g fill="#b7b0dd" fill-opacity="1"><g transform="translate(171.211809, 330.371992)"><g><path d="M 4.320312 -5 L 4.320312 -3.089844 C 4.320312 -1.429688 3.730469 -0.5 2.6875 -0.5 C 1.917969 -0.5 1.429688 -0.789062 1.429688 -1.898438 L 1.429688 -5 L 0.628906 -5 L 0.628906 -1.808594 C 0.628906 -0.5 1.199219 0.160156 2.460938 0.160156 C 3.429688 0.160156 4.019531 -0.378906 4.320312 -1.269531 L 4.320312 0 L 5.117188 0 L 5.117188 -5 Z M 4.320312 -5 "/></g></g></g><g fill="#b7b0dd" fill-opacity="1"><g transform="translate(177.059499, 330.371992)"><g><path d="M 2.230469 0.128906 C 3.390625 0.128906 3.917969 -0.570312 4.109375 -1.167969 C 4.109375 -0.800781 4.140625 -0.429688 4.179688 0 L 4.910156 0 C 4.859375 -0.488281 4.847656 -0.878906 4.847656 -1.238281 L 4.847656 -3.640625 C 4.847656 -4.539062 4.230469 -5.167969 2.859375 -5.167969 C 1.480469 -5.167969 0.730469 -4.488281 0.699219 -3.429688 L 1.488281 -3.429688 C 1.539062 -4.078125 1.910156 -4.539062 2.890625 -4.539062 C 3.859375 -4.539062 4.117188 -4.148438 4.117188 -3.640625 C 4.117188 -3.257812 3.898438 -3.121094 3.371094 -3.027344 L 2.097656 -2.820312 C 1.019531 -2.640625 0.578125 -2.128906 0.578125 -1.320312 C 0.578125 -0.371094 1.269531 0.128906 2.230469 0.128906 Z M 2.390625 -0.5 C 1.800781 -0.5 1.390625 -0.78125 1.390625 -1.351562 C 1.390625 -1.890625 1.710938 -2.148438 2.390625 -2.289062 L 3.21875 -2.460938 C 3.597656 -2.539062 3.867188 -2.621094 4.117188 -2.800781 L 4.117188 -2.371094 C 4.117188 -1.417969 3.570312 -0.5 2.390625 -0.5 Z M 2.390625 -0.5 "/></g></g></g><g fill="#b7b0dd" fill-opacity="1"><g transform="translate(182.537339, 330.371992)"><g/></g></g><g fill="#b7b0dd" fill-opacity="1"><g transform="translate(184.786447, 330.371992)"><g><path d="M 0.378906 -1.667969 C 0.398438 -0.621094 1.058594 0.160156 2.6875 0.160156 C 4.019531 0.160156 4.730469 -0.339844 4.730469 -1.359375 C 4.730469 -2.179688 4.308594 -2.667969 3.160156 -2.839844 L 2.097656 -2.988281 C 1.46875 -3.078125 1.289062 -3.378906 1.289062 -3.730469 C 1.289062 -4.21875 1.640625 -4.558594 2.488281 -4.558594 C 3.410156 -4.558594 3.789062 -4.089844 3.839844 -3.570312 L 4.628906 -3.570312 C 4.570312 -4.507812 3.820312 -5.167969 2.507812 -5.167969 C 1.25 -5.167969 0.511719 -4.597656 0.511719 -3.667969 C 0.511719 -2.898438 1 -2.4375 1.871094 -2.320312 L 3.027344 -2.148438 C 3.660156 -2.058594 3.9375 -1.800781 3.9375 -1.320312 C 3.9375 -0.761719 3.589844 -0.449219 2.710938 -0.449219 C 1.558594 -0.449219 1.179688 -0.988281 1.121094 -1.667969 Z M 0.378906 -1.667969 "/></g></g></g><g fill="#b7b0dd" fill-opacity="1"><g transform="translate(189.944413, 330.371992)"><g><path d="M 2.988281 -0.449219 C 1.988281 -0.449219 1.328125 -0.949219 1.269531 -2.320312 L 5.289062 -2.320312 C 5.308594 -2.4375 5.308594 -2.539062 5.308594 -2.667969 C 5.308594 -4.128906 4.457031 -5.160156 2.960938 -5.160156 C 1.300781 -5.160156 0.480469 -4 0.480469 -2.507812 C 0.480469 -1 1.238281 0.160156 2.960938 0.160156 C 4.617188 0.160156 5.199219 -0.78125 5.296875 -1.539062 L 4.570312 -1.539062 C 4.417969 -0.910156 3.96875 -0.449219 2.988281 -0.449219 Z M 2.96875 -4.550781 C 3.898438 -4.550781 4.488281 -4.070312 4.527344 -2.917969 L 1.289062 -2.917969 C 1.398438 -4.097656 2.019531 -4.550781 2.96875 -4.550781 Z M 2.96875 -4.550781 "/></g></g></g><g fill="#b7b0dd" fill-opacity="1"><g transform="translate(195.702141, 330.371992)"><g><path d="M 3.449219 -5.160156 C 2.460938 -5.160156 1.839844 -4.597656 1.53125 -3.6875 L 1.53125 -5 L 0.730469 -5 L 0.730469 0 L 1.53125 0 L 1.53125 -1.910156 C 1.53125 -3.628906 2.121094 -4.488281 3.230469 -4.488281 C 3.960938 -4.488281 4.429688 -4.167969 4.429688 -3.097656 L 4.429688 0 L 5.230469 0 L 5.230469 -3.1875 C 5.230469 -4.480469 4.699219 -5.160156 3.449219 -5.160156 Z M 3.449219 -5.160156 "/></g></g></g><g fill="#b7b0dd" fill-opacity="1"><g transform="translate(201.559833, 330.371992)"><g><path d="M 3.449219 -5.160156 C 2.460938 -5.160156 1.839844 -4.597656 1.53125 -3.6875 L 1.53125 -7 L 0.730469 -7 L 0.730469 0 L 1.53125 0 L 1.53125 -1.910156 C 1.53125 -3.628906 2.121094 -4.488281 3.230469 -4.488281 C 3.960938 -4.488281 4.429688 -4.167969 4.429688 -3.097656 L 4.429688 0 L 5.230469 0 L 5.230469 -3.1875 C 5.230469 -4.480469 4.699219 -5.160156 3.449219 -5.160156 Z M 3.449219 -5.160156 "/></g></g></g><g fill="#b7b0dd" fill-opacity="1"><g transform="translate(207.417525, 330.371992)"><g><path d="M 2.230469 0.128906 C 3.390625 0.128906 3.917969 -0.570312 4.109375 -1.167969 C 4.109375 -0.800781 4.140625 -0.429688 4.179688 0 L 4.910156 0 C 4.859375 -0.488281 4.847656 -0.878906 4.847656 -1.238281 L 4.847656 -3.640625 C 4.847656 -4.539062 4.230469 -5.167969 2.859375 -5.167969 C 1.480469 -5.167969 0.730469 -4.488281 0.699219 -3.429688 L 1.488281 -3.429688 C 1.539062 -4.078125 1.910156 -4.539062 2.890625 -4.539062 C 3.859375 -4.539062 4.117188 -4.148438 4.117188 -3.640625 C 4.117188 -3.257812 3.898438 -3.121094 3.371094 -3.027344 L 2.097656 -2.820312 C 1.019531 -2.640625 0.578125 -2.128906 0.578125 -1.320312 C 0.578125 -0.371094 1.269531 0.128906 2.230469 0.128906 Z M 2.390625 -0.5 C 1.800781 -0.5 1.390625 -0.78125 1.390625 -1.351562 C 1.390625 -1.890625 1.710938 -2.148438 2.390625 -2.289062 L 3.21875 -2.460938 C 3.597656 -2.539062 3.867188 -2.621094 4.117188 -2.800781 L 4.117188 -2.371094 C 4.117188 -1.417969 3.570312 -0.5 2.390625 -0.5 Z M 2.390625 -0.5 "/></g></g></g><g fill="#fbfbfb" fill-opacity="1"><g transform="translate(139.783767, 429.535678)"><g><path d="M 2.300781 -1.390625 L 2.300781 -2.738281 L 5.558594 -2.738281 L 5.558594 -4.027344 L 2.300781 -4.027344 L 2.300781 -5.257812 L 5.859375 -5.257812 L 5.859375 -6.648438 L 0.539062 -6.648438 L 0.539062 0 L 5.886719 0 L 5.886719 -1.390625 Z M 2.300781 -1.390625 "/></g></g></g><g fill="#fbfbfb" fill-opacity="1"><g transform="translate(146.121264, 429.535678)"><g><path d="M 4.027344 -5.160156 C 3.140625 -5.160156 2.558594 -4.730469 2.230469 -4.070312 L 2.230469 -5 L 0.511719 -5 L 0.511719 0 L 2.230469 0 L 2.230469 -2.347656 C 2.230469 -3.328125 2.628906 -3.769531 3.320312 -3.769531 C 3.917969 -3.769531 4.1875 -3.410156 4.1875 -2.75 L 4.1875 0 L 5.910156 0 L 5.910156 -3.039062 C 5.910156 -4.347656 5.339844 -5.160156 4.027344 -5.160156 Z M 4.027344 -5.160156 "/></g></g></g><g fill="#fbfbfb" fill-opacity="1"><g transform="translate(152.488756, 429.535678)"><g><path d="M 4.179688 -5 L 2.980469 -1.300781 L 1.78125 -5 L 0.03125 -5 L 1.691406 0 L 4.148438 0 L 5.808594 -5 Z M 4.179688 -5 "/></g></g></g><g fill="#fbfbfb" fill-opacity="1"><g transform="translate(158.326456, 429.535678)"><g><path d="M 0.480469 -5.609375 L 2.257812 -5.609375 L 2.257812 -6.648438 L 0.480469 -6.648438 Z M 0.511719 0 L 2.230469 0 L 2.230469 -5 L 0.511719 -5 Z M 0.511719 0 "/></g></g></g><g fill="#fbfbfb" fill-opacity="1"><g transform="translate(161.075372, 429.535678)"><g><path d="M 2.039062 0.128906 C 3.050781 0.128906 3.667969 -0.308594 3.917969 -1.039062 C 3.917969 -0.628906 3.949219 -0.289062 4 0 L 5.480469 0 C 5.417969 -0.410156 5.386719 -0.851562 5.386719 -1.378906 L 5.386719 -3.371094 C 5.386719 -4.507812 4.609375 -5.160156 3.027344 -5.160156 C 1.449219 -5.160156 0.53125 -4.398438 0.480469 -3.339844 L 2.148438 -3.339844 C 2.160156 -3.777344 2.449219 -4.019531 3.050781 -4.019531 C 3.617188 -4.019531 3.800781 -3.839844 3.800781 -3.539062 C 3.800781 -3.277344 3.679688 -3.160156 3.21875 -3.078125 L 2.089844 -2.878906 C 0.710938 -2.648438 0.378906 -2.121094 0.378906 -1.320312 C 0.378906 -0.441406 1.039062 0.128906 2.039062 0.128906 Z M 2.6875 -0.988281 C 2.339844 -0.988281 2.070312 -1.167969 2.070312 -1.519531 C 2.070312 -1.859375 2.25 -2.03125 2.730469 -2.148438 L 3.019531 -2.21875 C 3.328125 -2.300781 3.558594 -2.359375 3.800781 -2.539062 L 3.800781 -2.347656 C 3.800781 -1.449219 3.339844 -0.988281 2.6875 -0.988281 Z M 2.6875 -0.988281 "/></g></g></g><g fill="#fbfbfb" fill-opacity="1"><g transform="translate(166.97305, 429.535678)"><g><path d="M 3.597656 -5.078125 C 2.789062 -5.078125 2.378906 -4.6875 2.179688 -3.980469 L 2.179688 -5 L 0.511719 -5 L 0.511719 0 L 2.230469 0 L 2.230469 -2 C 2.230469 -3.007812 2.578125 -3.410156 3.410156 -3.410156 L 4.019531 -3.410156 L 4.019531 -5.078125 Z M 3.597656 -5.078125 "/></g></g></g><g clip-path="url(#838fbcd489)"><path fill="#000000" d="M 63.109375 51.296875 C 62.660156 51.679688 62.183594 52.039062 61.699219 52.382812 C 60.519531 53.195312 59.363281 54.082031 58.023438 54.65625 C 55.578125 55.660156 52.773438 55.621094 50.269531 54.84375 C 50.058594 45.652344 40.210938 46.375 36.738281 37.316406 C 36.71875 37.292969 36.707031 37.265625 36.699219 37.234375 C 37.058594 36.644531 37.292969 35.960938 37.375 35.242188 C 37.792969 32.6875 37.722656 29.941406 36.636719 27.550781 C 35.921875 26.03125 34.816406 24.59375 33.351562 23.714844 C 31.546875 22.769531 29.351562 23.21875 27.511719 23.859375 C 26.164062 24.449219 25.175781 25.714844 23.671875 25.976562 C 23.148438 26.101562 22.632812 26.070312 22.117188 26.035156 C 21.558594 26 21 25.96875 20.425781 26.128906 C 18.65625 26.644531 18.085938 28.792969 18.730469 30.359375 C 19.191406 31.566406 20 32.636719 20.90625 33.550781 C 22.699219 35.292969 25.398438 36.011719 27.976562 36.199219 C 27.558594 36.707031 27.167969 37.246094 26.832031 37.808594 C 25.5 40.03125 24.996094 42.65625 25.121094 45.214844 C 25.066406 48.0625 25.453125 52.054688 24.074219 54.585938 C 23.164062 55.765625 21.464844 55.648438 20.164062 56.109375 C 18.222656 56.542969 17.542969 58.863281 19.175781 60.089844 C 20.289062 60.964844 21.753906 60.925781 23.101562 60.808594 C 25.859375 60.589844 28.335938 59.109375 30.296875 57.257812 C 31.363281 58.828125 32.898438 60.089844 34.5625 60.996094 C 34.605469 61.019531 34.648438 61.027344 34.691406 61.027344 C 34.828125 61.027344 34.960938 60.941406 35.011719 60.816406 C 35.128906 60.53125 34.871094 60.394531 34.652344 60.257812 C 34.375 60.070312 34.070312 59.835938 33.773438 59.601562 C 32.691406 58.753906 31.636719 57.832031 30.921875 56.648438 C 32.527344 54.964844 33.746094 52.808594 33.980469 50.480469 C 34.210938 48.609375 32.96875 45.507812 30.613281 46.730469 C 29.433594 47.410156 28.933594 48.78125 28.667969 50.03125 C 28.195312 52.191406 28.621094 54.519531 29.773438 56.40625 C 27.410156 58.753906 23.953125 60.472656 20.546875 59.714844 C 19.554688 59.464844 18.742188 58.296875 19.632812 57.472656 C 20.351562 56.925781 21.320312 56.882812 22.171875 56.660156 C 24.761719 56.234375 25.550781 54.636719 25.902344 52.253906 C 26.5 48.695312 25.785156 45.050781 26.429688 41.503906 C 26.710938 40.101562 27.253906 38.746094 28.070312 37.558594 C 28.246094 37.167969 28.964844 36.6875 28.851562 36.242188 C 29.335938 36.257812 29.8125 36.253906 30.273438 36.234375 C 30.699219 37.664062 31.746094 39.191406 33.40625 39.214844 C 34.597656 39.167969 35.585938 38.628906 36.28125 37.8125 C 36.445312 38.359375 36.765625 38.890625 36.976562 39.386719 C 40.292969 46.707031 49.246094 46.640625 49.453125 54.566406 C 46.957031 53.679688 44.632812 52.300781 42.042969 51.683594 C 40.898438 51.5625 39.664062 51.640625 38.667969 52.253906 C 37.472656 52.925781 36.265625 53.894531 36.101562 55.328125 C 35.847656 56.382812 36.148438 57.464844 36.5 58.464844 C 37.304688 60.699219 39.453125 62.4375 41.894531 62.515625 C 41.988281 62.519531 42.082031 62.519531 42.175781 62.519531 C 43.566406 62.519531 44.914062 62.023438 46.128906 61.386719 C 48.308594 60.292969 49.992188 58.210938 50.230469 55.769531 C 52.769531 56.488281 55.566406 56.46875 58.046875 55.53125 C 60.085938 54.667969 61.878906 53.292969 63.605469 51.933594 C 64.035156 51.621094 63.515625 50.96875 63.109375 51.296875 Z M 29.65625 50.230469 C 29.910156 49.171875 30.300781 47.703125 31.539062 47.449219 C 32.574219 47.464844 32.859375 48.769531 32.949219 49.585938 C 33.066406 51.871094 31.972656 54.105469 30.421875 55.753906 C 29.605469 54.050781 29.285156 52.089844 29.65625 50.230469 Z M 36.609375 33.316406 C 36.453125 35.425781 36.117188 37.808594 33.59375 38.222656 C 31.257812 38.152344 30.984375 35.097656 30.65625 33.34375 C 30.527344 32.863281 30.738281 31.886719 30.019531 31.886719 C 30.007812 31.886719 29.996094 31.886719 29.984375 31.886719 C 29.222656 32.03125 29.75 33.230469 29.734375 33.761719 C 29.832031 34.4375 29.960938 35.109375 30.136719 35.769531 C 27.289062 35.652344 24 35.203125 21.765625 33.316406 C 20.519531 32.109375 19.21875 30.546875 19.253906 28.734375 C 19.296875 27.878906 19.878906 27 20.769531 26.835938 C 21.234375 26.777344 21.707031 26.804688 22.179688 26.832031 C 22.867188 26.871094 23.550781 26.910156 24.21875 26.6875 C 25.527344 26.363281 26.488281 25.378906 27.652344 24.765625 C 29.113281 24.171875 30.855469 23.839844 32.390625 24.339844 C 33.578125 24.800781 34.359375 25.824219 35.125 26.796875 C 36.410156 28.703125 36.777344 31.0625 36.609375 33.316406 Z M 42.609375 61.488281 C 40.574219 61.640625 38.597656 60.433594 37.746094 58.617188 C 37.234375 57.507812 36.882812 56.238281 37.28125 55.042969 C 37.570312 54.238281 38.28125 53.710938 38.972656 53.25 C 39.632812 52.777344 40.441406 52.585938 41.25 52.585938 C 41.511719 52.585938 41.773438 52.605469 42.03125 52.644531 C 44.597656 53.3125 46.929688 54.660156 49.4375 55.519531 C 49.144531 58.914062 45.839844 61.160156 42.609375 61.488281 Z M 42.609375 61.488281 " fill-opacity="1" fill-rule="nonzero"/></g><g fill="#3b3b3b" fill-opacity="1"><g transform="translate(55.86647, 47.663539)"><g><path d="M 11.191406 -10.128906 L 11.191406 -12.808594 L 1.039062 -12.808594 L 1.039062 0 L 4.429688 0 L 4.429688 -4.988281 L 10.496094 -4.988281 L 10.496094 -7.472656 L 4.429688 -7.472656 L 4.429688 -10.128906 Z M 11.191406 -10.128906 "/></g></g></g><g fill="#3b3b3b" fill-opacity="1"><g transform="translate(67.765418, 47.663539)"><g><path d="M 6.144531 0.308594 C 10.226562 0.308594 11.671875 -2.234375 11.671875 -4.816406 C 11.671875 -7.394531 10.226562 -9.9375 6.144531 -9.9375 C 2.0625 -9.9375 0.636719 -7.394531 0.636719 -4.816406 C 0.636719 -2.214844 2.0625 0.308594 6.144531 0.308594 Z M 3.949219 -4.816406 C 3.949219 -6.742188 4.566406 -7.355469 6.144531 -7.355469 C 7.722656 -7.355469 8.339844 -6.742188 8.339844 -4.816406 C 8.339844 -2.890625 7.722656 -2.273438 6.144531 -2.273438 C 4.566406 -2.273438 3.949219 -2.890625 3.949219 -4.816406 Z M 3.949219 -4.816406 "/></g></g></g><g fill="#3b3b3b" fill-opacity="1"><g transform="translate(80.049448, 47.663539)"><g><path d="M 0.636719 -4.816406 C 0.636719 -2.214844 2.136719 0.308594 6.125 0.308594 C 9.707031 0.308594 11.304688 -1.792969 11.382812 -4.082031 L 8.128906 -4.082031 C 8.011719 -3.023438 7.433594 -2.273438 6.066406 -2.273438 C 4.699219 -2.273438 3.949219 -2.890625 3.949219 -4.816406 C 3.949219 -6.742188 4.738281 -7.355469 6.125 -7.355469 C 7.414062 -7.355469 7.992188 -6.703125 8.089844 -5.566406 L 11.34375 -5.566406 C 11.265625 -7.972656 9.570312 -9.9375 6.085938 -9.9375 C 2.097656 -9.9375 0.636719 -7.414062 0.636719 -4.816406 Z M 0.636719 -4.816406 "/></g></g></g><g fill="#3b3b3b" fill-opacity="1"><g transform="translate(91.967656, 47.663539)"><g><path d="M 0.925781 -10.804688 L 4.351562 -10.804688 L 4.351562 -12.808594 L 0.925781 -12.808594 Z M 0.980469 0 L 4.296875 0 L 4.296875 -9.628906 L 0.980469 -9.628906 Z M 0.980469 0 "/></g></g></g><g fill="#3b3b3b" fill-opacity="1"><g transform="translate(97.262493, 47.663539)"><g><path d="M 7.761719 -9.9375 C 6.046875 -9.9375 4.929688 -9.109375 4.296875 -7.839844 L 4.296875 -9.628906 L 0.980469 -9.628906 L 0.980469 0 L 4.296875 0 L 4.296875 -4.527344 C 4.296875 -6.414062 5.066406 -7.261719 6.394531 -7.261719 C 7.550781 -7.261719 8.070312 -6.566406 8.070312 -5.296875 L 8.070312 0 L 11.382812 0 L 11.382812 -5.855469 C 11.382812 -8.378906 10.285156 -9.9375 7.761719 -9.9375 Z M 7.761719 -9.9375 "/></g></g></g><g fill="#3b3b3b" fill-opacity="1"><g transform="translate(109.527274, 47.663539)"><g><path d="M 7.761719 -9.9375 C 6.046875 -9.9375 4.929688 -9.109375 4.296875 -7.839844 L 4.296875 -13.480469 L 0.980469 -13.480469 L 0.980469 0 L 4.296875 0 L 4.296875 -4.527344 C 4.296875 -6.414062 5.066406 -7.261719 6.394531 -7.261719 C 7.550781 -7.261719 8.070312 -6.566406 8.070312 -5.296875 L 8.070312 0 L 11.382812 0 L 11.382812 -5.855469 C 11.382812 -8.378906 10.285156 -9.9375 7.761719 -9.9375 Z M 7.761719 -9.9375 "/></g></g></g><g fill="#3b3b3b" fill-opacity="1"><g transform="translate(121.792055, 47.663539)"><g><path d="M 6.144531 0.308594 C 10.226562 0.308594 11.671875 -2.234375 11.671875 -4.816406 C 11.671875 -7.394531 10.226562 -9.9375 6.144531 -9.9375 C 2.0625 -9.9375 0.636719 -7.394531 0.636719 -4.816406 C 0.636719 -2.214844 2.0625 0.308594 6.144531 0.308594 Z M 3.949219 -4.816406 C 3.949219 -6.742188 4.566406 -7.355469 6.144531 -7.355469 C 7.722656 -7.355469 8.339844 -6.742188 8.339844 -4.816406 C 8.339844 -2.890625 7.722656 -2.273438 6.144531 -2.273438 C 4.566406 -2.273438 3.949219 -2.890625 3.949219 -4.816406 Z M 3.949219 -4.816406 "/></g></g></g><g fill="#3b3b3b" fill-opacity="1"><g transform="translate(134.065683, 47.663539)"><g/></g></g><g fill="#3b3b3b" fill-opacity="1"><g transform="translate(139.013948, 47.663539)"><g/></g></g><g fill="#3b3b3b" fill-opacity="1"><g transform="translate(143.956307, 47.663539)"><g><path d="M 11.191406 -10.128906 L 11.191406 -12.808594 L 1.039062 -12.808594 L 1.039062 0 L 4.429688 0 L 4.429688 -4.988281 L 10.496094 -4.988281 L 10.496094 -7.472656 L 4.429688 -7.472656 L 4.429688 -10.128906 Z M 11.191406 -10.128906 "/></g></g></g><g fill="#3b3b3b" fill-opacity="1"><g transform="translate(155.855255, 47.663539)"><g><path d="M 0.925781 -10.804688 L 4.351562 -10.804688 L 4.351562 -12.808594 L 0.925781 -12.808594 Z M 0.980469 0 L 4.296875 0 L 4.296875 -9.628906 L 0.980469 -9.628906 Z M 0.980469 0 "/></g></g></g><g fill="#3b3b3b" fill-opacity="1"><g transform="translate(161.150092, 47.663539)"><g><path d="M 7.761719 -9.9375 C 6.046875 -9.9375 4.929688 -9.109375 4.296875 -7.839844 L 4.296875 -9.628906 L 0.980469 -9.628906 L 0.980469 0 L 4.296875 0 L 4.296875 -4.527344 C 4.296875 -6.414062 5.066406 -7.261719 6.394531 -7.261719 C 7.550781 -7.261719 8.070312 -6.566406 8.070312 -5.296875 L 8.070312 0 L 11.382812 0 L 11.382812 -5.855469 C 11.382812 -8.378906 10.285156 -9.9375 7.761719 -9.9375 Z M 7.761719 -9.9375 "/></g></g></g><g fill="#3b3b3b" fill-opacity="1"><g transform="translate(173.414873, 47.663539)"><g><path d="M 6.144531 0.308594 C 10.226562 0.308594 11.671875 -2.234375 11.671875 -4.816406 C 11.671875 -7.394531 10.226562 -9.9375 6.144531 -9.9375 C 2.0625 -9.9375 0.636719 -7.394531 0.636719 -4.816406 C 0.636719 -2.214844 2.0625 0.308594 6.144531 0.308594 Z M 3.949219 -4.816406 C 3.949219 -6.742188 4.566406 -7.355469 6.144531 -7.355469 C 7.722656 -7.355469 8.339844 -6.742188 8.339844 -4.816406 C 8.339844 -2.890625 7.722656 -2.273438 6.144531 -2.273438 C 4.566406 -2.273438 3.949219 -2.890625 3.949219 -4.816406 Z M 3.949219 -4.816406 "/></g></g></g><g fill="#b7b0dd" fill-opacity="1"><g transform="translate(199.112858, 631.991606)"><g><path d="M 3.867188 0.171875 C 6 0.171875 6.949219 -0.960938 7.058594 -2.648438 L 6.207031 -2.648438 C 6.117188 -1.300781 5.359375 -0.519531 3.847656 -0.519531 C 2.1875 -0.519531 1.417969 -1.46875 1.417969 -3.328125 C 1.417969 -5.1875 2.210938 -6.136719 3.867188 -6.136719 C 5.308594 -6.136719 6.046875 -5.46875 6.1875 -4.167969 L 7.027344 -4.167969 C 6.867188 -5.820312 5.9375 -6.828125 3.890625 -6.828125 C 1.597656 -6.828125 0.550781 -5.328125 0.550781 -3.328125 C 0.550781 -1.308594 1.578125 0.171875 3.867188 0.171875 Z M 3.867188 0.171875 "/></g></g></g><g fill="#b7b0dd" fill-opacity="1"><g transform="translate(206.669871, 631.991606)"><g><path d="M 2.230469 0.128906 C 3.390625 0.128906 3.917969 -0.570312 4.109375 -1.167969 C 4.109375 -0.800781 4.140625 -0.429688 4.179688 0 L 4.910156 0 C 4.859375 -0.488281 4.847656 -0.878906 4.847656 -1.238281 L 4.847656 -3.640625 C 4.847656 -4.539062 4.230469 -5.167969 2.859375 -5.167969 C 1.480469 -5.167969 0.730469 -4.488281 0.699219 -3.429688 L 1.488281 -3.429688 C 1.539062 -4.078125 1.910156 -4.539062 2.890625 -4.539062 C 3.859375 -4.539062 4.117188 -4.148438 4.117188 -3.640625 C 4.117188 -3.257812 3.898438 -3.121094 3.371094 -3.027344 L 2.097656 -2.820312 C 1.019531 -2.640625 0.578125 -2.128906 0.578125 -1.320312 C 0.578125 -0.371094 1.269531 0.128906 2.230469 0.128906 Z M 2.390625 -0.5 C 1.800781 -0.5 1.390625 -0.78125 1.390625 -1.351562 C 1.390625 -1.890625 1.710938 -2.148438 2.390625 -2.289062 L 3.21875 -2.460938 C 3.597656 -2.539062 3.867188 -2.621094 4.117188 -2.800781 L 4.117188 -2.371094 C 4.117188 -1.417969 3.570312 -0.5 2.390625 -0.5 Z M 2.390625 -0.5 "/></g></g></g><g fill="#b7b0dd" fill-opacity="1"><g transform="translate(212.147711, 631.991606)"><g><path d="M 4.667969 -7 L 4.667969 -4.050781 C 4.328125 -4.757812 3.699219 -5.160156 2.78125 -5.160156 C 1.210938 -5.160156 0.488281 -4.039062 0.488281 -2.5 C 0.488281 -0.96875 1.210938 0.160156 2.78125 0.160156 C 3.699219 0.160156 4.328125 -0.25 4.667969 -0.960938 L 4.667969 0 L 5.46875 0 L 5.46875 -7 Z M 2.9375 -0.488281 C 1.800781 -0.488281 1.300781 -1.160156 1.300781 -2.5 C 1.300781 -3.847656 1.800781 -4.507812 2.9375 -4.507812 C 4 -4.507812 4.667969 -3.910156 4.667969 -2.5 C 4.667969 -1.089844 4 -0.488281 2.9375 -0.488281 Z M 2.9375 -0.488281 "/></g></g></g><g fill="#b7b0dd" fill-opacity="1"><g transform="translate(218.325277, 631.991606)"><g><path d="M 2.230469 0.128906 C 3.390625 0.128906 3.917969 -0.570312 4.109375 -1.167969 C 4.109375 -0.800781 4.140625 -0.429688 4.179688 0 L 4.910156 0 C 4.859375 -0.488281 4.847656 -0.878906 4.847656 -1.238281 L 4.847656 -3.640625 C 4.847656 -4.539062 4.230469 -5.167969 2.859375 -5.167969 C 1.480469 -5.167969 0.730469 -4.488281 0.699219 -3.429688 L 1.488281 -3.429688 C 1.539062 -4.078125 1.910156 -4.539062 2.890625 -4.539062 C 3.859375 -4.539062 4.117188 -4.148438 4.117188 -3.640625 C 4.117188 -3.257812 3.898438 -3.121094 3.371094 -3.027344 L 2.097656 -2.820312 C 1.019531 -2.640625 0.578125 -2.128906 0.578125 -1.320312 C 0.578125 -0.371094 1.269531 0.128906 2.230469 0.128906 Z M 2.390625 -0.5 C 1.800781 -0.5 1.390625 -0.78125 1.390625 -1.351562 C 1.390625 -1.890625 1.710938 -2.148438 2.390625 -2.289062 L 3.21875 -2.460938 C 3.597656 -2.539062 3.867188 -2.621094 4.117188 -2.800781 L 4.117188 -2.371094 C 4.117188 -1.417969 3.570312 -0.5 2.390625 -0.5 Z M 2.390625 -0.5 "/></g></g></g><g fill="#b7b0dd" fill-opacity="1"><g transform="translate(223.803117, 631.991606)"><g><path d="M 0.378906 -1.667969 C 0.398438 -0.621094 1.058594 0.160156 2.6875 0.160156 C 4.019531 0.160156 4.730469 -0.339844 4.730469 -1.359375 C 4.730469 -2.179688 4.308594 -2.667969 3.160156 -2.839844 L 2.097656 -2.988281 C 1.46875 -3.078125 1.289062 -3.378906 1.289062 -3.730469 C 1.289062 -4.21875 1.640625 -4.558594 2.488281 -4.558594 C 3.410156 -4.558594 3.789062 -4.089844 3.839844 -3.570312 L 4.628906 -3.570312 C 4.570312 -4.507812 3.820312 -5.167969 2.507812 -5.167969 C 1.25 -5.167969 0.511719 -4.597656 0.511719 -3.667969 C 0.511719 -2.898438 1 -2.4375 1.871094 -2.320312 L 3.027344 -2.148438 C 3.660156 -2.058594 3.9375 -1.800781 3.9375 -1.320312 C 3.9375 -0.761719 3.589844 -0.449219 2.710938 -0.449219 C 1.558594 -0.449219 1.179688 -0.988281 1.121094 -1.667969 Z M 0.378906 -1.667969 "/></g></g></g><g fill="#b7b0dd" fill-opacity="1"><g transform="translate(228.961084, 631.991606)"><g><path d="M 2.359375 0 L 3.539062 0 L 3.539062 -0.648438 L 1.949219 -0.648438 L 1.949219 -4.367188 L 3.597656 -4.367188 L 3.597656 -5 L 1.949219 -5 L 1.949219 -6.109375 L 1.519531 -6.109375 L 1.21875 -5.070312 L 0.199219 -4.820312 L 0.199219 -4.367188 L 1.148438 -4.367188 L 1.148438 -1.167969 C 1.148438 -0.371094 1.398438 0 2.359375 0 Z M 2.359375 0 "/></g></g></g><g fill="#b7b0dd" fill-opacity="1"><g transform="translate(232.869538, 631.991606)"><g><path d="M 3.359375 -5.070312 C 2.410156 -5.070312 1.828125 -4.507812 1.53125 -3.679688 L 1.53125 -5 L 0.730469 -5 L 0.730469 0 L 1.53125 0 L 1.53125 -1.839844 C 1.53125 -3.25 1.847656 -4.328125 3.328125 -4.277344 L 3.539062 -4.277344 L 3.539062 -5.070312 Z M 3.359375 -5.070312 "/></g></g></g><g fill="#b7b0dd" fill-opacity="1"><g transform="translate(236.718014, 631.991606)"><g><path d="M 2.230469 0.128906 C 3.390625 0.128906 3.917969 -0.570312 4.109375 -1.167969 C 4.109375 -0.800781 4.140625 -0.429688 4.179688 0 L 4.910156 0 C 4.859375 -0.488281 4.847656 -0.878906 4.847656 -1.238281 L 4.847656 -3.640625 C 4.847656 -4.539062 4.230469 -5.167969 2.859375 -5.167969 C 1.480469 -5.167969 0.730469 -4.488281 0.699219 -3.429688 L 1.488281 -3.429688 C 1.539062 -4.078125 1.910156 -4.539062 2.890625 -4.539062 C 3.859375 -4.539062 4.117188 -4.148438 4.117188 -3.640625 C 4.117188 -3.257812 3.898438 -3.121094 3.371094 -3.027344 L 2.097656 -2.820312 C 1.019531 -2.640625 0.578125 -2.128906 0.578125 -1.320312 C 0.578125 -0.371094 1.269531 0.128906 2.230469 0.128906 Z M 2.390625 -0.5 C 1.800781 -0.5 1.390625 -0.78125 1.390625 -1.351562 C 1.390625 -1.890625 1.710938 -2.148438 2.390625 -2.289062 L 3.21875 -2.460938 C 3.597656 -2.539062 3.867188 -2.621094 4.117188 -2.800781 L 4.117188 -2.371094 C 4.117188 -1.417969 3.570312 -0.5 2.390625 -0.5 Z M 2.390625 -0.5 "/></g></g></g><g fill="#b7b0dd" fill-opacity="1"><g transform="translate(242.195854, 631.991606)"><g><path d="M 3.359375 -5.070312 C 2.410156 -5.070312 1.828125 -4.507812 1.53125 -3.679688 L 1.53125 -5 L 0.730469 -5 L 0.730469 0 L 1.53125 0 L 1.53125 -1.839844 C 1.53125 -3.25 1.847656 -4.328125 3.328125 -4.277344 L 3.539062 -4.277344 L 3.539062 -5.070312 Z M 3.359375 -5.070312 "/></g></g></g><g fill="#b7b0dd" fill-opacity="1"><g transform="translate(78.043798, 631.991606)"><g><path d="M 5.796875 0 L 6.636719 0 L 4.117188 -6.648438 L 2.890625 -6.648438 L 0.371094 0 L 1.199219 0 L 1.847656 -1.699219 L 5.148438 -1.699219 Z M 2.097656 -2.371094 L 3.5 -6.046875 L 4.898438 -2.371094 Z M 2.097656 -2.371094 "/></g></g></g><g fill="#b7b0dd" fill-opacity="1"><g transform="translate(85.031045, 631.991606)"><g><path d="M 0.621094 -5.820312 L 1.648438 -5.820312 L 1.648438 -6.648438 L 0.621094 -6.648438 Z M 0.730469 0 L 1.53125 0 L 1.53125 -5 L 0.730469 -5 Z M 0.730469 0 "/></g></g></g><g fill="#b7b0dd" fill-opacity="1"><g transform="translate(87.300145, 631.991606)"><g><path d="M 3.449219 -5.160156 C 2.460938 -5.160156 1.839844 -4.597656 1.53125 -3.6875 L 1.53125 -5 L 0.730469 -5 L 0.730469 0 L 1.53125 0 L 1.53125 -1.910156 C 1.53125 -3.628906 2.121094 -4.488281 3.230469 -4.488281 C 3.960938 -4.488281 4.429688 -4.167969 4.429688 -3.097656 L 4.429688 0 L 5.230469 0 L 5.230469 -3.1875 C 5.230469 -4.480469 4.699219 -5.160156 3.449219 -5.160156 Z M 3.449219 -5.160156 "/></g></g></g><g fill="#b7b0dd" fill-opacity="1"><g transform="translate(93.157838, 631.991606)"><g><path d="M 4.667969 -7 L 4.667969 -4.050781 C 4.328125 -4.757812 3.699219 -5.160156 2.78125 -5.160156 C 1.210938 -5.160156 0.488281 -4.039062 0.488281 -2.5 C 0.488281 -0.96875 1.210938 0.160156 2.78125 0.160156 C 3.699219 0.160156 4.328125 -0.25 4.667969 -0.960938 L 4.667969 0 L 5.46875 0 L 5.46875 -7 Z M 2.9375 -0.488281 C 1.800781 -0.488281 1.300781 -1.160156 1.300781 -2.5 C 1.300781 -3.847656 1.800781 -4.507812 2.9375 -4.507812 C 4 -4.507812 4.667969 -3.910156 4.667969 -2.5 C 4.667969 -1.089844 4 -0.488281 2.9375 -0.488281 Z M 2.9375 -0.488281 "/></g></g></g><g fill="#b7b0dd" fill-opacity="1"><g transform="translate(99.335404, 631.991606)"><g><path d="M 2.230469 0.128906 C 3.390625 0.128906 3.917969 -0.570312 4.109375 -1.167969 C 4.109375 -0.800781 4.140625 -0.429688 4.179688 0 L 4.910156 0 C 4.859375 -0.488281 4.847656 -0.878906 4.847656 -1.238281 L 4.847656 -3.640625 C 4.847656 -4.539062 4.230469 -5.167969 2.859375 -5.167969 C 1.480469 -5.167969 0.730469 -4.488281 0.699219 -3.429688 L 1.488281 -3.429688 C 1.539062 -4.078125 1.910156 -4.539062 2.890625 -4.539062 C 3.859375 -4.539062 4.117188 -4.148438 4.117188 -3.640625 C 4.117188 -3.257812 3.898438 -3.121094 3.371094 -3.027344 L 2.097656 -2.820312 C 1.019531 -2.640625 0.578125 -2.128906 0.578125 -1.320312 C 0.578125 -0.371094 1.269531 0.128906 2.230469 0.128906 Z M 2.390625 -0.5 C 1.800781 -0.5 1.390625 -0.78125 1.390625 -1.351562 C 1.390625 -1.890625 1.710938 -2.148438 2.390625 -2.289062 L 3.21875 -2.460938 C 3.597656 -2.539062 3.867188 -2.621094 4.117188 -2.800781 L 4.117188 -2.371094 C 4.117188 -1.417969 3.570312 -0.5 2.390625 -0.5 Z M 2.390625 -0.5 "/></g></g></g><g fill="#b7b0dd" fill-opacity="1"><g transform="translate(104.813244, 631.991606)"><g/></g></g><g fill="#b7b0dd" fill-opacity="1"><g transform="translate(107.062351, 631.991606)"><g><path d="M 3.449219 -5.160156 C 2.460938 -5.160156 1.839844 -4.597656 1.53125 -3.6875 L 1.53125 -5 L 0.730469 -5 L 0.730469 0 L 1.53125 0 L 1.53125 -1.910156 C 1.53125 -3.628906 2.121094 -4.488281 3.230469 -4.488281 C 3.960938 -4.488281 4.429688 -4.167969 4.429688 -3.097656 L 4.429688 0 L 5.230469 0 L 5.230469 -3.1875 C 5.230469 -4.480469 4.699219 -5.160156 3.449219 -5.160156 Z M 3.449219 -5.160156 "/></g></g></g><g fill="#b7b0dd" fill-opacity="1"><g transform="translate(112.920043, 631.991606)"><g><path d="M 3.5 -5.757812 C 3.890625 -5.757812 4.238281 -5.929688 4.238281 -6.386719 L 4.238281 -6.648438 L 3.648438 -6.648438 L 3.648438 -6.4375 C 3.648438 -6.289062 3.578125 -6.21875 3.429688 -6.21875 C 3.128906 -6.21875 2.667969 -6.667969 2.078125 -6.667969 C 1.691406 -6.667969 1.339844 -6.5 1.339844 -6.027344 L 1.339844 -5.777344 L 1.929688 -5.777344 L 1.929688 -5.988281 C 1.929688 -6.136719 2 -6.207031 2.148438 -6.207031 C 2.417969 -6.207031 3.027344 -5.757812 3.5 -5.757812 Z M 2.230469 0.128906 C 3.390625 0.128906 3.917969 -0.570312 4.109375 -1.167969 C 4.109375 -0.800781 4.140625 -0.429688 4.179688 0 L 4.910156 0 C 4.859375 -0.488281 4.847656 -0.878906 4.847656 -1.238281 L 4.847656 -3.640625 C 4.847656 -4.539062 4.230469 -5.167969 2.859375 -5.167969 C 1.480469 -5.167969 0.730469 -4.488281 0.699219 -3.429688 L 1.488281 -3.429688 C 1.539062 -4.078125 1.910156 -4.539062 2.890625 -4.539062 C 3.859375 -4.539062 4.117188 -4.148438 4.117188 -3.640625 C 4.117188 -3.257812 3.898438 -3.121094 3.371094 -3.027344 L 2.097656 -2.820312 C 1.019531 -2.640625 0.578125 -2.128906 0.578125 -1.320312 C 0.578125 -0.371094 1.269531 0.128906 2.230469 0.128906 Z M 2.390625 -0.5 C 1.800781 -0.5 1.390625 -0.78125 1.390625 -1.351562 C 1.390625 -1.890625 1.710938 -2.148438 2.390625 -2.289062 L 3.21875 -2.460938 C 3.597656 -2.539062 3.867188 -2.621094 4.117188 -2.800781 L 4.117188 -2.371094 C 4.117188 -1.417969 3.570312 -0.5 2.390625 -0.5 Z M 2.390625 -0.5 "/></g></g></g><g fill="#b7b0dd" fill-opacity="1"><g transform="translate(118.397883, 631.991606)"><g><path d="M 3 0.160156 C 4.679688 0.160156 5.507812 -1.007812 5.507812 -2.507812 C 5.507812 -3.988281 4.679688 -5.160156 3 -5.160156 C 1.308594 -5.160156 0.480469 -4 0.480469 -2.507812 C 0.480469 -1 1.308594 0.160156 3 0.160156 Z M 1.289062 -2.5 C 1.289062 -3.910156 1.871094 -4.507812 3 -4.507812 C 4.128906 -4.507812 4.699219 -3.910156 4.699219 -2.5 C 4.699219 -1.101562 4.128906 -0.488281 3 -0.488281 C 1.871094 -0.488281 1.289062 -1.101562 1.289062 -2.5 Z M 1.289062 -2.5 "/></g></g></g><g fill="#b7b0dd" fill-opacity="1"><g transform="translate(124.385523, 631.991606)"><g/></g></g><g fill="#b7b0dd" fill-opacity="1"><g transform="translate(126.63463, 631.991606)"><g><path d="M 4.058594 -6.238281 L 3.820312 -6.847656 L 1.71875 -5.917969 L 1.859375 -5.609375 Z M 2.988281 -0.449219 C 1.988281 -0.449219 1.328125 -0.949219 1.269531 -2.320312 L 5.289062 -2.320312 C 5.308594 -2.4375 5.308594 -2.539062 5.308594 -2.667969 C 5.308594 -4.128906 4.457031 -5.160156 2.960938 -5.160156 C 1.300781 -5.160156 0.480469 -4 0.480469 -2.507812 C 0.480469 -1 1.238281 0.160156 2.960938 0.160156 C 4.617188 0.160156 5.199219 -0.78125 5.296875 -1.539062 L 4.570312 -1.539062 C 4.417969 -0.910156 3.96875 -0.449219 2.988281 -0.449219 Z M 2.96875 -4.550781 C 3.898438 -4.550781 4.488281 -4.070312 4.527344 -2.917969 L 1.289062 -2.917969 C 1.398438 -4.097656 2.019531 -4.550781 2.96875 -4.550781 Z M 2.96875 -4.550781 "/></g></g></g><g fill="#b7b0dd" fill-opacity="1"><g transform="translate(132.392358, 631.991606)"><g/></g></g><g fill="#b7b0dd" fill-opacity="1"><g transform="translate(134.641466, 631.991606)"><g><path d="M 0.480469 -2.5 C 0.480469 -0.96875 1.339844 0.160156 2.980469 0.160156 C 4.5 0.160156 5.308594 -0.761719 5.367188 -1.910156 L 4.609375 -1.910156 C 4.507812 -1.058594 3.988281 -0.488281 2.980469 -0.488281 C 1.929688 -0.488281 1.289062 -1.050781 1.289062 -2.5 C 1.289062 -3.9375 1.949219 -4.507812 3.007812 -4.507812 C 3.9375 -4.507812 4.4375 -3.988281 4.558594 -3.167969 L 5.308594 -3.167969 C 5.230469 -4.328125 4.480469 -5.160156 2.980469 -5.160156 C 1.359375 -5.160156 0.480469 -4.027344 0.480469 -2.5 Z M 0.480469 -2.5 "/></g></g></g><g fill="#b7b0dd" fill-opacity="1"><g transform="translate(140.429177, 631.991606)"><g><path d="M 2.230469 0.128906 C 3.390625 0.128906 3.917969 -0.570312 4.109375 -1.167969 C 4.109375 -0.800781 4.140625 -0.429688 4.179688 0 L 4.910156 0 C 4.859375 -0.488281 4.847656 -0.878906 4.847656 -1.238281 L 4.847656 -3.640625 C 4.847656 -4.539062 4.230469 -5.167969 2.859375 -5.167969 C 1.480469 -5.167969 0.730469 -4.488281 0.699219 -3.429688 L 1.488281 -3.429688 C 1.539062 -4.078125 1.910156 -4.539062 2.890625 -4.539062 C 3.859375 -4.539062 4.117188 -4.148438 4.117188 -3.640625 C 4.117188 -3.257812 3.898438 -3.121094 3.371094 -3.027344 L 2.097656 -2.820312 C 1.019531 -2.640625 0.578125 -2.128906 0.578125 -1.320312 C 0.578125 -0.371094 1.269531 0.128906 2.230469 0.128906 Z M 2.390625 -0.5 C 1.800781 -0.5 1.390625 -0.78125 1.390625 -1.351562 C 1.390625 -1.890625 1.710938 -2.148438 2.390625 -2.289062 L 3.21875 -2.460938 C 3.597656 -2.539062 3.867188 -2.621094 4.117188 -2.800781 L 4.117188 -2.371094 C 4.117188 -1.417969 3.570312 -0.5 2.390625 -0.5 Z M 2.390625 -0.5 "/></g></g></g><g fill="#b7b0dd" fill-opacity="1"><g transform="translate(145.907017, 631.991606)"><g><path d="M 4.667969 -7 L 4.667969 -4.050781 C 4.328125 -4.757812 3.699219 -5.160156 2.78125 -5.160156 C 1.210938 -5.160156 0.488281 -4.039062 0.488281 -2.5 C 0.488281 -0.96875 1.210938 0.160156 2.78125 0.160156 C 3.699219 0.160156 4.328125 -0.25 4.667969 -0.960938 L 4.667969 0 L 5.46875 0 L 5.46875 -7 Z M 2.9375 -0.488281 C 1.800781 -0.488281 1.300781 -1.160156 1.300781 -2.5 C 1.300781 -3.847656 1.800781 -4.507812 2.9375 -4.507812 C 4 -4.507812 4.667969 -3.910156 4.667969 -2.5 C 4.667969 -1.089844 4 -0.488281 2.9375 -0.488281 Z M 2.9375 -0.488281 "/></g></g></g><g fill="#b7b0dd" fill-opacity="1"><g transform="translate(152.084583, 631.991606)"><g><path d="M 2.230469 0.128906 C 3.390625 0.128906 3.917969 -0.570312 4.109375 -1.167969 C 4.109375 -0.800781 4.140625 -0.429688 4.179688 0 L 4.910156 0 C 4.859375 -0.488281 4.847656 -0.878906 4.847656 -1.238281 L 4.847656 -3.640625 C 4.847656 -4.539062 4.230469 -5.167969 2.859375 -5.167969 C 1.480469 -5.167969 0.730469 -4.488281 0.699219 -3.429688 L 1.488281 -3.429688 C 1.539062 -4.078125 1.910156 -4.539062 2.890625 -4.539062 C 3.859375 -4.539062 4.117188 -4.148438 4.117188 -3.640625 C 4.117188 -3.257812 3.898438 -3.121094 3.371094 -3.027344 L 2.097656 -2.820312 C 1.019531 -2.640625 0.578125 -2.128906 0.578125 -1.320312 C 0.578125 -0.371094 1.269531 0.128906 2.230469 0.128906 Z M 2.390625 -0.5 C 1.800781 -0.5 1.390625 -0.78125 1.390625 -1.351562 C 1.390625 -1.890625 1.710938 -2.148438 2.390625 -2.289062 L 3.21875 -2.460938 C 3.597656 -2.539062 3.867188 -2.621094 4.117188 -2.800781 L 4.117188 -2.371094 C 4.117188 -1.417969 3.570312 -0.5 2.390625 -0.5 Z M 2.390625 -0.5 "/></g></g></g><g fill="#b7b0dd" fill-opacity="1"><g transform="translate(157.562423, 631.991606)"><g><path d="M 0.378906 -1.667969 C 0.398438 -0.621094 1.058594 0.160156 2.6875 0.160156 C 4.019531 0.160156 4.730469 -0.339844 4.730469 -1.359375 C 4.730469 -2.179688 4.308594 -2.667969 3.160156 -2.839844 L 2.097656 -2.988281 C 1.46875 -3.078125 1.289062 -3.378906 1.289062 -3.730469 C 1.289062 -4.21875 1.640625 -4.558594 2.488281 -4.558594 C 3.410156 -4.558594 3.789062 -4.089844 3.839844 -3.570312 L 4.628906 -3.570312 C 4.570312 -4.507812 3.820312 -5.167969 2.507812 -5.167969 C 1.25 -5.167969 0.511719 -4.597656 0.511719 -3.667969 C 0.511719 -2.898438 1 -2.4375 1.871094 -2.320312 L 3.027344 -2.148438 C 3.660156 -2.058594 3.9375 -1.800781 3.9375 -1.320312 C 3.9375 -0.761719 3.589844 -0.449219 2.710938 -0.449219 C 1.558594 -0.449219 1.179688 -0.988281 1.121094 -1.667969 Z M 0.378906 -1.667969 "/></g></g></g><g fill="#b7b0dd" fill-opacity="1"><g transform="translate(162.72039, 631.991606)"><g><path d="M 2.359375 0 L 3.539062 0 L 3.539062 -0.648438 L 1.949219 -0.648438 L 1.949219 -4.367188 L 3.597656 -4.367188 L 3.597656 -5 L 1.949219 -5 L 1.949219 -6.109375 L 1.519531 -6.109375 L 1.21875 -5.070312 L 0.199219 -4.820312 L 0.199219 -4.367188 L 1.148438 -4.367188 L 1.148438 -1.167969 C 1.148438 -0.371094 1.398438 0 2.359375 0 Z M 2.359375 0 "/></g></g></g><g fill="#b7b0dd" fill-opacity="1"><g transform="translate(166.628844, 631.991606)"><g><path d="M 3.359375 -5.070312 C 2.410156 -5.070312 1.828125 -4.507812 1.53125 -3.679688 L 1.53125 -5 L 0.730469 -5 L 0.730469 0 L 1.53125 0 L 1.53125 -1.839844 C 1.53125 -3.25 1.847656 -4.328125 3.328125 -4.277344 L 3.539062 -4.277344 L 3.539062 -5.070312 Z M 3.359375 -5.070312 "/></g></g></g><g fill="#b7b0dd" fill-opacity="1"><g transform="translate(170.47732, 631.991606)"><g><path d="M 2.230469 0.128906 C 3.390625 0.128906 3.917969 -0.570312 4.109375 -1.167969 C 4.109375 -0.800781 4.140625 -0.429688 4.179688 0 L 4.910156 0 C 4.859375 -0.488281 4.847656 -0.878906 4.847656 -1.238281 L 4.847656 -3.640625 C 4.847656 -4.539062 4.230469 -5.167969 2.859375 -5.167969 C 1.480469 -5.167969 0.730469 -4.488281 0.699219 -3.429688 L 1.488281 -3.429688 C 1.539062 -4.078125 1.910156 -4.539062 2.890625 -4.539062 C 3.859375 -4.539062 4.117188 -4.148438 4.117188 -3.640625 C 4.117188 -3.257812 3.898438 -3.121094 3.371094 -3.027344 L 2.097656 -2.820312 C 1.019531 -2.640625 0.578125 -2.128906 0.578125 -1.320312 C 0.578125 -0.371094 1.269531 0.128906 2.230469 0.128906 Z M 2.390625 -0.5 C 1.800781 -0.5 1.390625 -0.78125 1.390625 -1.351562 C 1.390625 -1.890625 1.710938 -2.148438 2.390625 -2.289062 L 3.21875 -2.460938 C 3.597656 -2.539062 3.867188 -2.621094 4.117188 -2.800781 L 4.117188 -2.371094 C 4.117188 -1.417969 3.570312 -0.5 2.390625 -0.5 Z M 2.390625 -0.5 "/></g></g></g><g fill="#b7b0dd" fill-opacity="1"><g transform="translate(175.95516, 631.991606)"><g><path d="M 4.667969 -7 L 4.667969 -4.050781 C 4.328125 -4.757812 3.699219 -5.160156 2.78125 -5.160156 C 1.210938 -5.160156 0.488281 -4.039062 0.488281 -2.5 C 0.488281 -0.96875 1.210938 0.160156 2.78125 0.160156 C 3.699219 0.160156 4.328125 -0.25 4.667969 -0.960938 L 4.667969 0 L 5.46875 0 L 5.46875 -7 Z M 2.9375 -0.488281 C 1.800781 -0.488281 1.300781 -1.160156 1.300781 -2.5 C 1.300781 -3.847656 1.800781 -4.507812 2.9375 -4.507812 C 4 -4.507812 4.667969 -3.910156 4.667969 -2.5 C 4.667969 -1.089844 4 -0.488281 2.9375 -0.488281 Z M 2.9375 -0.488281 "/></g></g></g><g fill="#b7b0dd" fill-opacity="1"><g transform="translate(182.132726, 631.991606)"><g><path d="M 3 0.160156 C 4.679688 0.160156 5.507812 -1.007812 5.507812 -2.507812 C 5.507812 -3.988281 4.679688 -5.160156 3 -5.160156 C 1.308594 -5.160156 0.480469 -4 0.480469 -2.507812 C 0.480469 -1 1.308594 0.160156 3 0.160156 Z M 1.289062 -2.5 C 1.289062 -3.910156 1.871094 -4.507812 3 -4.507812 C 4.128906 -4.507812 4.699219 -3.910156 4.699219 -2.5 C 4.699219 -1.101562 4.128906 -0.488281 3 -0.488281 C 1.871094 -0.488281 1.289062 -1.101562 1.289062 -2.5 Z M 1.289062 -2.5 "/></g></g></g><g fill="#b7b0dd" fill-opacity="1"><g transform="translate(188.120366, 631.991606)"><g><path d="M 2.570312 -2.519531 L 3.160156 -2.519531 C 4.757812 -2.519531 5.75 -3.371094 5.75 -4.75 C 5.75 -5.847656 5.027344 -6.828125 3.347656 -6.828125 C 1.351562 -6.828125 0.710938 -5.609375 0.648438 -4.378906 L 1.5 -4.378906 C 1.558594 -5.429688 2.070312 -6.136719 3.347656 -6.136719 C 4.378906 -6.136719 4.878906 -5.488281 4.878906 -4.6875 C 4.878906 -3.890625 4.5 -3.199219 3.097656 -3.199219 L 2.570312 -3.199219 Z M 2.679688 0 L 3.71875 0 L 3.71875 -0.878906 L 2.679688 -0.878906 Z M 2.679688 0 "/></g></g></g></svg>